<svg width="321" height="265" viewBox="0 0 321 265" fill="none" xmlns="http://www.w3.org/2000/svg">
<mask id="path-1-inside-1_2_418" fill="white">
<path fill-rule="evenodd" clip-rule="evenodd" d="M321 55.0793V-41.7271L160.5 77.6503L0 -41.7271V55.0793L90.7702 123.379H230.23L321 55.0793ZM321 203.265V300.071L160.5 180.694L0 300.071V203.265L90.7702 134.966H230.23L321 203.265Z"/>
</mask>
<path d="M321 -41.7271H322V-43.7171L320.403 -42.5294L321 -41.7271ZM321 55.0793L321.601 55.8784L322 55.5783V55.0793H321ZM160.5 77.6503L159.903 78.4527L160.5 78.8966L161.097 78.4527L160.5 77.6503ZM0 -41.7271L0.596803 -42.5294L-1 -43.7171V-41.7271H0ZM0 55.0793H-1V55.5783L-0.601248 55.8784L0 55.0793ZM90.7702 123.379L90.169 124.178L90.436 124.379H90.7702V123.379ZM230.23 123.379V124.379H230.564L230.831 124.178L230.23 123.379ZM321 300.071L320.403 300.874L322 302.061V300.071H321ZM321 203.265H322V202.766L321.601 202.466L321 203.265ZM160.5 180.694L161.097 179.892L160.5 179.448L159.903 179.892L160.5 180.694ZM0 300.071H-1V302.061L0.596803 300.874L0 300.071ZM0 203.265L-0.601248 202.466L-1 202.766V203.265H0ZM90.7702 134.966V133.966H90.436L90.169 134.167L90.7702 134.966ZM230.23 134.966L230.831 134.167L230.564 133.966H230.23V134.966ZM320 -41.7271V55.0793H322V-41.7271H320ZM161.097 78.4527L321.597 -40.9247L320.403 -42.5294L159.903 76.8479L161.097 78.4527ZM-0.596803 -40.9247L159.903 78.4527L161.097 76.8479L0.596803 -42.5294L-0.596803 -40.9247ZM1 55.0793V-41.7271H-1V55.0793H1ZM91.3715 122.58L0.601248 54.2802L-0.601248 55.8784L90.169 124.178L91.3715 122.58ZM230.23 122.379H90.7702V124.379H230.23V122.379ZM320.399 54.2802L229.628 122.58L230.831 124.178L321.601 55.8784L320.399 54.2802ZM322 300.071V203.265H320V300.071H322ZM159.903 181.496L320.403 300.874L321.597 299.269L161.097 179.892L159.903 181.496ZM0.596803 300.874L161.097 181.496L159.903 179.892L-0.596803 299.269L0.596803 300.874ZM-1 203.265V300.071H1V203.265H-1ZM90.169 134.167L-0.601248 202.466L0.601248 204.064L91.3715 135.765L90.169 134.167ZM230.23 133.966H90.7702V135.966H230.23V133.966ZM321.601 202.466L230.831 134.167L229.628 135.765L320.399 204.064L321.601 202.466Z" fill="url(#paint0_radial_2_418)" mask="url(#path-1-inside-1_2_418)"/>
<defs>
<radialGradient id="paint0_radial_2_418" cx="0" cy="0" r="1" gradientUnits="userSpaceOnUse" gradientTransform="translate(160.5 129) rotate(90) scale(171.071 160.5)">
<stop stop-color="#EB3A4A"/>
<stop offset="1" stop-color="#EB3A4A" stop-opacity="0"/>
</radialGradient>
</defs>
</svg>
