<svg width="105" height="24" viewBox="0 0 105 24" fill="none" xmlns="http://www.w3.org/2000/svg">
<path d="M22.5403 0V6.79683L16.1674 11.5935H6.37452L0 6.79683V0L11.271 8.38298L22.5403 0Z" fill="#EB3A4A"/>
<path d="M22.5403 24V17.2032L16.1674 12.4065H6.37452L0 17.2032V24L11.271 15.6187L22.5403 24Z" fill="#EB3A4A"/>
<path d="M31.5468 17.8751H28.6056L34.6376 11.8265L28.988 6.11035H31.9624L36.1339 10.3484L40.3055 6.11035H43.2633L37.5971 11.8265L43.6457 17.8751H40.6713L36.1339 13.3045L31.5484 17.8751H31.5468Z" fill="#D1D3D4"/>
<path d="M45.9534 17.9084V6.07715H52.1018C53.7744 6.07715 55.0846 6.37975 56.0323 6.98328C56.98 7.58682 57.4538 8.43642 57.4538 9.53375C57.4538 10.3867 57.1495 11.09 56.5394 11.6436C57.0714 11.9429 57.4754 12.3253 57.7531 12.7908C58.0291 13.2564 58.1687 13.7884 58.1687 14.3853C58.1687 15.5259 57.6783 16.3988 56.6973 17.0023C55.7164 17.6058 54.3064 17.9084 52.4692 17.9084H45.9551H45.9534ZM52.7003 10.8456C53.5416 10.8007 54.1734 10.666 54.5957 10.4382C55.0164 10.2104 55.2275 9.90951 55.2275 9.53209C55.2275 9.09981 54.9732 8.76728 54.4627 8.53451C53.954 8.30175 53.1892 8.18536 52.17 8.18536H48.1813V10.8605L52.7003 10.8439V10.8456ZM52.5341 15.7803C53.7195 15.7803 54.5841 15.6639 55.1261 15.4311C55.6681 15.1983 55.9408 14.8492 55.9408 14.3836C55.9408 13.9181 55.6831 13.569 55.1677 13.3362C54.6523 13.1034 53.8359 12.982 52.717 12.9704H48.1797V15.7786H52.5341V15.7803Z" fill="#D1D3D4"/>
<path d="M63.5257 17.1519C62.3569 16.6365 61.4408 15.9282 60.7757 15.0254C60.1107 14.1226 59.7782 13.1167 59.7782 12.0094C59.7782 10.9021 60.1124 9.89948 60.7841 9.00166C61.4541 8.10384 62.3702 7.39889 63.534 6.88347C64.6979 6.36806 65.9931 6.11035 67.4229 6.11035C68.8528 6.11035 70.1679 6.36806 71.3368 6.88347C72.5056 7.39889 73.425 8.10551 74.0951 9.00166C74.7651 9.89948 75.101 10.9021 75.101 12.0094C75.101 13.1167 74.7684 14.1359 74.1034 15.0337C73.4383 15.9315 72.5222 16.6381 71.3534 17.1519C70.1846 17.6673 68.8744 17.925 67.4229 17.925C65.9715 17.925 64.6946 17.6673 63.5257 17.1519ZM70.2394 15.3662C71.0757 15.0337 71.7341 14.5748 72.2163 13.9862C72.6985 13.3993 72.9395 12.7393 72.9395 12.0094C72.9395 11.2795 72.6985 10.636 72.2163 10.0491C71.7341 9.46221 71.0757 9 70.2394 8.66083C69.4031 8.32331 68.4637 8.15372 67.4229 8.15372C66.3821 8.15372 65.4594 8.32331 64.6231 8.66083C63.7868 8.99834 63.13 9.46221 62.6545 10.0491C62.1773 10.636 61.9396 11.2894 61.9396 12.0094C61.9396 12.7293 62.1773 13.3827 62.6545 13.9696C63.13 14.5565 63.7868 15.0187 64.6231 15.3579C65.4594 15.6954 66.3921 15.865 67.4229 15.865C68.4538 15.865 69.4031 15.6987 70.2394 15.3662Z" fill="#D1D3D4"/>
<path d="M90.4537 17.8751L87.2631 17.8585L81.1313 12.4749C81.7515 12.4965 82.1838 12.5082 82.4282 12.5082C83.9678 12.5082 85.0901 12.3319 85.7933 11.9761C86.4966 11.622 86.8491 11.0567 86.8491 10.2819C86.8491 9.59522 86.5199 9.06817 85.8598 8.70405C85.2014 8.33827 84.2338 8.15539 82.9602 8.15539H79.7364V17.8768H77.5766V6.11035H82.9436C84.8822 6.11035 86.3786 6.47114 87.431 7.19106C88.4835 7.91098 89.0089 8.94181 89.0089 10.2819C89.0089 11.2229 88.7678 12.0094 88.2856 12.6412C87.8035 13.273 87.0869 13.7435 86.1342 14.0544L90.4554 17.8768L90.4537 17.8751Z" fill="#D1D3D4"/>
<path d="M98.8949 17.925C97.4434 17.925 96.1316 17.6673 94.9561 17.1519C93.7823 16.6365 92.8595 15.9315 92.1895 15.0337C91.5194 14.1359 91.1836 13.1283 91.1836 12.0094C91.1836 10.8904 91.5178 9.88286 92.1895 8.98504C92.8595 8.08722 93.7823 7.38393 94.9561 6.87516C96.1299 6.3664 97.4434 6.11035 98.8949 6.11035C100.192 6.11035 101.349 6.30155 102.368 6.68396C103.387 7.06636 104.185 7.60672 104.761 8.30336L103.281 9.60021C102.528 9.05819 101.821 8.68078 101.163 8.46962C100.504 8.26013 99.7478 8.15372 98.8949 8.15372C97.864 8.15372 96.9263 8.32331 96.0784 8.66083C95.2304 8.99834 94.5637 9.46221 94.0766 10.0491C93.5894 10.636 93.345 11.2894 93.345 12.0094C93.345 12.7293 93.5861 13.3827 94.0683 13.9696C94.5504 14.5565 95.2155 15.0187 96.0618 15.3579C96.9097 15.6954 97.8541 15.865 98.8949 15.865H102.185V11.2462H104.328V17.9267H98.8949V17.925Z" fill="#D1D3D4"/>
</svg>
