<svg width="69" height="69" viewBox="0 0 69 69" fill="none" xmlns="http://www.w3.org/2000/svg">
<circle cx="34.5" cy="34.5" r="34.3713" fill="url(#paint0_radial_2_4024)" fill-opacity="0.03" stroke="url(#paint1_radial_2_4024)" stroke-width="0.257463"/>
<path d="M52.0301 19.7344V25.6366L57.3623 28.6004V41.5523L52.0301 44.5131V50.4061L40.4219 56.8627L36.7715 54.8325V37.1229L19.1926 27.3448L14.868 29.748V40.3793L19.1885 42.7825L23.8466 40.207L23.8629 40.0348C23.9707 39.0247 24.8167 38.2593 25.8345 38.2593C26.9347 38.2593 27.8285 39.145 27.8285 40.2386C27.8285 41.3322 26.9347 42.2148 25.8345 42.2148C25.5417 42.2148 25.2529 42.1445 24.9692 42.011L24.8167 41.9345L20.2002 44.4876V49.2493L29.8154 54.597L31.4718 53.6757V51.8819L22.1881 46.7258V45.6903L23.2945 45.0788L31.4718 49.6172V36.4554L33.4658 37.5612V54.8345L29.8154 56.8647L18.2073 50.4081V44.506L12.875 41.5391V28.5872L18.2073 25.6264V19.7334L29.8154 13.2778L33.4658 15.3081V33.0176L51.0448 42.7947L55.3694 40.3915V29.7603L51.0488 27.357L46.3907 29.9325L46.3714 30.1047C46.2667 31.1158 45.4146 31.8832 44.3998 31.8802C43.3026 31.8802 42.4098 30.9914 42.4098 29.9009C42.4098 28.8104 43.3036 27.9247 44.3998 27.9247C44.6926 27.9247 44.9845 27.995 45.2651 28.1285L45.4207 28.205L50.0371 25.6519V20.8902L40.4219 15.5425L38.7655 16.4638V18.2576L48.0492 23.4137V24.4492L46.9398 25.0607L45.6139 24.3249L45.6078 24.3279L38.7655 20.5233V33.6505L36.7715 32.5416V15.3081L40.4219 13.2778L52.0301 19.7344ZM20.2002 24.5175L31.4718 18.2586V16.4649L29.8154 15.5435L20.2002 20.8912V24.5175ZM31.4718 31.9077V20.5243L21.2333 26.2094L31.4718 31.9077ZM38.7655 49.6142L49.004 43.9291L38.7655 38.2308V49.6142ZM40.4219 54.595L50.0371 49.2473V45.621L38.7655 51.8799V53.6736L40.4219 54.595Z" fill="url(#paint2_linear_2_4024)"/>
<defs>
<radialGradient id="paint0_radial_2_4024" cx="0" cy="0" r="1" gradientUnits="userSpaceOnUse" gradientTransform="translate(34.5 34.5) rotate(90) scale(34.5)">
<stop offset="0.791667" stop-color="#FAFAFA" stop-opacity="0"/>
<stop offset="1" stop-color="#FAFAFA"/>
</radialGradient>
<radialGradient id="paint1_radial_2_4024" cx="0" cy="0" r="1" gradientUnits="userSpaceOnUse" gradientTransform="translate(34.5 -14.5377) rotate(90) scale(87.4434)">
<stop stop-color="white"/>
<stop offset="1" stop-color="white" stop-opacity="0"/>
</radialGradient>
<linearGradient id="paint2_linear_2_4024" x1="35.3437" y1="208.574" x2="35.3437" y2="4354.48" gradientUnits="userSpaceOnUse">
<stop stop-color="#01C38C"/>
<stop offset="1" stop-color="#23A185"/>
</linearGradient>
</defs>
</svg>
