<svg width="95" height="21" viewBox="0 0 95 21" fill="none" xmlns="http://www.w3.org/2000/svg">
<g clip-path="url(#clip0_2_4272)">
<path d="M6.98778 0.0151367C3.73738 0.0151367 1.00711 2.26728 0.224762 5.32188C0.0778021 5.83732 0 6.39231 0 6.98536V16.811H0.0576312V20.0326C0.0576312 20.4572 0.389011 20.794 0.806837 20.794C1.22466 20.794 1.55604 20.4572 1.55604 20.0326V17.7189C1.55604 17.3089 1.91624 16.9868 2.34847 16.9868H2.36288C2.79511 17.0014 3.1409 17.3235 3.1409 17.7336V18.7293C3.1409 19.154 3.47228 19.4908 3.89011 19.4908C4.30793 19.4908 4.63931 19.154 4.63931 18.7293V17.7189C4.63931 17.3089 4.99951 16.9868 5.43174 16.9868H5.44615C5.87838 17.0014 6.22417 17.3235 6.22417 17.7336V17.9239C6.22417 18.3486 6.55555 18.6854 6.97337 18.6854C7.3912 18.6854 7.72258 18.3486 7.72258 17.9239V17.7189C7.72258 17.3089 8.08278 16.9868 8.51501 16.9868H8.52942C8.96165 17.0014 9.30744 17.3235 9.30744 17.7336V18.7293C9.30744 19.154 9.63882 19.4908 10.0566 19.4908C10.4745 19.4908 10.8058 19.154 10.8058 18.7293V17.7189C10.8058 17.3089 11.166 16.9868 11.5983 16.9868H11.6127C12.0449 17.0014 12.3907 17.3235 12.3907 17.7336V19.9886C12.3907 20.4279 12.7365 20.794 13.1831 20.794C13.6298 20.794 13.9756 20.4426 13.9756 19.9886V7.11715C13.9756 3.19274 10.8491 0.0151367 6.98778 0.0151367ZM4.64651 8.09825C4.57015 8.11729 4.48947 8.12754 4.40879 8.12754C3.92468 8.12754 3.51118 7.76731 3.32244 7.2548C3.28498 7.11422 3.27057 6.96193 3.27057 6.80964C3.27057 5.96033 3.78925 5.28673 4.4376 5.28673C5.08595 5.28673 5.56573 5.92665 5.60175 6.72032C5.58014 7.18158 5.3914 7.58867 5.10756 7.84492C4.97213 7.95621 4.81653 8.04261 4.64796 8.09825H4.64651ZM4.01257 5.2267C3.5472 5.4317 3.21438 5.98522 3.2115 6.64271C3.2115 6.63978 3.2115 6.63831 3.2115 6.63539C3.2115 5.98669 3.54576 5.4317 4.01257 5.2267ZM3.30803 7.21965C3.30803 7.21965 3.30515 7.2094 3.30227 7.20355C3.30371 7.2094 3.30515 7.2138 3.30803 7.21965ZM3.2187 6.79207C3.21726 6.7701 3.21726 6.74814 3.21582 6.72617C3.21582 6.74814 3.21582 6.7701 3.2187 6.79207ZM3.06742 6.63392C3.06742 7.27823 3.36278 7.83614 3.79069 8.11436C3.1798 7.93864 2.73604 7.37194 2.73604 6.69249C2.73604 6.11848 3.05445 5.62353 3.52271 5.37899C3.2432 5.68503 3.06742 6.13312 3.06742 6.63392ZM7.89403 6.69249C7.89403 6.10383 8.22829 5.6001 8.71528 5.36142C8.42568 5.66746 8.23982 6.12287 8.23982 6.63392C8.23982 7.28408 8.54094 7.84492 8.97462 8.12022C8.35076 7.95328 7.89403 7.38073 7.89403 6.69249ZM9.78866 8.10265C9.72094 8.11729 9.65178 8.12754 9.57975 8.12754C9.09564 8.12754 8.68214 7.76731 8.4934 7.2548C8.45594 7.11422 8.44153 6.96193 8.44153 6.80964C8.44153 5.96033 8.96021 5.28673 9.60856 5.28673C10.2569 5.28673 10.7367 5.92665 10.7727 6.72032C10.7554 7.09372 10.6301 7.43198 10.4312 7.68238C10.2598 7.87567 10.0394 8.02357 9.78866 8.10411V8.10265ZM8.3839 6.63392C8.3839 5.98229 8.72104 5.42438 9.19218 5.2223C8.72248 5.42438 8.38678 5.98083 8.3839 6.64124C8.3839 6.63831 8.3839 6.63685 8.3839 6.63392ZM8.48043 7.21819C8.48043 7.21819 8.47755 7.20794 8.47611 7.20355C8.47755 7.20794 8.47899 7.2138 8.48043 7.21819ZM8.41127 6.94289C8.40839 6.92825 8.40695 6.91214 8.40407 6.89604C8.40695 6.91214 8.40839 6.92679 8.41127 6.94289ZM8.3911 6.7906C8.38966 6.7701 8.38966 6.74814 8.38822 6.72617C8.38822 6.74814 8.38822 6.76864 8.3911 6.7906Z" fill="#62626A"/>
<path d="M93.4773 18.1871H83.2333V11.6708H92.4399C92.7713 11.6708 93.0883 11.539 93.3188 11.3047C93.5637 11.0704 93.7078 10.7629 93.6934 10.4261C93.6934 10.0893 93.5493 9.76718 93.3188 9.53289C93.0883 9.28395 92.7713 9.13752 92.4399 9.15216H83.2333V2.66516H93.4773C93.8086 2.66516 94.1256 2.53337 94.3561 2.29908C94.6011 2.06479 94.7451 1.75728 94.7307 1.42048C94.7307 1.08368 94.6011 0.761532 94.3561 0.527238C94.1256 0.278302 93.8086 0.131868 93.4773 0.146512V0.161155H81.8934C81.5476 0.146512 81.2162 0.278302 80.9713 0.541882C80.7264 0.805462 80.5823 1.14226 80.5967 1.50834V19.3732C80.5967 19.7246 80.7264 20.0614 80.9713 20.3104C81.2018 20.574 81.5476 20.7204 81.8934 20.6911H93.4773C93.8086 20.7057 94.1256 20.574 94.3561 20.3397C94.6011 20.1054 94.7451 19.7979 94.7307 19.4611C94.7307 19.1243 94.6011 18.8021 94.3561 18.5678C94.1256 18.3189 93.8086 18.1724 93.4773 18.1871Z" fill="#62626A"/>
<path d="M53.8557 1.36183L53.8125 1.24468C53.5387 0.52716 52.8615 0.0292867 52.0835 0.0146433V0H51.3199C50.5563 0.0732166 49.8935 0.600376 49.663 1.34719L46.5653 9.00565H44.0872C43.4388 9.07886 42.9202 9.63531 42.9202 10.3089V10.426C42.9778 11.0996 43.5253 11.6268 44.188 11.6268H45.4559L42.5023 18.9338L42.4591 19.051C42.4159 19.1828 42.4015 19.2999 42.4015 19.4317C42.3871 19.7978 42.5167 20.1492 42.7473 20.4128C42.9922 20.6764 43.338 20.8082 43.6982 20.7935C43.9575 20.7935 44.2169 20.7057 44.433 20.5446C44.6491 20.3689 44.8364 20.1492 44.9373 19.8856L48.2078 11.6414H50.5563C51.2046 11.5682 51.7233 11.0118 51.7233 10.3382V10.2064C51.6657 9.53281 51.1182 9.00565 50.4554 9.00565H49.2452L51.7521 2.69437L58.5382 19.8856L58.5958 20.0174C58.7111 20.2224 58.8552 20.3982 59.0425 20.5446C59.2586 20.7057 59.5179 20.7935 59.7773 20.7935C60.1375 20.8082 60.4833 20.6764 60.7282 20.4128C60.9731 20.1346 61.0884 19.7831 61.074 19.4317V19.3292C61.074 19.1974 61.0452 19.0656 60.9875 18.9338L53.8557 1.36183Z" fill="#62626A"/>
<path d="M32.562 1.36183L32.5187 1.24468C32.245 0.512516 31.5534 0.0292867 30.7754 0.0146433V0H30.0118C29.2482 0.0732166 28.5854 0.600376 28.3549 1.34719L25.2572 9.00565H22.8079C22.1595 9.07886 21.6409 9.63531 21.6409 10.3089V10.426C21.6985 11.0996 22.246 11.6268 22.9087 11.6268H24.1766L21.223 18.9338L21.1798 19.051C21.1366 19.1828 21.1222 19.2999 21.1222 19.4317C21.1078 19.7978 21.2374 20.1492 21.468 20.4128C21.7129 20.6764 22.0587 20.8082 22.4189 20.7935C22.6782 20.7935 22.9376 20.7057 23.1537 20.5446C23.3698 20.3689 23.5571 20.1492 23.658 19.8856L26.9285 11.6414H29.2914C29.9542 11.5829 30.4728 11.0264 30.4728 10.3382V10.2064C30.4152 9.53281 29.8677 9.00565 29.1905 9.00565H27.9803L30.4584 2.69437L37.2445 19.8856L37.3021 20.0174C37.4174 20.2224 37.5615 20.3982 37.7488 20.5446C37.9649 20.7057 38.2242 20.7935 38.4836 20.7935C38.8438 20.8082 39.1896 20.6764 39.4345 20.4128C39.6506 20.1639 39.7659 19.871 39.7803 19.5488V19.2999C39.7659 19.1828 39.7371 19.051 39.6938 18.9338L32.562 1.36183Z" fill="#62626A"/>
<path d="M76.6332 0.0144376C76.3739 0.0144376 76.1146 0.102298 75.8984 0.263374C75.6823 0.439094 75.5094 0.658744 75.3942 0.922324L68.6081 18.1136L61.822 0.922324C61.7212 0.658744 61.5339 0.439094 61.3177 0.263374C61.1016 0.102298 60.8423 0.0144376 60.5829 0.0144376C60.2372 -0.014849 59.8914 0.131584 59.632 0.395164C59.4015 0.673387 59.2718 1.01018 59.2862 1.37627C59.2862 1.55199 59.3151 1.71306 59.3727 1.87414L66.5046 19.4461C66.7495 20.2369 67.4699 20.7787 68.2911 20.7933H68.9251C69.7463 20.7787 70.4667 20.2369 70.7116 19.4461L77.8435 1.87414C77.9011 1.71306 77.9299 1.55199 77.9299 1.37627C77.9299 1.01018 77.8147 0.658744 77.5697 0.395164C77.3248 0.131584 76.979 -0.000205684 76.6332 0.0144376Z" fill="#62626A"/>
</g>
<defs>
<clipPath id="clip0_2_4272">
<rect width="94.7327" height="20.795" fill="white"/>
</clipPath>
</defs>
</svg>
