<svg width="87" height="29" viewBox="0 0 87 29" fill="none" xmlns="http://www.w3.org/2000/svg">
<g clip-path="url(#clip0_2_4108)">
<path d="M16.1625 0.447754C16.3228 0.447754 16.4785 0.516456 16.5838 0.640119L18.654 3.03552C18.6815 3.03094 18.7044 3.02636 18.7319 3.02178C19.2311 2.93475 19.7441 2.89811 20.2388 2.95765C20.8708 3.03094 21.4067 3.25078 21.8097 3.66299C22.2265 4.08894 22.6433 4.52405 23.0418 4.94542C23.1792 5.09199 23.3074 5.22939 23.4173 5.34847C23.4586 5.38969 23.4906 5.42633 23.5181 5.45839C23.7059 5.65992 23.7471 5.89809 23.6647 6.10419L23.1288 7.44158L23.8387 9.51179C23.8754 9.62172 23.8799 9.73622 23.8525 9.84614C23.8525 9.84614 23.8433 9.88431 23.825 9.96064C23.8036 10.0461 23.7761 10.1515 23.7425 10.2767C23.6555 10.6202 23.5548 11.0003 23.4494 11.4125C23.1471 12.5896 22.8403 13.7621 22.5563 14.8614C21.8555 17.5728 21.3975 19.359 21.2876 19.8033C20.6876 22.2262 20.2067 23.0643 18.6632 24.1727C17.3121 25.1437 14.4861 27.0903 13.9457 27.4338C13.8953 27.4658 13.8358 27.507 13.7625 27.5574C13.735 27.5757 13.5884 27.6765 13.5472 27.704C13.2816 27.8872 13.0938 28.0017 12.8923 28.0979C12.6358 28.2215 12.3884 28.2857 12.1411 28.2857C11.8938 28.2857 11.6465 28.217 11.39 28.0979C11.1885 28.0017 11.0007 27.8872 10.735 27.704C10.6938 27.6765 10.5518 27.5757 10.5198 27.5574C10.4419 27.507 10.3869 27.4658 10.3366 27.4338C9.79152 27.0903 6.97017 25.1437 5.61904 24.1727C4.07554 23.0643 3.59921 22.2262 2.99464 19.8033C2.88471 19.359 2.4267 17.5728 1.73053 14.8797C1.44198 13.7621 1.13511 12.585 0.832825 11.4125C0.727483 11.0003 0.62672 10.6202 0.539698 10.2767C0.506111 10.1484 0.47863 10.0431 0.457256 9.96064C0.435882 9.8782 0.426722 9.84003 0.429776 9.84614C0.402295 9.73622 0.406875 9.61714 0.443516 9.51179L1.15343 7.44158L0.61756 6.10419C0.535118 5.89809 0.576339 5.65992 0.727483 5.49504C0.791604 5.42175 0.828245 5.38511 0.864886 5.34389C0.974809 5.22481 1.10305 5.08741 1.24045 4.94084C1.63434 4.51947 2.05113 4.08436 2.4725 3.65841C2.87555 3.25078 3.41143 3.03094 4.04348 2.95307C4.53813 2.89353 5.05111 2.92559 5.55034 3.0172C5.57782 3.02178 5.6053 3.02636 5.6282 3.03094L7.69383 0.640119C7.79917 0.516456 7.9549 0.447754 8.1152 0.447754H16.1625ZM15.906 1.59278H8.36711L6.24652 4.04772C6.10453 4.2126 5.88011 4.28131 5.674 4.22176C5.66484 4.22176 5.63736 4.2126 5.59614 4.20344C5.52286 4.18512 5.44042 4.1668 5.34881 4.15306C4.95034 4.07978 4.53813 4.05688 4.16715 4.0981C3.76868 4.1439 3.46181 4.27215 3.26028 4.47367C2.84807 4.89504 2.43586 5.32099 2.04655 5.73778C1.95495 5.83396 1.86793 5.93015 1.78549 6.01259L2.26182 7.208C2.3122 7.33624 2.31678 7.4828 2.27098 7.61105L1.54732 9.72248C1.56564 9.80034 1.5748 9.82782 1.61602 9.98354C1.70305 10.3271 1.80381 10.7072 1.90915 11.1194C2.21144 12.2965 2.51831 13.469 2.80227 14.5682C3.50303 17.2888 3.96562 19.0705 4.07554 19.5193C4.616 21.6995 4.96408 22.304 6.25568 23.2338C7.59307 24.191 10.4007 26.1284 10.9228 26.4628C10.9869 26.504 11.0556 26.5498 11.1427 26.6093C11.1747 26.6322 11.3167 26.733 11.3579 26.7559C11.5778 26.9071 11.7197 26.9987 11.8572 27.0582C11.9762 27.1132 12.0724 27.1406 12.1365 27.1406C12.2007 27.1406 12.2923 27.1132 12.4159 27.0582C12.5487 26.9941 12.6953 26.9025 12.9152 26.7559C12.9518 26.7284 13.0984 26.6277 13.1304 26.6093C13.2174 26.5498 13.2861 26.504 13.3503 26.4628C13.8724 26.1284 16.68 24.1956 18.0174 23.2338C19.3136 22.304 19.6571 21.6995 20.1975 19.5193C20.3075 19.0705 20.77 17.2842 21.4662 14.5866C21.7548 13.469 22.0616 12.2919 22.3639 11.1194C22.4693 10.7072 22.57 10.3271 22.657 9.98354C22.6983 9.82782 22.7029 9.80034 22.7258 9.72248L22.0021 7.61105C21.9563 7.47822 21.9609 7.33624 22.0113 7.208L22.4876 6.01259C22.4097 5.92557 22.3227 5.83396 22.2265 5.73778C21.8372 5.32099 21.425 4.89504 21.0128 4.47367C20.8158 4.27215 20.509 4.1439 20.1059 4.0981C19.7349 4.0523 19.3273 4.07978 18.9243 4.15306C18.8327 4.17138 18.7502 4.18512 18.6769 4.20344C18.6357 4.2126 18.6082 4.22176 18.5991 4.22176C18.393 4.28131 18.1685 4.2126 18.0266 4.04772L15.906 1.59278ZM12.1365 17.6369C12.2877 17.6369 13.2724 17.9896 14.0602 18.4064C14.848 18.8232 15.4205 19.1163 15.5991 19.2308C15.7823 19.3453 15.6724 19.5651 15.5029 19.6842C15.338 19.8033 13.1029 21.5666 12.8877 21.759C12.6724 21.956 12.3518 22.2766 12.1365 22.2766C11.9213 22.2766 11.6007 21.956 11.3854 21.759C11.1701 21.5621 8.93504 19.8033 8.77016 19.6842C8.60527 19.5651 8.49077 19.3453 8.67397 19.2308C8.85718 19.1163 9.42511 18.8232 10.2129 18.4064C11.0007 17.9896 11.9808 17.6369 12.1365 17.6369ZM12.1365 5.09199C12.1778 5.09199 12.6129 5.10573 13.2495 5.32099C13.9182 5.55 14.6464 5.83396 14.9808 5.83396C15.3151 5.83396 17.8021 5.34847 17.8021 5.34847C17.8021 5.34847 20.7471 8.97592 20.7471 9.75454C20.7471 10.5332 20.3762 10.7347 20.0052 11.1377C19.6342 11.5408 18.0037 13.3041 17.7976 13.5285C17.5869 13.753 17.1518 14.0965 17.4082 14.7148C17.6647 15.3331 18.0403 16.1163 17.6235 16.9132C17.2021 17.7102 16.4831 18.2415 16.0251 18.1545C15.5625 18.0674 14.4816 17.4903 14.0831 17.2247C13.6846 16.9636 12.4251 15.901 12.4251 15.4934C12.4251 15.0858 13.7304 14.3575 13.9686 14.1927C14.2113 14.0278 15.3106 13.3866 15.3335 13.1347C15.3564 12.8828 15.3472 12.8095 15.022 12.1866C14.6968 11.5637 14.1151 10.7347 14.2113 10.1851C14.3075 9.63546 15.251 9.34691 15.9243 9.08584C16.5976 8.82936 17.8892 8.33928 18.054 8.26142C18.2143 8.18356 18.1731 8.11486 17.6831 8.06448C17.193 8.01868 15.8052 7.83089 15.1777 8.00494C14.5503 8.18356 13.4785 8.45379 13.3961 8.59577C13.3136 8.73775 13.2312 8.74233 13.3228 9.24157C13.4098 9.73622 13.8724 12.1133 13.9136 12.5347C13.9594 12.956 14.0464 13.2354 13.5976 13.3408C13.1487 13.4461 12.3976 13.6247 12.1411 13.6247C11.8846 13.6247 11.1289 13.4461 10.6846 13.3408C10.2358 13.2354 10.3228 12.956 10.3686 12.5347C10.4144 12.1133 10.8724 9.73622 10.9594 9.24157C11.0465 8.74691 10.9732 8.74233 10.8862 8.59577C10.7991 8.45379 9.7274 8.18356 9.09992 8.00494C8.47245 7.82631 7.08468 8.0141 6.5946 8.06448C6.10453 8.11486 6.06331 8.18356 6.22361 8.26142C6.38392 8.33928 7.68009 8.82478 8.35337 9.08584C9.02664 9.34233 9.96556 9.63088 10.0663 10.1851C10.1625 10.7347 9.58084 11.5637 9.25565 12.1866C8.93046 12.8095 8.9213 12.8828 8.9442 13.1347C8.9671 13.3866 10.0663 14.0278 10.3045 14.1927C10.5472 14.3575 11.848 15.0858 11.848 15.4934C11.848 15.901 10.5885 16.9591 10.19 17.2247C9.79152 17.4858 8.71061 18.0629 8.24802 18.1545C7.78543 18.2415 7.06636 17.7102 6.64957 16.9132C6.2282 16.1163 6.60834 15.3331 6.86483 14.7148C7.12132 14.0965 6.68621 13.753 6.47552 13.5285C6.26484 13.3041 4.6389 11.5408 4.26791 11.1377C3.89692 10.7347 3.52593 10.5286 3.52593 9.75454C3.52593 8.9805 6.47094 5.34847 6.47094 5.34847C6.47094 5.34847 8.95794 5.83396 9.29229 5.83396C9.62664 5.83396 10.3549 5.55 11.0236 5.32099C11.6923 5.09199 12.1411 5.09199 12.1411 5.09199H12.1365Z" fill="#62626A"/>
<path d="M29.3867 15.5072V6.32861H30.2524C30.9577 6.32861 31.5256 6.91029 31.5256 7.62478V11.7057C32.9088 10.4507 34.0859 9.9469 35.6569 9.91484C38.666 9.85072 41.2767 12.1225 41.524 15.1728C41.8217 18.814 39.2156 21.5575 35.8172 21.5575C32.089 21.5575 29.3867 19.2079 29.3867 15.5072ZM31.489 16.2262C31.6997 18.1224 33.4813 19.6888 35.3592 19.7209C37.805 19.7575 39.4721 18.1361 39.4721 15.7407C39.4721 13.3453 37.8416 11.7606 35.4645 11.7606C32.9226 11.756 31.2004 13.6339 31.489 16.2308V16.2262Z" fill="#62626A"/>
<path d="M45.0924 10.144V11.7791C46.4389 10.2631 47.2359 9.85547 48.8068 9.85547C49.2649 9.85547 49.7229 9.89211 50.1763 9.96539V12.1364C49.6954 12.0035 49.1962 11.9348 48.6969 11.9348C47.5565 11.9348 46.5992 12.315 45.8985 13.0295C45.2847 13.657 45.1015 14.147 45.1015 15.1363V21.1821H42.8848V10.144H45.097H45.0924Z" fill="#62626A"/>
<path d="M50.6969 13.7944C50.8114 12.718 51.0175 12.1364 51.4709 11.5776C52.3824 10.4417 54.0266 9.85547 56.3488 9.85547C58.1945 9.85547 59.5411 10.1486 60.4754 10.7715C61.2495 11.2845 61.5701 12.0493 61.5701 13.3913V18.292C61.5701 19.3684 61.8449 19.7485 62.596 19.7256C62.7655 19.721 62.9304 19.7027 63.0998 19.6798V21.1592C62.7243 21.2874 62.3304 21.3515 61.9365 21.3378C60.5487 21.3378 59.9075 20.9119 59.477 19.6798C58.1075 20.9577 56.6968 21.4935 54.6679 21.4935C51.9564 21.4935 50.2893 20.2386 50.2893 18.2004C50.2755 17.0371 50.9488 15.9791 51.9977 15.5165C52.8175 15.1592 53.3213 15.0447 55.6663 14.7974C57.6724 14.5959 58.0159 14.5501 58.5838 14.3715C59.1976 14.1699 59.4724 13.8356 59.4724 13.2768C59.4724 12.0906 58.4922 11.5547 56.4404 11.5547C54.4984 11.5547 53.4999 11.944 53.1015 12.9425C52.9045 13.4509 52.419 13.7898 51.8786 13.7898H50.6923L50.6969 13.7944ZM59.4632 15.6768C58.0571 16.0936 56.6144 16.3638 55.1533 16.4829C53.1702 16.6844 52.5564 17.0646 52.5564 18.0722C52.5564 19.1897 53.4679 19.7806 55.2679 19.7806C56.7472 19.7806 57.8648 19.4004 58.6663 18.663C59.3029 18.0584 59.4632 17.6325 59.4632 16.5791V15.6814V15.6768Z" fill="#62626A"/>
<path d="M68.4499 21.1774H67.8774C67.3736 21.1774 66.9155 20.8889 66.6957 20.4309L61.9141 10.144H63.2423C64.0163 10.1394 64.7217 10.5974 65.0377 11.3119L68.2255 18.7088L71.5231 11.2844C71.8437 10.5791 72.5445 10.1302 73.3094 10.1348H74.5185L69.627 20.4446C69.4071 20.8981 68.9491 21.182 68.4499 21.182V21.1774Z" fill="#62626A"/>
<path d="M76.0211 16.2994C76.2501 18.4291 77.8852 19.7482 80.3264 19.7482C81.7142 19.7482 82.7493 19.3314 83.3951 18.4933C83.7707 18.0123 84.3386 17.733 84.9432 17.733H86.2302C85.1126 20.2383 83.1065 21.4703 80.1203 21.4703C76.3875 21.4703 73.873 19.1665 73.873 15.7177C73.873 12.2689 76.4471 9.85059 80.1661 9.85059C82.8546 9.85059 85.0165 11.0826 85.8867 13.1437C86.276 14.0918 86.4317 14.9345 86.4317 16.2994H76.0165H76.0211ZM84.1829 14.591C83.6791 12.6445 82.1997 11.5452 80.1478 11.5452C78.0959 11.5452 76.6165 12.6445 76.0898 14.591H84.1829Z" fill="#62626A"/>
<path d="M16.1566 0.447754C16.3169 0.447754 16.4726 0.516456 16.578 0.640119L18.6482 3.03552C18.6757 3.03094 18.6986 3.02636 18.726 3.02178C19.2253 2.93475 19.7382 2.89811 20.2329 2.95765C20.8649 3.03094 21.4008 3.25078 21.8039 3.66299C22.2207 4.08894 22.6375 4.52405 23.0359 4.94542C23.1733 5.09199 23.3016 5.22939 23.4115 5.34847C23.4527 5.38969 23.4848 5.42633 23.5123 5.45839C23.7 5.65992 23.7413 5.89809 23.6588 6.10419L23.1229 7.44158L23.8329 9.51179C23.8695 9.62172 23.8741 9.73622 23.8466 9.84614C23.8466 9.84614 23.8374 9.88431 23.8191 9.96064C23.7977 10.0461 23.7703 10.1515 23.7367 10.2767C23.6497 10.6202 23.5489 11.0003 23.4436 11.4125C23.1413 12.5896 22.8344 13.7621 22.5504 14.8614C21.8497 17.5728 21.3917 19.359 21.2817 19.8033C20.6817 22.2262 20.2008 23.0643 18.6573 24.1727C17.3062 25.1437 14.4803 27.0903 13.9398 27.4338C13.8894 27.4658 13.8299 27.507 13.7566 27.5574C13.7291 27.5757 13.5826 27.6765 13.5414 27.704C13.2757 27.8872 13.0879 28.0017 12.8864 28.0979C12.6299 28.2215 12.3826 28.2857 12.1353 28.2857C11.8879 28.2857 11.6406 28.217 11.3841 28.0979C11.1826 28.0017 10.9948 27.8872 10.7292 27.704C10.6879 27.6765 10.546 27.5757 10.5139 27.5574C10.436 27.507 10.3811 27.4658 10.3307 27.4338C9.78566 27.0903 6.96431 25.1437 5.61318 24.1727C4.06968 23.0643 3.59335 22.2262 2.98878 19.8033C2.87885 19.359 2.42084 17.5728 1.72467 14.8797C1.43612 13.7621 1.12925 12.585 0.826966 11.4125C0.721623 11.0003 0.620861 10.6202 0.533839 10.2767C0.500251 10.1484 0.472771 10.0431 0.451397 9.96064C0.430023 9.8782 0.420863 9.84003 0.423916 9.84614C0.396435 9.73622 0.401016 9.61714 0.437656 9.51179L1.14757 7.44158L0.611701 6.10419C0.529259 5.89809 0.57048 5.65992 0.721623 5.49504C0.785745 5.42175 0.822386 5.38511 0.859027 5.34389C0.968949 5.22481 1.09719 5.08741 1.2346 4.94084C1.62849 4.51947 2.04528 4.08436 2.46665 3.65841C2.86969 3.25078 3.40557 3.03094 4.03762 2.95307C4.53227 2.89353 5.04525 2.92559 5.54448 3.0172C5.57196 3.02178 5.59944 3.02636 5.62234 3.03094L7.68797 0.640119C7.79331 0.516456 7.94904 0.447754 8.10934 0.447754H16.1566ZM15.9001 1.59278H8.36125L6.24066 4.04772C6.09867 4.2126 5.87425 4.28131 5.66814 4.22176C5.65898 4.22176 5.6315 4.2126 5.59028 4.20344C5.517 4.18512 5.43456 4.1668 5.34295 4.15306C4.94449 4.07978 4.53228 4.05688 4.16129 4.0981C3.76282 4.1439 3.45595 4.27215 3.25442 4.47367C2.84221 4.89504 2.43 5.32099 2.04069 5.73778C1.94909 5.83396 1.86207 5.93015 1.77963 6.01259L2.25596 7.208C2.30634 7.33624 2.31092 7.4828 2.26512 7.61105L1.54146 9.72248C1.55978 9.80034 1.56894 9.82782 1.61016 9.98354C1.69719 10.3271 1.79795 10.7072 1.90329 11.1194C2.20558 12.2965 2.51245 13.469 2.79641 14.5682C3.49717 17.2888 3.95976 19.0705 4.06968 19.5193C4.61014 21.6995 4.95823 22.304 6.24982 23.2338C7.58721 24.191 10.3948 26.1284 10.9169 26.4628C10.9811 26.504 11.0498 26.5498 11.1368 26.6093C11.1689 26.6322 11.3108 26.733 11.3521 26.7559C11.5719 26.9071 11.7139 26.9987 11.8513 27.0582C11.9704 27.1132 12.0666 27.1406 12.1307 27.1406C12.1948 27.1406 12.2864 27.1132 12.4101 27.0582C12.5429 26.9941 12.6895 26.9025 12.9093 26.7559C12.9459 26.7284 13.0925 26.6277 13.1246 26.6093C13.2116 26.5498 13.2803 26.504 13.3444 26.4628C13.8665 26.1284 16.6741 24.1956 18.0115 23.2338C19.3077 22.304 19.6512 21.6995 20.1917 19.5193C20.3016 19.0705 20.7642 17.2842 21.4604 14.5866C21.7489 13.469 22.0558 12.2919 22.3581 11.1194C22.4634 10.7072 22.5642 10.3271 22.6512 9.98354C22.6924 9.82782 22.697 9.80034 22.7199 9.72248L21.9962 7.61105C21.9504 7.47822 21.955 7.33624 22.0054 7.208L22.4817 6.01259C22.4039 5.92557 22.3168 5.83396 22.2207 5.73778C21.8314 5.32099 21.4191 4.89504 21.0069 4.47367C20.81 4.27215 20.5031 4.1439 20.1001 4.0981C19.7291 4.0523 19.3214 4.07978 18.9184 4.15306C18.8268 4.17138 18.7444 4.18512 18.6711 4.20344C18.6299 4.2126 18.6024 4.22176 18.5932 4.22176C18.3871 4.28131 18.1627 4.2126 18.0207 4.04772L15.9001 1.59278ZM12.1307 17.6369C12.2818 17.6369 13.2665 17.9896 14.0543 18.4064C14.8421 18.8232 15.4146 19.1163 15.5932 19.2308C15.7764 19.3453 15.6665 19.5651 15.4971 19.6842C15.3322 19.8033 13.0971 21.5666 12.8818 21.759C12.6665 21.956 12.3459 22.2766 12.1307 22.2766C11.9154 22.2766 11.5948 21.956 11.3795 21.759C11.1643 21.5621 8.92918 19.8033 8.7643 19.6842C8.59941 19.5651 8.48491 19.3453 8.66811 19.2308C8.85132 19.1163 9.41925 18.8232 10.207 18.4064C10.9948 17.9896 11.975 17.6369 12.1307 17.6369ZM12.1307 5.09199C12.1719 5.09199 12.607 5.10573 13.2436 5.32099C13.9123 5.55 14.6406 5.83396 14.9749 5.83396C15.3093 5.83396 17.7963 5.34847 17.7963 5.34847C17.7963 5.34847 20.7413 8.97592 20.7413 9.75454C20.7413 10.5332 20.3703 10.7347 19.9993 11.1377C19.6283 11.5408 17.9978 13.3041 17.7917 13.5285C17.581 13.753 17.1459 14.0965 17.4024 14.7148C17.6589 15.3331 18.0344 16.1163 17.6176 16.9132C17.1963 17.7102 16.4772 18.2415 16.0192 18.1545C15.5566 18.0674 14.4757 17.4903 14.0772 17.2247C13.6788 16.9636 12.4192 15.901 12.4192 15.4934C12.4192 15.0858 13.7246 14.3575 13.9627 14.1927C14.2055 14.0278 15.3047 13.3866 15.3276 13.1347C15.3505 12.8828 15.3413 12.8095 15.0161 12.1866C14.691 11.5637 14.1093 10.7347 14.2055 10.1851C14.3016 9.63546 15.2452 9.34691 15.9184 9.08584C16.5917 8.82936 17.8833 8.33928 18.0482 8.26142C18.2085 8.18356 18.1673 8.11486 17.6772 8.06448C17.1871 8.01868 15.7993 7.83089 15.1719 8.00494C14.5444 8.18356 13.4726 8.45379 13.3902 8.59577C13.3078 8.73775 13.2253 8.74233 13.3169 9.24157C13.4039 9.73622 13.8665 12.1133 13.9078 12.5347C13.9536 12.956 14.0406 13.2354 13.5917 13.3408C13.1429 13.4461 12.3917 13.6247 12.1353 13.6247C11.8788 13.6247 11.1231 13.4461 10.6788 13.3408C10.2299 13.2354 10.317 12.956 10.3628 12.5347C10.4086 12.1133 10.8666 9.73622 10.9536 9.24157C11.0406 8.74691 10.9673 8.74233 10.8803 8.59577C10.7933 8.45379 9.72154 8.18356 9.09406 8.00494C8.46659 7.82631 7.07882 8.0141 6.58874 8.06448C6.09867 8.11486 6.05745 8.18356 6.21776 8.26142C6.37806 8.33928 7.67423 8.82478 8.34751 9.08584C9.02078 9.34233 9.95971 9.63088 10.0605 10.1851C10.1566 10.7347 9.57498 11.5637 9.24979 12.1866C8.9246 12.8095 8.91544 12.8828 8.93834 13.1347C8.96124 13.3866 10.0605 14.0278 10.2986 14.1927C10.5414 14.3575 11.8421 15.0858 11.8421 15.4934C11.8421 15.901 10.5826 16.9591 10.1841 17.2247C9.78566 17.4858 8.70475 18.0629 8.24216 18.1545C7.77957 18.2415 7.0605 17.7102 6.64371 16.9132C6.22234 16.1163 6.60248 15.3331 6.85897 14.7148C7.11546 14.0965 6.68035 13.753 6.46966 13.5285C6.25898 13.3041 4.63304 11.5408 4.26205 11.1377C3.89106 10.7347 3.52007 10.5286 3.52007 9.75454C3.52007 8.9805 6.46508 5.34847 6.46508 5.34847C6.46508 5.34847 8.95208 5.83396 9.28643 5.83396C9.62078 5.83396 10.349 5.55 11.0177 5.32099C11.6864 5.09199 12.1353 5.09199 12.1353 5.09199H12.1307Z" fill="#62626A"/>
</g>
<defs>
<clipPath id="clip0_2_4108">
<rect width="86.0328" height="27.8471" fill="white" transform="translate(0.402344 0.447754)"/>
</clipPath>
</defs>
</svg>
