<svg width="79" height="25" viewBox="0 0 79 25" fill="none" xmlns="http://www.w3.org/2000/svg">
<g clip-path="url(#clip0_2_4209)">
<path d="M28.9531 17.9758C28.9531 20.4803 30.9826 22.5082 33.4892 22.5082H44.5522V17.9758H34.1372V14.7301H43.8684V10.7047H34.1372V7.56641H44.5522V3.03125H33.4864C30.9826 3.03125 28.9531 5.06188 28.9531 7.56366V17.9758Z" fill="#62626A"/>
<path d="M61.9479 16.6037C61.9479 13.3442 59.3035 10.7047 56.0414 10.7047H51.3536V7.56641H61.0048V3.03125H52.0154C48.7837 3.03125 46.1641 5.65151 46.1641 8.88067C46.1641 12.1098 48.7837 14.7273 52.0154 14.7301H56.7638V17.9758H47.1126V22.5082H56.0524C59.3118 22.5027 61.9507 19.8604 61.9479 16.6037Z" fill="#62626A"/>
<path d="M68.3388 22.5082H78.1637V17.9758H68.9868V3.03125H63.8027V17.9758C63.8027 20.4803 65.8322 22.5082 68.3388 22.5082Z" fill="#62626A"/>
<path d="M23.6474 10.9079C22.5941 4.42481 16.4807 0.0219039 9.99235 1.07441C3.50675 2.12692 -0.899715 8.23534 0.153644 14.7185C1.207 21.2016 7.32035 25.6045 13.8087 24.552C20.2943 23.4995 24.7008 17.3911 23.6474 10.9079ZM3.29442 17.4324L12.35 3.06647C14.4512 3.16015 16.4669 3.93162 18.0911 5.26792L4.34502 19.0002C3.94519 18.5125 3.59499 17.9862 3.29442 17.4324ZM21.4056 15.0546C20.1647 20.3062 14.8979 23.5601 9.64215 22.3202L21.4442 14.881C21.4304 14.9389 21.4194 14.9968 21.4056 15.0546ZM7.3231 21.4358C6.76333 21.1382 6.23666 20.7883 5.74582 20.3888L19.4809 6.66484C20.8127 8.29596 21.5765 10.3156 21.662 12.4178L7.3231 21.4358Z" fill="#62626A"/>
</g>
<defs>
<clipPath id="clip0_2_4209">
<rect width="78.1637" height="23.7889" fill="white" transform="translate(0 0.92041)"/>
</clipPath>
</defs>
</svg>
