<svg width="119" height="37" viewBox="0 0 119 37" fill="none" xmlns="http://www.w3.org/2000/svg">
<g clip-path="url(#clip0_2_4220)">
<path d="M11.4293 26.692V0.675781L0 19.8697L11.4293 26.692Z" fill="#62626A"/>
<path d="M11.4297 0.675781L22.859 19.8697L11.4297 26.6411V0.675781Z" fill="#62626A"/>
<path d="M0 21.3462L11.4293 28.1175V36.8745" fill="#62626A"/>
<path d="M22.859 21.3457L11.4297 28.117V36.874" fill="#62626A"/>
<path d="M11.4293 13.0981L0 19.8695L11.4293 26.6408V13.0981Z" fill="#62626A"/>
<path d="M11.4297 13.0986L22.859 19.87L11.4297 26.6413V13.0986Z" fill="#62626A"/>
<path d="M30.5977 14.0198C30.5977 13.358 30.7514 12.6961 31.0589 12.0852C31.3664 11.5251 31.7765 11.0669 32.3402 10.7614C32.904 10.456 33.5703 10.3032 34.1853 10.3032C34.8004 10.3032 35.4666 10.456 36.0304 10.7614C36.5429 11.0669 37.0042 11.5251 37.2605 12.0852C37.568 12.6961 37.7217 13.358 37.7217 14.0198V14.5799H32.494C32.494 14.9872 32.699 15.3945 33.0065 15.649C33.3653 15.9545 33.7753 16.0563 34.2366 16.0563C34.5953 16.0563 34.9029 16.0054 35.2104 15.8018C35.5691 15.5981 35.9279 15.3435 36.1842 14.9872L37.363 16.2091C36.953 16.6673 36.4917 17.0237 35.9792 17.2782C35.4154 17.5328 34.8516 17.6346 34.2366 17.6346C33.5703 17.6346 32.904 17.4819 32.3402 17.1764C31.7765 16.8709 31.3664 16.4127 31.0589 15.9036C30.7002 15.3945 30.5977 14.7326 30.5977 14.0198ZM35.7742 13.2561C35.7229 12.8998 35.5691 12.5434 35.2616 12.2888C34.5953 11.7797 33.7241 11.7797 33.0578 12.2888C32.7503 12.5434 32.5965 12.8998 32.494 13.2561H35.7742Z" fill="#62626A"/>
<path d="M43.6155 12.2376V15.0377C43.6155 15.2414 43.6667 15.3941 43.7692 15.5469C43.923 15.6487 44.128 15.6996 44.333 15.6996H45.9218V17.5324H44.128C43.4617 17.5834 42.8467 17.3797 42.3342 16.9724C41.8729 16.5651 41.6679 16.0051 41.7191 15.3941V12.1866H39.9766V10.5065H41.7191V8.72461H43.6155V10.5065H46.3831V12.1866L43.6155 12.2376Z" fill="#62626A"/>
<path d="M48.9458 7.91016H50.8421V11.1685H50.8934C51.7647 10.2521 53.1997 10.0485 54.276 10.7103C54.6861 10.9649 54.9936 11.3213 55.1986 11.7286C55.4036 12.2377 55.5574 12.7468 55.5061 13.256V17.4817H53.6098V13.5105C53.6098 13.1032 53.5073 12.7468 53.251 12.4414C52.9947 12.1868 52.636 12.0341 52.2772 12.0341C51.8672 12.0341 51.5084 12.1359 51.2009 12.4414C50.9446 12.7468 50.7909 13.1032 50.7909 13.5105V17.4817H48.8945L48.9458 7.91016Z" fill="#62626A"/>
<path d="M57.6074 14.0198C57.6074 13.358 57.7612 12.6961 58.0687 12.0852C58.3762 11.5251 58.7862 11.0669 59.35 10.7614C59.9138 10.456 60.5801 10.3032 61.1951 10.3032C61.8101 10.3032 62.4764 10.456 63.0402 10.7614C63.5527 11.0669 64.014 11.5251 64.2702 12.0852C64.5778 12.6961 64.7315 13.358 64.7315 14.0198V14.5799H59.5038C59.5038 14.9872 59.7088 15.3945 60.0163 15.649C60.3751 15.9545 60.7851 16.0563 61.2463 16.0563C61.6051 16.0563 61.9126 16.0054 62.2201 15.8018C62.5789 15.5981 62.9377 15.3435 63.1939 14.9872L64.3727 16.2091C63.9627 16.6673 63.5015 17.0237 62.9889 17.2782C62.4252 17.5328 61.8614 17.6855 61.2463 17.6346C60.5801 17.6346 59.9138 17.4819 59.35 17.1764C58.7862 16.8709 58.3762 16.4127 58.0687 15.9036C57.7612 15.3945 57.6074 14.7326 57.6074 14.0198ZM62.7839 13.2561C62.7327 12.8998 62.5789 12.5434 62.2714 12.2888C61.6051 11.7797 60.7338 11.7797 60.0675 12.2888C59.76 12.5434 59.6063 12.8998 59.5038 13.2561H62.7839Z" fill="#62626A"/>
<path d="M67.4492 10.5581H69.2431V11.22H69.2943C69.8068 10.66 70.5756 10.3545 71.3444 10.3545C71.9082 10.3545 72.472 10.5072 72.9332 10.8636C73.3945 11.22 73.702 11.7291 73.8558 12.3401L72.0619 12.9001C71.9082 12.3401 71.3957 11.9837 70.7806 12.0346C70.3706 11.9837 69.9606 12.1364 69.7043 12.4419C69.4481 12.7474 69.2943 13.1547 69.3456 13.562V17.4822H67.4492V10.5581Z" fill="#62626A"/>
<path d="M75.6483 14.0198C75.6483 13.358 75.802 12.6961 76.1096 12.0852C76.4171 11.5251 76.8271 11.0669 77.3909 10.7614C77.9546 10.456 78.6209 10.3032 79.236 10.3032C79.851 10.3032 80.5173 10.456 81.081 10.7614C81.5936 11.0669 82.0548 11.5251 82.3111 12.0852C82.6186 12.6961 82.7724 13.358 82.7724 14.0198V14.5799H77.5446C77.5446 14.9872 77.7496 15.3945 78.0571 15.649C78.4159 15.9545 78.8259 16.0563 79.2872 16.0563C79.646 16.0563 79.9535 16.0054 80.261 15.8018C80.6198 15.5981 80.9785 15.3435 81.2348 14.9872L82.4136 16.2091C82.0036 16.6673 81.5423 17.0237 81.0298 17.2782C80.466 17.5328 79.9022 17.6855 79.2872 17.6346C78.6209 17.6346 77.9546 17.4819 77.3909 17.1764C76.8271 16.8709 76.4171 16.4127 76.1096 15.9036C75.7508 15.3945 75.597 14.7326 75.6483 14.0198ZM80.8248 13.2561C80.7735 12.8998 80.6198 12.5434 80.3123 12.2888C79.646 11.7797 78.7747 11.7797 78.1084 12.2888C77.8009 12.5434 77.6471 12.8998 77.5446 13.2561H80.8248Z" fill="#62626A"/>
<path d="M85.028 15.1397V10.5576H86.9243V14.7324C86.8218 15.3434 87.2318 15.9034 87.8468 16.0052H88.1544C88.5131 16.0052 88.8206 15.9034 89.0769 15.6489C89.3332 15.3943 89.4357 15.0379 89.4357 14.7324V10.5576H91.332V17.5326H89.5382V16.9217H89.4869C89.2819 17.1762 88.9744 17.3799 88.6669 17.5326C87.6418 17.9399 86.5143 17.7872 85.6942 17.0744C85.233 16.5144 84.9767 15.8525 85.028 15.1397Z" fill="#62626A"/>
<path d="M93.4336 10.5577H95.1249V11.1686H95.1762C95.3299 10.965 95.5349 10.7613 95.74 10.6086C95.9962 10.4558 96.2525 10.4049 96.5087 10.4049C97.0725 10.4049 97.585 10.7104 97.8413 11.1686H97.8926C98.2001 10.6595 98.7638 10.354 99.3276 10.4049C99.7889 10.4049 100.25 10.6086 100.558 10.965C100.865 11.3723 101.07 11.8814 101.019 12.3905V17.5327H99.2764V12.696C99.2764 12.5432 99.2251 12.3396 99.1226 12.2378C99.0201 12.1359 98.8151 12.085 98.6613 12.085C98.5076 12.085 98.3538 12.1359 98.2001 12.2887C98.0976 12.4414 98.0463 12.5942 98.0463 12.7469V17.5327H96.4062V12.696C96.4062 12.5432 96.355 12.3905 96.2525 12.2378C96.15 12.1359 95.9962 12.085 95.8425 12.085C95.6887 12.085 95.4837 12.1359 95.3812 12.2378C95.2787 12.3905 95.1762 12.5432 95.2274 12.696V17.4817H93.4848L93.4336 10.5577Z" fill="#62626A"/>
<path d="M32.6986 26.9007H30.8535V25.2206H32.6986V24.2023C32.6474 23.6423 32.9036 23.1331 33.3136 22.7258C33.7749 22.3695 34.3899 22.1658 35.005 22.2167H37.0551V23.8968H35.2612C35.1075 23.8968 34.9537 23.9477 34.8512 24.0496C34.7487 24.1514 34.6974 24.3041 34.6974 24.4569V25.2715H37.4651V26.9516H34.6462V31.4828H32.6986V26.9007Z" fill="#62626A"/>
<path d="M39.619 27.9187C39.619 27.2569 39.7727 26.595 40.0803 25.9841C40.3878 25.424 40.7978 24.9658 41.3616 24.6604C42.5404 24.0494 43.9242 24.0494 45.103 24.6604C45.6155 24.9658 46.0768 25.424 46.3843 25.9841C46.9993 27.206 46.9993 28.6315 46.3843 29.8025C46.0768 30.3625 45.6668 30.8208 45.103 31.1262C43.9242 31.7372 42.5404 31.7372 41.3616 31.1262C40.7978 30.8208 40.3878 30.3625 40.0803 29.8025C39.7215 29.2425 39.5677 28.5806 39.619 27.9187ZM44.8467 27.9187C44.898 27.4096 44.7442 26.9005 44.3855 26.4932C44.0779 26.1368 43.6167 25.9332 43.1554 25.9841C42.6941 25.9841 42.2329 26.1368 41.9253 26.4932C41.6178 26.9005 41.4641 27.4096 41.4641 27.9187C41.4128 28.4279 41.5666 28.937 41.9253 29.3443C42.5916 30.0062 43.6679 30.0571 44.3855 29.3952L44.4367 29.3443C44.7442 28.937 44.898 28.4279 44.8467 27.9187Z" fill="#62626A"/>
<path d="M48.9972 29.0391V24.457H50.8935V28.6318C50.791 29.2428 51.2523 29.8028 51.8673 29.9047H52.1748C52.5336 29.9047 52.8411 29.8028 53.0974 29.5483C53.3536 29.2937 53.4562 28.9373 53.4562 28.6318V24.457H55.3525V31.432H53.5587V30.8211H53.5074C53.3024 31.0756 52.9949 31.2793 52.6874 31.432C51.5086 32.0939 49.971 31.6357 49.3047 30.4647C49.0484 30.0065 48.9459 29.4974 48.9972 29.0391Z" fill="#62626A"/>
<path d="M57.9668 24.4566H59.8631V25.1184H59.9144C60.1707 24.8639 60.4782 24.6602 60.8369 24.4566C61.1957 24.3038 61.5545 24.2529 61.9645 24.2529C62.4258 24.2529 62.8358 24.3548 63.2458 24.5584C63.6558 24.813 64.0146 25.1184 64.2196 25.5257C64.4759 26.0349 64.6296 26.5949 64.5784 27.1549V31.3807H62.682V27.4095C62.682 27.0022 62.5795 26.6458 62.3233 26.3403C62.067 26.0349 61.7082 25.933 61.3495 25.933C60.9394 25.933 60.5807 26.0349 60.2732 26.3403C60.0169 26.6458 59.8631 27.0022 59.8631 27.4095V31.3807H57.9668V24.4566Z" fill="#62626A"/>
<path d="M66.4746 27.9191C66.4746 27.2572 66.6284 26.5953 66.8846 26.0353C67.1409 25.4753 67.5509 25.017 68.0122 24.7116C68.5247 24.4061 69.0885 24.2534 69.7035 24.2534C70.3698 24.2025 71.0361 24.457 71.5486 24.8643H71.5999V21.8096H73.4962V31.432H71.7536V30.8211H71.7024C71.1898 31.3811 70.421 31.6357 69.6523 31.6357C69.0885 31.6357 68.4735 31.4829 68.0122 31.1774C67.4997 30.872 67.1409 30.4138 66.8846 29.9046C66.6284 29.2428 66.4746 28.5809 66.4746 27.9191ZM71.5999 28.3773V27.4608C71.5999 27.2063 71.5486 26.9517 71.3948 26.7481C71.2411 26.4935 71.0361 26.3408 70.7798 26.188C70.5236 26.0353 70.216 25.9844 69.9598 25.9844C69.4985 25.9844 69.0885 26.188 68.781 26.4935C68.2172 27.359 68.2172 28.4791 68.781 29.3446C69.0372 29.701 69.4985 29.9046 69.9085 29.9046C70.3698 29.9046 70.7798 29.7519 71.0873 29.4464C71.4461 29.1919 71.5999 28.7846 71.5999 28.3773Z" fill="#62626A"/>
<path d="M76.0592 29.5476C76.0079 28.9876 76.2642 28.4275 76.7255 28.0202C77.3918 27.562 78.1606 27.3075 78.9806 27.2056C79.3906 27.1547 79.7494 27.0529 80.1082 26.9002C80.2619 26.7983 80.4157 26.6456 80.4157 26.442C80.4157 26.2383 80.3132 26.0347 80.1082 25.9328C79.8519 25.7801 79.5956 25.7292 79.2881 25.7292C78.9293 25.7292 78.5706 25.831 78.3143 26.0856C78.0581 26.3401 77.853 26.6456 77.8018 27.002L76.0592 26.5947C76.1617 26.1365 76.3667 25.6783 76.6742 25.3219C76.9818 24.9655 77.3918 24.66 77.853 24.4564C78.3143 24.2527 78.8781 24.1509 79.3906 24.1509C80.1594 24.1 80.9794 24.3545 81.5432 24.9146C82.107 25.4237 82.3633 26.1874 82.3633 26.9002V31.3295H80.6719V30.6168H80.6207C80.4157 30.9222 80.1082 31.1768 79.7494 31.3295C79.3394 31.4823 78.9293 31.5841 78.5193 31.5841C78.1093 31.5841 77.648 31.4823 77.2893 31.3295C76.9305 31.1768 76.623 30.9222 76.418 30.6168C76.1617 30.2604 76.0592 29.904 76.0592 29.5476ZM80.4669 28.8348V28.0202H80.4157C80.3132 28.173 80.1594 28.2748 80.0056 28.3257C79.6981 28.4275 79.4419 28.5294 79.1343 28.5803C78.7756 28.6312 78.4168 28.733 78.1093 28.9367C77.9555 29.0385 77.8018 29.2421 77.853 29.4458C77.853 29.6494 77.9555 29.8022 78.1093 29.904C78.3143 30.0058 78.5706 30.0567 78.8268 30.0567C79.0831 30.0567 79.3906 30.0058 79.6469 29.904C79.9031 29.8022 80.1082 29.6494 80.2619 29.4458C80.3644 29.2421 80.4669 29.0385 80.4669 28.8348Z" fill="#62626A"/>
<path d="M88.6682 26.137V28.9372C88.6682 29.1408 88.7195 29.2935 88.822 29.4463C88.9757 29.5481 89.1807 29.599 89.3858 29.599H90.9746V31.4319H89.1807C88.5145 31.4828 87.8994 31.2791 87.3869 30.8718C86.9256 30.4645 86.7206 29.9045 86.7719 29.2935V26.0861H85.0293V24.406H86.7719V22.624H88.6682V24.406H91.4359V26.0861H88.6682V26.137Z" fill="#62626A"/>
<path d="M100.659 29.7008V31.4318H93.7402V29.7008H96.2516V26.1878H93.894V24.4568H98.1479V29.7008H100.659ZM96.2516 21.5039H98.1992V23.3368H96.2516V21.5039Z" fill="#62626A"/>
<path d="M102.66 27.9187C102.66 27.2569 102.814 26.595 103.121 25.9841C103.429 25.424 103.839 24.9658 104.403 24.6604C105.582 24.0494 106.965 24.0494 108.144 24.6604C108.657 24.9658 109.118 25.424 109.425 25.9841C110.041 27.206 110.041 28.6315 109.425 29.8025C109.118 30.3625 108.708 30.8208 108.144 31.1262C106.965 31.7372 105.582 31.7372 104.403 31.1262C103.89 30.8208 103.429 30.3625 103.121 29.8025C102.814 29.2425 102.66 28.5806 102.66 27.9187ZM107.939 27.9187C107.99 27.4096 107.837 26.9005 107.478 26.4932C107.17 26.1368 106.709 25.9332 106.248 25.9841C105.787 25.9841 105.325 26.1368 105.018 26.4932C104.71 26.9005 104.556 27.4096 104.556 27.9187C104.505 28.4279 104.659 28.937 105.018 29.3443C105.684 30.0062 106.76 30.0571 107.478 29.3952L107.529 29.3443C107.785 28.937 107.939 28.4279 107.939 27.9187Z" fill="#62626A"/>
<path d="M111.986 24.4566H113.883V25.1184H113.934C114.19 24.8639 114.498 24.6602 114.856 24.4566C115.215 24.3038 115.574 24.2529 115.984 24.2529C116.445 24.2529 116.855 24.3548 117.265 24.5584C117.675 24.813 118.034 25.1184 118.239 25.5257C118.495 26.0349 118.649 26.5949 118.598 27.1549V31.3807H116.702V27.4095C116.702 27.0022 116.599 26.6458 116.343 26.3403C116.087 26.0349 115.728 25.933 115.369 25.933C114.959 25.933 114.6 26.0349 114.293 26.3403C114.036 26.6458 113.883 27.0022 113.883 27.4095V31.3807H111.986V24.4566Z" fill="#62626A"/>
</g>
<defs>
<clipPath id="clip0_2_4220">
<rect width="118.608" height="36.1987" fill="white" transform="translate(0 0.67627)"/>
</clipPath>
</defs>
</svg>
