<svg width="110" height="25" viewBox="0 0 110 25" fill="none" xmlns="http://www.w3.org/2000/svg">
<g clip-path="url(#clip0_2_4247)">
<path d="M88.0709 0.8125C88.096 0.90481 88.1434 0.997121 88.1434 1.08943C88.1472 4.06718 88.1464 7.04493 88.1464 10.0398C87.716 10.2393 87.371 9.95122 87.0345 9.82466C83.8275 8.62165 80.6321 7.38812 77.4328 6.16724C77.0634 6.02654 76.6849 5.91041 76.3147 5.77194C76.2063 5.731 76.1125 5.65358 76.0117 5.59253C76.0155 5.55308 76.0186 5.51362 76.0224 5.47417C76.1666 5.45258 76.3101 5.41238 76.4544 5.41238C79.1354 5.40866 81.8158 5.40642 84.4969 5.41461C84.7624 5.41536 84.9227 5.34687 85.0738 5.11386C86.0095 3.67188 86.9681 2.2448 87.919 0.8125C87.9701 0.8125 88.0205 0.8125 88.0716 0.8125L88.0709 0.8125Z" fill="#62626A"/>
<path d="M65.6555 24.7652C65.5792 24.7391 65.5052 24.7079 65.4273 24.6878C64.8183 24.5292 64.5886 24.2381 64.5886 23.6173C64.5886 23.2108 64.587 22.8043 64.5886 22.3979C64.5909 21.9423 64.8175 21.6445 65.2571 21.5001C65.9425 21.2753 66.6286 21.2909 67.3109 21.5053C67.697 21.6266 67.9374 21.9572 67.9413 22.3607C67.9458 22.7798 67.9428 23.1981 67.942 23.6173C67.942 24.2381 67.7123 24.5292 67.1033 24.6878C67.0254 24.7079 66.9514 24.7391 66.8751 24.7652H65.6555ZM66.9514 23.0485C66.9514 22.9004 66.9529 22.7522 66.9514 22.6041C66.9468 22.249 66.7827 22.1046 66.3775 22.0956C65.7875 22.0822 65.6013 22.1917 65.5815 22.5818C65.5693 22.8282 65.5784 23.0761 65.5792 23.3225C65.5792 23.9098 65.7143 24.0386 66.3096 24.023C66.8148 24.0096 66.9491 23.8756 66.9514 23.3813C66.9514 23.2704 66.9514 23.1587 66.9514 23.0478V23.0485Z" fill="#62626A"/>
<path d="M72.2901 24.7647C72.0474 24.6397 71.7734 24.5496 71.5719 24.3784C71.43 24.2578 71.3178 24.0307 71.3117 23.8468C71.2834 23.0592 71.2995 22.2709 71.2995 21.455H72.3664C72.3664 22.1629 72.3839 22.8739 72.3588 23.5841C72.3465 23.9295 72.4832 24.0367 72.8144 24.027C73.2715 24.0143 73.3562 23.9563 73.357 23.5654C73.3593 22.8657 73.357 22.1659 73.357 21.4468H74.4239C74.4239 21.8912 74.4239 22.3416 74.4239 22.7927C74.4239 23.0518 74.4171 23.3109 74.4255 23.5699C74.4476 24.2481 74.0569 24.5965 73.4333 24.7647H72.2901Z" fill="#62626A"/>
<path d="M87.3104 24.7649C87.0921 24.6681 86.8754 24.5683 86.6556 24.476C86.3839 24.3614 86.3144 24.1462 86.3175 23.8812C86.3236 23.4375 86.345 22.9916 86.3137 22.5494C86.2595 21.7782 86.6472 21.5697 87.1257 21.4685C87.7164 21.3434 88.3468 21.3926 88.9604 21.3814C89.1314 21.3784 89.3031 21.4298 89.4985 21.4596V22.2196C89.0108 22.1772 88.5315 22.1147 88.0514 22.0998C87.4165 22.0804 87.3104 22.1988 87.3104 22.8122C87.3104 23.0221 87.2829 23.2365 87.3188 23.4398C87.3493 23.614 87.4233 23.8931 87.531 23.9192C87.8187 23.9892 88.1346 23.9557 88.4384 23.9393C88.4735 23.9371 88.5216 23.7844 88.5261 23.7003C88.5376 23.4554 88.53 23.2097 88.53 22.9373H89.5198C89.5198 23.4249 89.5282 23.914 89.5107 24.4023C89.5084 24.4753 89.3947 24.5788 89.3107 24.6078C89.1085 24.6785 88.8925 24.7142 88.6826 24.7641H87.3104V24.7649Z" fill="#62626A"/>
<path d="M44.6887 24.7645C44.4865 24.6908 44.2835 24.6178 44.082 24.5419C43.7439 24.4153 43.6233 24.154 43.6218 23.8235C43.6202 23.391 43.6218 22.9592 43.6218 22.5267C43.6218 21.9214 43.8171 21.573 44.4231 21.4636C45.0207 21.3549 45.6473 21.3921 46.2616 21.381C46.4326 21.378 46.6051 21.4294 46.8004 21.4599V22.22C46.3112 22.1775 45.8312 22.115 45.3504 22.1009C44.7177 22.0815 44.6124 22.2006 44.6124 22.8177C44.6124 23.0277 44.6124 23.2376 44.6124 23.4475C44.6132 23.8592 44.7299 23.985 45.1581 24.0215C45.284 24.0319 45.4122 24.017 45.5389 24.0252C45.7488 24.0379 45.8457 23.9523 45.8343 23.7438C45.8266 23.6083 45.8327 23.4721 45.8327 23.3366C45.8327 23.2138 45.8327 23.091 45.8327 22.9398H46.8226C46.8226 23.4237 46.831 23.9136 46.8134 24.4019C46.8111 24.4756 46.6982 24.5798 46.6142 24.6089C46.4112 24.6803 46.1952 24.7153 45.9854 24.7652H44.6895L44.6887 24.7645Z" fill="#62626A"/>
<path d="M109.494 24.6908H106.697V21.4473H109.388V22.1604H107.761V22.5959H109.239V23.353H107.758V23.9486H109.494V24.69V24.6908Z" fill="#62626A"/>
<path d="M1.00324 24.765C0.939898 24.7397 0.87808 24.7084 0.812446 24.6906C0.24845 24.5365 -0.0346933 24.3407 0.00575572 23.6967C0.0362832 23.2173 0.0210195 22.7349 0.00880847 22.254C-0.00111298 21.8483 0.211817 21.6227 0.585016 21.5021C1.16885 21.3138 1.75956 21.2967 2.36019 21.418C2.47009 21.4403 2.58762 21.4307 2.72881 21.4374V22.2428C2.51664 22.2093 2.30524 22.1669 2.09155 22.1453C1.84275 22.12 1.58937 22.0873 1.3421 22.1051C1.12917 22.1208 0.978821 22.2332 0.9979 22.4937C1.02003 22.8004 1.00248 23.1101 1.00324 23.4183C1.00324 23.8709 1.12688 24.0213 1.59395 24.0146C1.9641 24.0094 2.33272 23.9327 2.72957 23.8851V24.6444C2.59067 24.6831 2.44491 24.7233 2.29914 24.7643H1.00324V24.765Z" fill="#62626A"/>
<path d="M65.7312 9.92955H73.1776V11.9224H65.7312C65.7312 12.5589 65.7312 13.1708 65.7312 13.7828C65.7312 14.4461 65.7426 14.4572 66.4409 14.4572C68.6755 14.4572 70.9109 14.4572 73.1745 14.4572V16.5163C73.057 16.5215 72.9349 16.5327 72.812 16.5327C69.7127 16.5335 66.6126 16.5543 63.5141 16.5208C62.5739 16.5104 61.6222 16.4106 60.7933 15.8739C60.4743 15.6669 60.3102 15.4228 60.3125 15.0312C60.3247 12.3869 60.3194 9.74345 60.3194 7.0992C60.3194 6.32871 60.5377 5.94756 61.2802 5.73539C61.9557 5.54184 62.6647 5.36243 63.3607 5.3535C66.5615 5.31404 69.7623 5.33637 72.9639 5.33637C73.0265 5.33637 73.0883 5.34233 73.1776 5.3468V7.33742H72.7693C70.788 7.33742 68.806 7.33593 66.8248 7.3404C66.6401 7.3404 66.4539 7.40666 66.27 7.40144C65.8052 7.38804 65.7052 7.62031 65.7251 8.02528C65.7548 8.64093 65.7327 9.25882 65.7327 9.92955H65.7312Z" fill="#62626A"/>
<path d="M17.3125 16.5332C17.5071 16.1856 17.659 15.9265 17.8002 15.6622C18.555 14.2537 19.3044 12.8423 20.0607 11.4346C20.869 9.9308 21.6779 8.42778 22.4968 6.92922C22.9624 6.0761 23.7843 5.69495 24.6895 5.4932C26.2204 5.15225 27.6606 5.38154 28.9359 6.31655C29.1267 6.45651 29.2762 6.67537 29.3907 6.88605C30.1127 8.21561 30.8156 9.55411 31.5315 10.8867C32.4023 12.5095 33.2784 14.1287 34.1538 15.7493C34.285 15.992 34.4239 16.231 34.5834 16.5139C34.4339 16.5228 34.3385 16.5325 34.2431 16.5325C32.503 16.5332 30.7629 16.5302 29.0229 16.5369C28.8183 16.5369 28.6596 16.5206 28.5932 16.2957C28.5665 16.2064 28.484 16.1342 28.4383 16.0493C28.2757 15.7486 28.1917 15.3108 27.9384 15.1783C27.6407 15.0227 27.1973 15.1255 26.8165 15.1255C25.0383 15.1232 23.26 15.1285 21.4818 15.1195C21.2528 15.118 21.1269 15.1694 21.0277 15.3868C20.8506 15.7731 20.7156 16.2786 20.3958 16.4722C20.0821 16.662 19.5601 16.5295 19.1297 16.5325C18.5595 16.5362 17.9894 16.5332 17.3125 16.5332ZM26.8562 13.1155C26.0838 11.678 25.3412 10.2978 24.5742 8.86997C23.8042 10.2963 23.0509 11.6921 22.2824 13.1155H26.8562Z" fill="#62626A"/>
<path d="M5.34008 11.9229V16.5146H0.0122591V16.088C0.0122591 13.012 0.0244701 9.93526 4.80532e-05 6.85924C-0.00376789 6.36866 0.219846 6.06195 0.613651 5.91678C1.21046 5.69717 1.84315 5.44332 2.46515 5.43067C5.87583 5.36218 9.28805 5.36218 12.6995 5.33984C12.7232 5.33984 12.7468 5.35175 12.7957 5.36441V7.33717C12.6529 7.33717 12.5171 7.33717 12.3813 7.33717C10.4756 7.33717 8.57065 7.33419 6.66497 7.34015C6.41693 7.34089 6.16661 7.37439 5.9201 7.41236C5.41258 7.49052 5.35 7.56571 5.34847 8.04439C5.34695 8.65929 5.34847 9.27494 5.34847 9.9293H12.8018V11.9222H5.33931L5.34008 11.9229Z" fill="#62626A"/>
<path d="M53.6034 14.457V16.5333C53.4653 16.5333 53.3318 16.5333 53.199 16.5333C51.1536 16.5333 49.1083 16.5601 47.0644 16.5251C45.3831 16.496 43.7354 16.237 42.209 15.4985C40.9498 14.8888 39.8088 14.1168 39.1006 12.8967C38.6503 12.121 38.4992 11.2664 38.6327 10.3626C38.8899 8.6251 40.0813 7.60001 41.4985 6.74614C42.6906 6.02776 43.998 5.62129 45.39 5.4873C46.1524 5.41434 46.9187 5.35032 47.6834 5.34213C49.6387 5.32203 51.5947 5.33543 53.5806 5.33543V7.33722H53.1852C51.2421 7.33722 49.2975 7.31266 47.3552 7.3536C46.8378 7.36477 46.2898 7.501 45.8189 7.71391C45.1778 8.00424 44.9092 8.63701 44.781 9.27351C44.5398 10.4683 44.5314 11.6758 44.8512 12.8609C45.1008 13.787 45.8998 14.4652 46.9462 14.4593C49.0167 14.4488 51.0872 14.4563 53.1577 14.4563H53.6027L53.6034 14.457Z" fill="#62626A"/>
<path d="M92.9031 5.35059H109.396V7.41268C109.275 7.41268 109.142 7.41268 109.009 7.41268C107.511 7.41268 106.012 7.41268 104.513 7.41268C104.003 7.41268 103.929 7.48638 103.929 7.9859C103.929 10.6912 103.929 13.3965 103.929 16.1018V16.5164H98.4393V16.1271C98.4393 13.4344 98.4393 10.7411 98.4393 8.04843C98.4393 7.53402 98.3133 7.41342 97.7669 7.41342C96.1551 7.41342 94.5432 7.41342 92.9023 7.41342V5.35133L92.9031 5.35059Z" fill="#62626A"/>
<path d="M87.9955 16.3909H82.2266V10.2954C82.7936 10.518 83.35 10.7361 83.9063 10.9527C85.1954 11.4552 86.4867 11.954 87.7711 12.4669C87.8681 12.5056 87.9848 12.6471 87.9863 12.7416C88.0008 13.9379 87.9963 15.135 87.9963 16.3909H87.9955Z" fill="#62626A"/>
<path d="M99.2976 24.6632V21.4287C99.6792 21.4287 100.045 21.4123 100.407 21.4398C100.498 21.4465 100.616 21.5798 100.657 21.6795C100.874 22.2163 101.071 22.7612 101.292 23.3463C101.533 22.6853 101.758 22.0689 101.987 21.4398H103.219V24.6707H102.353V23.1401C102.323 23.1342 102.292 23.1275 102.263 23.1215C102.131 23.4997 101.98 23.8719 101.873 24.2568C101.781 24.5851 101.625 24.7652 101.248 24.6953C101.126 24.6722 100.996 24.6915 100.853 24.6915C100.656 24.1652 100.46 23.6434 100.265 23.1208C100.243 23.126 100.222 23.1312 100.2 23.1364V24.664H99.2969L99.2976 24.6632Z" fill="#62626A"/>
<path d="M36.9297 24.6705V21.4292C37.235 21.4292 37.5372 21.4076 37.8333 21.4411C37.9379 21.453 38.0432 21.5863 38.1187 21.6853C38.4866 22.1699 38.8453 22.662 39.2689 23.2352V21.4493H40.1626V24.6891C39.884 24.6891 39.5734 24.7554 39.3185 24.6683C39.1162 24.599 38.9674 24.3519 38.8224 24.1635C38.5026 23.7496 38.1996 23.3231 37.8371 22.8295V24.6705H36.9304H36.9297Z" fill="#62626A"/>
<path d="M80.1317 23.4056C80.4576 23.8463 80.7469 24.2371 81.0819 24.6897C80.6683 24.6897 80.3317 24.6987 79.9967 24.683C79.9165 24.6793 79.8173 24.6108 79.7654 24.5431C79.5342 24.2431 79.3182 23.9312 79.0923 23.6267C79.0503 23.5701 78.987 23.5292 78.8603 23.4168V24.6637H77.875V21.4261C78.5054 21.4261 79.1465 21.4217 79.7875 21.4291C79.9471 21.4306 80.1104 21.4537 80.2645 21.4931C80.5912 21.5773 80.7812 21.773 80.7522 22.1259C80.7438 22.2242 80.74 22.3247 80.7522 22.4222C80.814 22.8949 80.7217 23.2813 80.131 23.4041L80.1317 23.4056ZM78.8626 22.7624C79.0656 22.7624 79.2533 22.7542 79.4395 22.7646C79.6586 22.7765 79.7662 22.7066 79.7647 22.4728C79.7631 22.2525 79.6868 22.1534 79.4533 22.1668C79.2564 22.178 79.0579 22.1691 78.8618 22.1691V22.7624H78.8626Z" fill="#62626A"/>
<path d="M7.02268 22.5974H8.23386V21.4502H9.20616V24.6647H8.24989V23.3738H7.03871V24.6691H6.06641V21.4547H7.02268V22.5974Z" fill="#62626A"/>
<path d="M30.832 24.6691V21.4546H33.536V22.1499H31.9081V22.6114H33.388V23.344H31.9035V23.9418H33.6077V24.6691H30.832Z" fill="#62626A"/>
<path d="M51.2725 22.6241H52.7539V23.3455H51.2687V23.9432H52.9737V24.6706H50.2109V21.4546H52.9027V22.1521H51.2733V22.6248L51.2725 22.6241Z" fill="#62626A"/>
<path d="M96.1854 24.6776H95.1314C95.0284 24.4163 94.9231 24.152 94.817 23.884H93.8012C93.7775 24.6828 93.2792 24.8421 92.5312 24.6448C92.7053 24.1781 92.8838 23.689 93.0693 23.2028C93.2548 22.7175 93.4593 22.238 93.6333 21.749C93.7142 21.5204 93.8264 21.4207 94.0904 21.4229C94.9521 21.4281 94.9437 21.4207 95.2421 22.2246C95.5397 23.0272 95.8557 23.8237 96.1854 24.6783V24.6776ZM94.3163 22.3624C94.2042 22.71 94.1278 22.9482 94.0492 23.1917H94.6407C94.5407 22.9356 94.4499 22.7041 94.3163 22.3624Z" fill="#62626A"/>
<path d="M13.6191 23.8826C13.4354 24.4399 12.9999 24.7052 12.3125 24.6784C12.5002 24.1759 12.6811 23.6853 12.8681 23.1969C13.0536 22.7116 13.255 22.2314 13.4298 21.7423C13.5115 21.5145 13.629 21.4185 13.8915 21.4215C14.7425 21.4289 14.7356 21.4207 15.0378 22.2292C15.337 23.0309 15.653 23.8267 15.9758 24.6627H14.9196C14.8211 24.4126 14.7165 24.1476 14.6127 23.8818H13.6191V23.8826ZM13.8358 23.1925H14.4395C14.3334 22.9327 14.2388 22.6982 14.1106 22.384C14.0007 22.7064 13.9205 22.9416 13.8358 23.1925Z" fill="#62626A"/>
<path d="M60.3188 24.6726H59.361C59.3503 24.6078 59.3183 24.5341 59.3312 24.4701C59.5052 23.6378 59.0725 22.9969 58.6405 22.3529C58.4452 22.0626 58.2605 21.7656 58.043 21.4291C58.4146 21.4291 58.7413 21.4149 59.0649 21.438C59.1626 21.4447 59.2824 21.5355 59.3396 21.6212C59.5083 21.8743 59.651 22.1438 59.8273 22.4467C59.9754 22.1839 60.128 21.9472 60.244 21.6949C60.3409 21.4827 60.4783 21.4082 60.7118 21.4239C60.9896 21.4432 61.2697 21.4283 61.6132 21.4283C61.3735 21.8073 61.1568 22.1505 60.9377 22.4929C60.8591 22.6157 60.7889 22.7467 60.6935 22.8562C60.3333 23.2656 60.2623 23.7428 60.3165 24.2565C60.3302 24.3875 60.3188 24.5215 60.3188 24.6719V24.6726Z" fill="#62626A"/>
<path d="M27.5949 23.9444V24.6642H24.9688V21.4468H25.9227V23.9444H27.5956H27.5949Z" fill="#62626A"/>
<path d="M19.0996 21.4463H20.0536V23.9364H21.641V24.6734H19.0996V21.4463Z" fill="#62626A"/>
</g>
<defs>
<clipPath id="clip0_2_4247">
<rect width="109.496" height="23.9523" fill="white" transform="translate(0 0.8125)"/>
</clipPath>
</defs>
</svg>
