<svg width="46" height="41" viewBox="0 0 46 41" fill="none" xmlns="http://www.w3.org/2000/svg">
<g clip-path="url(#clip0_2_4198)">
<path d="M22.5833 12.3442L0 0.67563L3.51092 20.2355C3.79025 21.7916 4.65795 23.1468 5.95455 24.0514L11.4144 27.8602L11.7888 32.6911L22.5288 40.4234L33.2765 32.7366L33.7117 27.8128L39.2801 23.8239C40.5466 22.9166 41.3936 21.5722 41.6657 20.0382L45.0982 0.673828L22.5833 12.3442ZM41.0448 19.9283C40.802 21.2992 40.0447 22.5003 38.913 23.3112L33.1093 27.4691L32.6741 32.3924L22.5306 39.6472L12.3957 32.3505L12.0208 27.5142L6.31632 23.5347C5.15758 22.7264 4.38223 21.5154 4.13264 20.1247L0.846982 1.82311L22.5838 13.0542L44.2539 1.82176L41.0444 19.9283H41.0448Z" fill="#62626A"/>
<path d="M11.0318 16.4796L10.361 8.91172L3.41797 5.30664L4.76683 12.7448L11.0318 16.4796Z" fill="#62626A"/>
<path d="M11.7983 24.9492L11.2532 18.9018L5.2207 15.353L5.97037 19.6118C6.12535 20.4917 6.62048 21.2747 7.34897 21.7914L11.7988 24.9492" fill="#62626A"/>
<path d="M34.0781 16.4796L34.749 8.91172L41.692 5.30664L40.3431 12.7448L34.0781 16.4796Z" fill="#62626A"/>
<path d="M33.3129 24.9492L33.8581 18.9018L39.8906 15.353L39.1409 19.6118C38.9859 20.4917 38.4908 21.2747 37.7623 21.7914L33.3125 24.9492" fill="#62626A"/>
<path d="M12.3828 9.94678L19.5267 13.6411L19.9322 18.732L22.5547 16.8398L25.1871 18.732L25.5926 13.6411L32.7365 9.94678L30.8443 31.3466L23.5202 36.6177L23.5251 31.3033C23.5265 29.7499 24.2802 28.2938 25.5475 27.3955L28.557 25.2627L28.8724 21.8838L22.5853 25.6398L16.2474 21.8838L16.5628 25.2627L19.5858 27.3869C20.8698 28.2893 21.6311 29.763 21.6239 31.3326L21.5996 36.6177L14.2755 31.3466L12.3833 9.94678H12.3828Z" fill="#62626A"/>
</g>
<defs>
<clipPath id="clip0_2_4198">
<rect width="45.0982" height="39.7491" fill="white" transform="translate(0 0.673828)"/>
</clipPath>
</defs>
</svg>
