<svg width="121" height="31" viewBox="0 0 121 31" fill="none" xmlns="http://www.w3.org/2000/svg">
<g clip-path="url(#clip0_2_4124)">
<path d="M41.1164 9.11035H38.707V21.6422H41.1164V9.11035Z" fill="#62626A"/>
<path d="M53.7767 12.5176C52.5791 12.5176 51.4813 13.0166 50.8255 14.0573C50.3408 13.0451 49.357 12.5176 48.0882 12.5176C47.0189 12.5176 46.0209 12.9881 45.4079 13.9575V12.6887H43.084V21.642H45.4079V16.6663C45.4079 15.4117 46.2633 14.485 47.3325 14.485H47.4751C48.4303 14.485 48.8723 15.0838 48.8723 16.2814V21.6563H51.1962V16.6806C51.1962 15.426 52.0373 14.4993 53.1066 14.4993H53.2492C54.2044 14.4993 54.6321 15.0981 54.6321 16.2957V21.6705H56.956V16.039C56.956 14.984 56.6993 14.1286 56.2004 13.5013C55.6728 12.8312 54.8745 12.5176 53.7767 12.5176Z" fill="#62626A"/>
<path d="M69.2312 12.5176C68.0336 12.5176 66.9358 13.0166 66.28 14.0573C65.7952 13.0451 64.8115 12.5176 63.5427 12.5176C62.4734 12.5176 61.4754 12.9881 60.8624 13.9575V12.6887H58.5527V21.642H60.8766V16.6663C60.8766 15.4117 61.732 14.485 62.8013 14.485H62.9439C63.8991 14.485 64.341 15.0838 64.341 16.2814V21.6563H66.6649V16.6806C66.6649 15.426 67.5061 14.4993 68.5753 14.4993H68.7179C69.6731 14.4993 70.1008 15.0981 70.1008 16.2957V21.6705H72.4247V16.039C72.4247 14.984 72.1681 14.1286 71.6691 13.5013C71.1416 12.8312 70.3432 12.5176 69.2312 12.5176Z" fill="#62626A"/>
<path d="M86.8543 18.6909V14.5706H88.8502V12.6887H86.8543V9.78027H84.5304V12.6887H79.569V17.6644C79.569 18.919 78.7421 19.9312 77.7298 19.9312H77.5873C76.7461 19.9312 76.2614 19.3039 76.2614 18.1491V12.6887H73.9375V18.42C73.9375 19.4607 74.1941 20.2876 74.6931 20.8864C75.1921 21.4995 75.9477 21.8131 76.96 21.8131C78.072 21.8131 79.0272 21.2428 79.569 20.3304V21.642H81.8929V14.5706H84.5304V19.3182C84.5304 20.8294 85.343 21.642 86.8543 21.642H89.1211V19.6746H87.838C87.0254 19.6888 86.8543 19.5178 86.8543 18.6909Z" fill="#62626A"/>
<path d="M97.4332 15.7396C97.4332 13.6724 95.9219 12.5176 93.6693 12.5176C91.4167 12.5176 90.0053 13.7722 89.82 15.4688H92.1581C92.2151 14.927 92.7569 14.3995 93.598 14.3995H93.7406C94.596 14.3995 95.1806 15.0125 95.1806 15.8252V16.039L92.928 16.2386C91.9585 16.3099 91.1744 16.5951 90.5613 17.094C89.9483 17.5788 89.6489 18.2774 89.6489 19.1898C89.6204 20.7581 90.9748 21.8416 92.5858 21.8273C93.7264 21.8273 94.6816 21.3426 95.2376 20.5585C95.2519 21.029 95.2946 21.3996 95.3374 21.6563H97.5187C97.4617 21.2428 97.4332 20.587 97.4332 19.6888V15.7396ZM95.1663 17.9922C95.1663 19.1185 94.2254 19.9454 93.1703 19.9454H93.0278C92.3862 19.9454 91.9157 19.589 91.9157 19.033C91.9157 18.6908 92.044 18.4342 92.3149 18.2489C92.5715 18.0635 92.8852 17.9637 93.2274 17.9352L95.1663 17.7356V17.9922Z" fill="#62626A"/>
<path d="M103.932 12.5178C102.734 12.5178 101.736 13.2021 101.351 13.8579V9.11035H99.0273V21.6422H101.351V20.4731C101.736 21.1289 102.734 21.8133 103.932 21.8133C106.441 21.856 107.938 19.6034 107.909 17.1655C107.938 14.7276 106.441 12.475 103.932 12.5178ZM103.547 19.9456H103.404C102.335 19.9741 101.337 18.8193 101.365 17.1798C101.351 15.5402 102.349 14.3854 103.404 14.4139H103.547C104.716 14.4139 105.586 15.4832 105.586 17.1655C105.586 18.8478 104.702 19.9456 103.547 19.9456Z" fill="#62626A"/>
<path d="M111.402 9.11035H109.078V21.6422H111.402V9.11035Z" fill="#62626A"/>
<path d="M116.849 12.5179C114.226 12.4894 112.558 14.4996 112.587 17.1656C112.544 20.017 114.597 21.8562 116.849 21.8134C119.045 21.8134 120.456 20.5873 120.898 18.8052H118.589C118.418 19.461 117.847 19.9315 117.02 19.9315H116.878C115.908 19.9315 114.939 19.0903 114.853 17.8927H120.898C120.927 17.5078 120.927 17.2227 120.927 17.0516C120.955 14.4568 119.473 12.5036 116.849 12.5179ZM114.853 16.1106C114.91 15.0556 115.723 14.3998 116.693 14.3998H116.835C117.819 14.3998 118.632 15.0556 118.674 16.1106H114.853Z" fill="#62626A"/>
<path d="M15.2977 0C6.84332 0 0 6.84332 0 15.2977C0 23.752 6.84332 30.5954 15.2977 30.5954C23.752 30.5954 30.5954 23.752 30.5954 15.2977C30.5954 6.84332 23.752 0 15.2977 0ZM14.6419 6.1875C15.0696 5.97365 15.5115 5.98791 15.925 6.23027C17.3507 7.04292 18.7764 7.86982 20.2021 8.69672C20.6583 8.9676 20.8864 9.39531 20.8864 9.92282C20.9006 11.7762 20.8864 13.6154 20.8864 15.4688C20.8864 15.54 20.8436 15.6398 20.7866 15.6684C20.2448 15.9963 19.6745 16.3099 19.0758 16.6663V10.6784C19.0758 10.3078 18.9474 10.0796 18.6338 9.8943C16.98 8.95335 15.3262 7.99813 13.6724 7.04292C13.6011 7.00015 13.5298 6.95738 13.4158 6.88609C13.8577 6.61521 14.2284 6.3871 14.6419 6.1875ZM14.3282 25.0922C14.2284 25.0494 14.1714 25.0066 14.1001 24.9781C11.9188 23.7235 9.72322 22.4404 7.52765 21.2C6.91461 20.8436 6.62947 20.3446 6.64372 19.646C6.65798 18.1491 6.65798 16.6521 6.64372 15.1551C6.64372 14.485 6.91461 13.986 7.5134 13.6581C9.05314 12.7742 10.5929 11.8903 12.1184 11.0063C12.2467 10.9351 12.3465 10.9208 12.4891 11.0063C13.0166 11.32 13.5583 11.6336 14.1144 11.9473C14.0003 12.0186 13.929 12.0614 13.8435 12.1041C12.1897 13.0593 10.5216 14.0288 8.8678 14.9698C8.59692 15.1266 8.46861 15.3262 8.46861 15.6398C8.48287 16.8232 8.48287 17.9922 8.46861 19.1756C8.46861 19.5035 8.59692 19.7031 8.8678 19.8599C10.6214 20.8579 12.375 21.8844 14.1286 22.8824C14.2712 22.9679 14.3425 23.0534 14.3425 23.2388C14.3282 23.8518 14.3282 24.4506 14.3282 25.0922ZM14.3282 21.7275C14.1714 21.642 14.0716 21.585 13.9575 21.5137C12.5603 20.7153 11.1774 19.9027 9.78025 19.1043C9.62342 19.0187 9.56639 18.9332 9.58065 18.7479C9.59491 17.8497 9.58065 16.9372 9.58065 16.039C9.58065 15.9107 9.59491 15.8252 9.72322 15.7682C10.2365 15.483 10.7497 15.1836 11.2487 14.8842C11.2915 14.8557 11.32 14.8415 11.3913 14.8129V15.8252C11.3913 16.3812 11.4055 16.923 11.3913 17.479C11.3913 17.7926 11.5053 18.0065 11.7762 18.1633C12.5603 18.6053 13.3445 19.0758 14.1286 19.5177C14.2854 19.6033 14.3282 19.7031 14.3282 19.8741C14.3282 20.4729 14.3282 21.0717 14.3282 21.7275ZM12.7314 9.83727C12.432 9.66619 12.1897 9.66619 11.8903 9.83727C10.2365 10.8067 8.58267 11.762 6.91461 12.7172C6.84332 12.7599 6.77204 12.7885 6.64372 12.8597C6.6865 12.2324 6.55818 11.6336 6.77204 11.0634C6.88609 10.7497 7.1142 10.5073 7.39934 10.3505C8.78226 9.55214 10.1652 8.75375 11.5481 7.95536C12.0471 7.67022 12.5746 7.67022 13.0736 7.96962C14.6419 8.88206 16.2244 9.78025 17.7926 10.6927C17.8639 10.7355 17.9495 10.821 17.9495 10.878C17.9637 11.5196 17.9495 12.1754 17.9495 12.874C17.3792 12.5461 16.8517 12.2324 16.3242 11.933C15.1266 11.2345 13.929 10.5501 12.7314 9.83727ZM23.7948 20.0167C23.752 20.53 23.4526 20.8864 23.0107 21.143C21.3284 22.1125 19.6318 23.082 17.9495 24.0657C17.422 24.3651 16.8945 24.6787 16.3669 24.9781C16.2957 25.0209 16.2386 25.0494 16.1531 25.0922C16.1531 25.0066 16.1388 24.9354 16.1388 24.8783V23.196C16.1388 23.0677 16.1673 22.9964 16.2814 22.9251C18.7336 21.5137 21.2 20.088 23.6522 18.6766C23.695 18.6481 23.7235 18.6338 23.7948 18.6053C23.8091 19.1043 23.8376 19.5605 23.7948 20.0167ZM23.8091 16.5095C23.8091 17.094 23.4954 17.4932 22.9964 17.7784C21.0717 18.8904 19.147 19.9882 17.2366 21.1002C16.8802 21.2998 16.538 21.4994 16.1531 21.7133C16.1531 21.6135 16.1388 21.5565 16.1388 21.4852V19.8314C16.1388 19.6746 16.1816 19.589 16.3242 19.5177C18.0635 18.5197 19.8171 17.5075 21.5565 16.5095C21.8701 16.3384 21.9984 16.1103 21.9984 15.7539C21.9842 13.8577 21.9984 11.9473 21.9984 10.0511V9.72322C22.4546 9.9941 22.8824 10.2222 23.2673 10.5073C23.6237 10.764 23.8091 11.1489 23.8091 11.5766C23.8233 13.2162 23.8233 14.8557 23.8091 16.5095Z" fill="#62626A"/>
</g>
<defs>
<clipPath id="clip0_2_4124">
<rect width="120.927" height="30.5954" fill="white"/>
</clipPath>
</defs>
</svg>
