<svg width="131" height="55" viewBox="0 0 131 55" fill="none" xmlns="http://www.w3.org/2000/svg">
<path d="M51.8911 23.0723H48.2617V31.7106H50.1336V24.9441H50.6709L53.6624 31.7106H55.7076L51.8911 23.0723Z" fill="#62626A"/>
<path d="M84.5625 31.7106H86.4344V23.0723H84.5625V31.7106Z" fill="#62626A"/>
<path d="M59.5236 23.0723L55.707 31.7106H57.7557L60.7438 24.9441H61.2811V31.7106H63.1529V23.0723H59.5236Z" fill="#62626A"/>
<path d="M71.5246 23.0723H68.0997L64.2832 31.7106H66.3284L67.5728 28.8959H72.0515L73.2959 31.7106H75.3411L71.5246 23.0723ZM68.4013 27.024L69.3199 24.9441H70.3044L71.223 27.024H68.4013Z" fill="#62626A"/>
<path d="M80.7445 23.0723H76.4219V31.7106H78.2937V24.9441H79.5243L82.5159 31.7106H84.5611L80.7445 23.0723Z" fill="#62626A"/>
<path d="M87.4746 23.0723V24.9441H91.8423V31.7106H93.7142V24.9441H98.0819V23.0723H87.4746Z" fill="#62626A"/>
<path d="M100.993 23.0723H99.1211V31.7106H107.267V29.8387H100.993V23.0723Z" fill="#62626A"/>
<path d="M117.146 24.9441V23.0723H108.307V31.7106H117.146V29.8387H110.179V28.2026H116.221V26.3307H110.179V24.9441H117.146Z" fill="#62626A"/>
<path d="M19.3181 23.301L15.1653 21.1865C14.8395 21.8243 14.5656 22.4934 14.3438 23.1763L18.7773 24.6114C18.9229 24.1607 19.1032 23.7205 19.3181 23.301Z" fill="#62626A"/>
<path d="M22.8428 19.5744L25.1446 23.5365C25.4808 23.3424 25.8413 23.1934 26.2122 23.0928L25.0232 18.6697C25.3248 18.5899 25.6333 18.5206 25.9453 18.4721L25.2139 13.8687C24.5067 13.9796 23.803 14.1494 23.1236 14.3713L24.5449 18.7321C24.0908 18.8811 23.6505 19.0648 23.2276 19.2798L21.1374 15.1998C20.503 15.5256 19.886 15.9034 19.3105 16.3264L22.0594 20.0909C22.309 19.9037 22.5725 19.7339 22.8428 19.5744Z" fill="#62626A"/>
<path d="M35.1867 22.8576L31.2246 25.1593C31.4187 25.4955 31.5713 25.8561 31.6718 26.227L36.095 25.0345C36.1781 25.3361 36.244 25.6446 36.2925 25.9531L40.896 25.2217C40.785 24.5145 40.6152 23.8109 40.3899 23.1314L36.0326 24.5561C35.8835 24.102 35.6998 23.6618 35.4849 23.2389L39.5648 21.1452C39.239 20.5108 38.8612 19.8938 38.4383 19.3184L34.6772 22.0672C34.8574 22.3238 35.0273 22.5872 35.1867 22.8576Z" fill="#62626A"/>
<path d="M33.5718 15.179C32.9339 14.8531 32.2649 14.5793 31.582 14.3574L30.1504 18.791C30.5976 18.9366 31.0378 19.1168 31.4607 19.3318L33.5718 15.179Z" fill="#62626A"/>
<path d="M31.9158 19.4949L29.5898 23.5333C29.9261 23.7274 30.2381 23.9666 30.5119 24.2404L37.0357 17.6923C36.5296 17.1862 35.9785 16.7183 35.4031 16.2988L32.7131 20.0114C32.4566 19.8242 32.1931 19.6509 31.9158 19.4949Z" fill="#62626A"/>
<path d="M19.4777 22.8431L23.5127 25.1726C23.7068 24.8363 23.946 24.5243 24.2198 24.247L17.6787 17.7197C17.1726 18.2258 16.7046 18.777 16.2852 19.3524L19.9942 22.0458C19.8105 22.3024 19.6372 22.5693 19.4777 22.8431Z" fill="#62626A"/>
<path d="M28.7841 18.3928L29.4878 13.8621C28.791 13.7547 28.0804 13.6992 27.3698 13.6992H27.3594V22.9407H27.3698C27.758 22.9407 28.1463 22.9893 28.5172 23.0898L29.7131 18.5869C29.408 18.5037 29.0995 18.4413 28.7841 18.3928Z" fill="#62626A"/>
<path d="M23.0722 26.2443L18.5693 25.0449C18.4896 25.35 18.4237 25.6619 18.3752 25.9739L13.8446 25.2668C13.7371 25.9635 13.6816 26.6811 13.6816 27.3917H22.9232C22.9232 27 22.9751 26.6152 23.0722 26.2443Z" fill="#62626A"/>
<path d="M35.4297 31.4817L39.5825 33.5962C39.9083 32.9584 40.1822 32.2894 40.404 31.6065L35.9705 30.1714C35.8249 30.622 35.6446 31.0623 35.4297 31.4817Z" fill="#62626A"/>
<path d="M31.9011 35.2048L29.6028 31.2427C29.2666 31.4368 28.9061 31.5859 28.5352 31.6864L29.7241 36.1095C29.4226 36.1893 29.1141 36.2586 28.8021 36.3071L29.5335 40.9106C30.2406 40.7996 30.9443 40.6298 31.6237 40.4079L30.2025 36.0472C30.6566 35.8981 31.0969 35.7144 31.5198 35.4995L33.61 39.5794C34.2444 39.2536 34.8614 38.8758 35.4368 38.4529L32.6914 34.6883C32.4384 34.879 32.1749 35.0488 31.9011 35.2048Z" fill="#62626A"/>
<path d="M19.5608 31.9255L23.5229 29.6238C23.3288 29.2876 23.1763 28.9271 23.0757 28.5562L18.6526 29.7486C18.5694 29.447 18.5035 29.1385 18.455 28.83L13.8516 29.5614C13.9625 30.2686 14.1323 30.9723 14.3577 31.6517L18.715 30.227C18.864 30.6776 19.0477 31.1213 19.2627 31.5442L15.1827 33.6379C15.5085 34.2723 15.8864 34.8893 16.3093 35.4648L20.0703 32.7159C19.8901 32.4594 19.7202 32.1959 19.5608 31.9255Z" fill="#62626A"/>
<path d="M21.1758 39.6035C21.8136 39.9293 22.4826 40.2032 23.1655 40.425L24.5971 35.9914C24.15 35.8459 23.7097 35.6656 23.2868 35.4507L21.1758 39.6035Z" fill="#62626A"/>
<path d="M22.8289 35.288L25.1549 31.2496C24.8186 31.0555 24.5067 30.8163 24.2328 30.5425L17.709 37.0906C18.2151 37.5967 18.7662 38.0646 19.3417 38.4841L22.0316 34.7715C22.2881 34.9553 22.5551 35.1286 22.8289 35.288Z" fill="#62626A"/>
<path d="M35.2675 31.9393L31.2325 29.6099C31.0384 29.9461 30.7992 30.2581 30.5254 30.5354L37.07 37.0627C37.5761 36.5566 38.0441 36.0054 38.4635 35.43L34.7544 32.7366C34.9382 32.4766 35.1115 32.2132 35.2675 31.9393Z" fill="#62626A"/>
<path d="M26.2252 31.6934L25.0293 36.1963C25.3343 36.276 25.6463 36.3418 25.9583 36.3904L25.2546 40.921C25.9514 41.0285 26.662 41.0839 27.3726 41.0839H27.383V31.8424H27.3726C26.9844 31.8424 26.5961 31.7904 26.2252 31.6934Z" fill="#62626A"/>
<path d="M31.8248 27.3916C31.8248 27.7833 31.7763 28.1681 31.6758 28.539L36.1787 29.7384C36.2584 29.4333 36.3243 29.1214 36.3728 28.8094L40.9034 29.5165C41.0109 28.8198 41.0663 28.1022 41.0663 27.3916H31.8248Z" fill="#62626A"/>
</svg>
