<svg width="92" height="19" viewBox="0 0 92 19" fill="none" xmlns="http://www.w3.org/2000/svg">
<g clip-path="url(#clip0_2_4100)">
<path d="M25.0024 14.5309C23.4773 14.525 22.2615 13.343 22.2256 11.8237C22.1897 10.3049 21.2437 9.21949 19.7608 8.99671C18.2689 8.77288 16.7522 10.0272 16.7004 11.5439C16.6767 12.2365 16.5468 12.8848 16.1076 13.4444C15.3643 14.3915 14.1305 14.77 13.0108 14.391C11.8869 14.0103 11.1251 12.9666 11.113 11.7677C11.1045 10.9579 10.821 10.2664 10.2245 9.72524C9.40674 8.98246 8.44752 8.76918 7.41017 9.14981C6.37703 9.52833 5.77099 10.2964 5.6105 11.394C5.5688 11.6801 5.58622 11.9763 5.53026 12.2587C5.25574 13.6434 4.11808 14.5472 2.70221 14.5235C1.37556 14.5013 0.260602 13.5114 0.0351819 12.1552C-0.232471 10.5451 1.06303 8.99143 2.69693 8.96398C4.37676 8.93548 5.52815 7.79412 5.55929 6.12749C5.5878 4.61448 6.8321 3.40767 8.35989 3.41136C9.87606 3.41559 11.095 4.61396 11.1225 6.12907C11.1504 7.66795 12.2369 8.84626 13.7335 8.96029C15.2455 9.07537 16.6366 7.82474 16.6497 6.30012C16.6688 4.1325 18.6696 2.94891 20.4043 3.57449C21.5045 3.97148 22.223 5.00039 22.2399 6.21671C22.2557 7.36651 22.9272 8.35794 24.0068 8.76074C24.3214 8.87793 24.6714 8.94815 25.0067 8.95501C26.479 8.98721 27.661 10.0716 27.7824 11.537C27.8996 12.9513 26.9008 14.2336 25.4744 14.4934C25.3197 14.5214 25.1592 14.5192 25.0019 14.5309H25.0024Z" fill="#62626A"/>
<path d="M33.4302 4.77438H36.1163V5.86347C37.0486 4.92325 38.1398 4.58169 39.3682 4.62815C40.6062 4.67513 41.6367 5.13653 42.3863 6.19078C42.7986 5.70668 43.269 5.31866 43.8375 5.06473C45.0755 4.51201 46.3462 4.4476 47.6111 4.92325C48.9087 5.41105 49.5802 6.42992 49.7956 7.7645C49.8637 8.18788 49.8964 8.62077 49.8991 9.04944C49.9102 10.8 49.9038 12.5501 49.9033 14.3006C49.9033 14.3608 49.8975 14.421 49.8933 14.5018H47.0483C47.0483 14.3904 47.0483 14.2874 47.0483 14.185C47.0483 12.549 47.0594 10.913 47.0399 9.27697C47.0351 8.90638 46.966 8.52205 46.8498 8.16941C46.6376 7.52482 46.1551 7.1764 45.4778 7.10618C44.149 6.96893 43.1613 7.74813 43.1106 9.08745C43.0467 10.7736 43.0758 12.4629 43.0652 14.1512C43.0647 14.2637 43.0652 14.3756 43.0652 14.5055H40.2081V14.2014C40.2081 12.5479 40.2081 10.894 40.2081 9.24055C40.2081 8.77704 40.1437 8.32725 39.922 7.9139C39.7119 7.52218 39.3925 7.26773 38.957 7.15686C37.6778 6.83114 36.5908 7.50371 36.3348 8.79763C36.2804 9.07162 36.2567 9.35616 36.2551 9.63596C36.2477 11.149 36.2514 12.662 36.2514 14.1744V14.5039H33.4297V4.77438H33.4302Z" fill="#62626A"/>
<path d="M88.8654 13.4671C87.3856 14.8693 85.7047 14.9553 83.9642 14.3382C82.1925 13.71 81.2602 12.3427 81.0005 10.5097C80.8305 9.30821 80.9498 8.13306 81.5432 7.05559C82.4174 5.46815 83.8127 4.69792 85.596 4.63404C86.9638 4.58494 87.4426 4.77499 88.7096 5.71151V4.78925H91.5488V14.505H88.8654V13.4677V13.4671ZM88.7904 9.65874C88.7635 9.41484 88.7571 9.16672 88.7054 8.92811C88.4932 7.94935 87.9167 7.27837 86.9364 7.04028C85.9465 6.79955 85.0628 7.035 84.3955 7.84377C83.838 8.52003 83.7414 9.3251 83.8549 10.1608C84.1495 12.3274 86.3942 12.7961 87.6601 11.9494C88.4737 11.4051 88.7761 10.6064 88.7904 9.65927V9.65874Z" fill="#62626A"/>
<path d="M51.9548 4.76378C52.9146 4.76378 53.8284 4.75797 54.7417 4.77381C54.8225 4.77539 54.936 4.89998 54.975 4.99237C55.7379 6.81526 56.4912 8.64132 57.2472 10.4669C57.3628 10.7461 57.481 11.0249 57.6183 11.3527C57.963 10.527 58.2872 9.75311 58.6097 8.97866C59.1598 7.65728 59.7136 6.33749 60.2547 5.01243C60.3344 4.8171 60.4347 4.75427 60.6438 4.7585C61.3649 4.77275 62.0861 4.76378 62.8077 4.76431C62.8922 4.76431 62.9761 4.77117 63.0965 4.77645C62.8721 5.307 62.6631 5.80641 62.4508 6.30476C61.1754 9.30227 59.9047 12.3024 58.6187 15.2952C58.4292 15.7365 58.2011 16.1699 57.9324 16.5674C57.0793 17.8286 55.8244 18.2515 54.3648 18.1834C53.7101 18.1528 53.0788 17.997 52.4954 17.6872C52.2959 17.581 52.1121 17.4459 51.9062 17.315C52.2605 16.6255 52.5999 15.964 52.9146 15.3511C53.3501 15.5248 53.7545 15.7629 54.1879 15.8437C55.1978 16.0327 55.7299 15.6246 56.1296 14.6828C56.1628 14.6052 56.1211 14.4795 56.0826 14.3898C54.7438 11.2661 53.4018 8.14455 52.0599 5.02246C52.0298 4.95172 52.0018 4.88045 51.9548 4.76431V4.76378Z" fill="#62626A"/>
<path d="M65.7695 4.78171H68.4756V5.98747C69.3826 4.94009 70.5213 4.63337 71.8026 4.62598V7.21752C71.5344 7.21752 71.2741 7.20748 71.0144 7.2191C70.0398 7.26292 69.2321 7.61345 68.8462 8.56898C68.6926 8.95014 68.6171 9.38619 68.6092 9.79955C68.5817 11.2682 68.5986 12.7379 68.5986 14.2071V14.5065H65.7701V4.78171H65.7695Z" fill="#62626A"/>
<path d="M77.573 14.5099H74.7734V4.78516H77.573V14.5099Z" fill="#62626A"/>
<path d="M76.242 3.42606C75.192 3.43081 74.4582 2.81526 74.4106 1.93206C74.3631 1.05097 75.0156 0.335114 75.9569 0.267541C76.2246 0.248536 76.5059 0.269125 76.7657 0.332474C77.5549 0.525164 77.9947 1.16236 77.9355 1.97588C77.8812 2.72077 77.2545 3.32998 76.4542 3.41339C76.3671 3.42237 76.2789 3.42395 76.2414 3.42606H76.242Z" fill="#62626A"/>
</g>
<defs>
<clipPath id="clip0_2_4100">
<rect width="91.5496" height="17.9291" fill="white" transform="translate(0 0.260742)"/>
</clipPath>
</defs>
</svg>
