<svg width="33" height="39" viewBox="0 0 33 39" fill="none" xmlns="http://www.w3.org/2000/svg">
<path d="M11.8069 0.318463C11.8886 0.342503 11.8996 0.411501 11.9284 0.463952C12.2461 1.04195 12.5625 1.62068 12.8787 2.19962C13.4676 3.2783 14.0564 4.35698 14.6443 5.43618C14.7688 5.66461 14.7713 5.60477 14.6425 5.82675C14.259 6.48738 13.8746 7.14759 13.4906 7.80802C13.4662 7.85006 13.4448 7.89419 13.4171 7.93394C13.3809 7.98598 13.3806 8.03312 13.4139 8.08765C13.4826 8.20026 13.5464 8.31577 13.6128 8.42983C17.7393 15.5259 21.8658 22.6219 25.9923 29.7179C26.0377 29.796 26.0816 29.8749 26.1279 29.9524C26.1517 29.9921 26.1541 30.0285 26.1289 30.0685C26.0994 30.1156 26.0734 30.1647 26.0454 30.2128C24.5131 32.8484 22.9807 35.4841 21.4478 38.1195C21.4102 38.184 21.3819 38.2559 21.3223 38.3069C21.2559 38.2621 21.2363 38.1925 21.2036 38.1327C20.4676 36.7862 19.7323 35.4395 18.9968 34.0927C18.8204 33.7698 18.6487 33.444 18.4646 33.1255C18.4033 33.0195 18.4129 32.9417 18.4725 32.8407C18.8679 32.171 19.2585 31.4984 19.6479 30.825C19.7977 30.5659 19.7978 30.6487 19.643 30.3824C16.7216 25.3571 13.7993 20.3324 10.8773 15.3076C9.6205 13.1464 8.36331 10.9854 7.10811 8.82321C6.95921 8.56679 6.95921 8.6515 7.10539 8.39997C8.63347 5.76982 10.163 3.14061 11.6924 0.5112C11.7303 0.446052 11.7693 0.381529 11.807 0.318359L11.8069 0.318463Z" fill="#62626A"/>
<path d="M29.278 24.6187C29.208 24.5769 29.185 24.5001 29.1475 24.4357C28.4381 23.2178 27.7302 21.999 27.0216 20.7806C25.0949 17.4674 23.1681 14.1544 21.2414 10.8413C20.2744 9.17882 19.3075 7.51621 18.3409 5.8536C18.3096 5.79969 18.2786 5.74537 18.2516 5.68927C18.2373 5.65972 18.2516 5.6337 18.2855 5.63099C18.341 5.62662 18.3969 5.62631 18.4526 5.62631C20.3786 5.6261 22.3046 5.62579 24.2305 5.62662C24.4626 5.62662 24.4194 5.60019 24.5371 5.8025C26.7577 9.61945 28.9778 13.4366 31.1981 17.2537C31.5647 17.8838 31.9282 18.5158 32.3011 19.1423C32.371 19.2598 32.3693 19.3449 32.3007 19.4622C31.3232 21.1347 30.351 22.8102 29.377 24.4846C29.3494 24.5321 29.3294 24.5859 29.278 24.619V24.6187Z" fill="#62626A"/>
<path d="M3.87575 14.0055C3.93805 14.0484 3.96234 14.1235 3.99962 14.1875C4.76162 15.4956 5.52237 16.8045 6.28342 18.1132C9.11456 22.9819 11.9456 27.8506 14.7769 32.7192C14.9513 33.019 14.9577 32.9942 14.6139 32.9942C12.7294 32.9943 10.845 32.9948 8.96042 32.9936C8.66147 32.9934 8.72932 33.0264 8.58838 32.7843C6.014 28.3607 3.44077 23.9365 0.867329 19.5124C0.860313 19.5004 0.854135 19.4879 0.847015 19.476C0.739683 19.2948 0.752668 19.3248 0.848586 19.1596C1.76598 17.5803 2.684 16.0013 3.60182 14.4223C3.6681 14.3082 3.73355 14.1935 3.80109 14.0802C3.81774 14.0523 3.82831 14.0165 3.87554 14.0054L3.87575 14.0055Z" fill="#62626A"/>
</svg>
