<svg width="103" height="24" viewBox="0 0 103 24" fill="none" xmlns="http://www.w3.org/2000/svg">
<g clip-path="url(#clip0_2_4088)">
<path d="M79.7491 8.90813C79.7491 8.11527 79.3468 7.71884 78.5421 7.71884C77.6985 7.71884 77.6935 7.718 77.4639 8.54058C77.4008 8.76767 77.3175 8.78617 77.1586 8.62721C76.2855 7.7508 75.2131 7.47493 74.007 7.54642C72.4939 7.63557 71.329 8.32526 70.5292 9.5852C69.7158 10.8679 69.5737 12.2767 69.9034 13.7494C70.4249 16.0809 72.5965 17.594 74.9465 17.2533C75.6951 17.1448 76.3907 16.9169 76.9744 16.4148C77.1947 16.2255 77.2889 16.292 77.2873 16.5662C77.2847 16.9018 77.2889 17.2382 77.2873 17.5746C77.278 18.7631 76.6548 19.5806 75.558 19.8456C74.2804 20.1534 73.1844 19.7177 72.652 18.6756C72.5578 18.4914 72.4485 18.393 72.2365 18.3955C71.6343 18.4023 71.0313 18.4023 70.4291 18.3964C70.1195 18.393 70.0388 18.5402 70.0977 18.8228C70.228 19.4536 70.4997 20.0104 70.9211 20.4982C71.8656 21.5933 73.1222 22.0097 74.5041 22.0929C75.7001 22.1644 76.8667 21.9634 77.8878 21.304C79.1982 20.4579 79.7398 19.1786 79.7466 17.6512C79.7525 16.1381 79.7474 14.625 79.7483 13.1119C79.7491 11.7106 79.7491 10.3094 79.7491 8.90813ZM74.7119 15.0934C73.2501 15.0665 72.2466 13.9555 72.25 12.3667C72.2542 10.814 73.2997 9.73912 74.8002 9.74585C76.2325 9.75174 77.2906 10.8847 77.2873 12.407C77.283 13.9428 76.1552 15.1195 74.7119 15.0934Z" fill="#62626A"/>
<path d="M34.7795 8.43633C34.3186 8.85435 34.2757 8.83921 34.1932 8.19494C34.1445 7.81225 33.9737 7.69366 33.6171 7.71553C33.2958 7.73487 32.9728 7.71889 32.6499 7.71889C32.1985 7.71945 31.9725 7.93953 31.9719 8.37914C31.9711 10.5088 31.9719 12.6384 31.9719 14.768C31.9711 15.7622 31.9711 16.7572 31.9719 17.7522C31.9719 18.9709 31.9804 20.1896 31.9669 21.4083C31.9627 21.7532 32.0821 21.8878 32.4295 21.8751C32.9611 21.8558 33.4943 21.8625 34.0267 21.8718C34.3144 21.8768 34.4313 21.7498 34.4245 21.4672C34.4153 21.0896 34.4237 20.7111 34.4237 20.3326C34.4237 19.3098 34.422 18.2871 34.4262 17.2643C34.4262 17.1441 34.3707 16.98 34.5002 16.917C34.6415 16.8472 34.7097 17.0154 34.7971 17.0936C34.9637 17.2433 35.1134 17.4082 35.3119 17.5217C37.1152 18.552 39.5619 18.1096 40.8849 16.5099C42.52 14.5333 42.5721 11.3263 41.0296 9.27489C39.4483 7.17303 36.2968 7.06032 34.7795 8.43633ZM38.9235 14.9421C38.2599 15.7134 37.4003 15.959 36.4171 15.7024C35.4103 15.4392 34.8098 14.7352 34.5751 13.7646C34.2942 12.5988 34.4027 11.4785 35.3043 10.5626C35.8367 10.0209 36.3069 9.82917 37.0672 9.82917C38.1648 9.83001 39.1447 10.5197 39.4761 11.5828C39.8495 12.7847 39.7814 13.9446 38.9235 14.9421Z" fill="#62626A"/>
<path d="M69.1738 7.71637C68.5716 7.7273 67.9686 7.73067 67.3664 7.71469C67.0737 7.70712 66.9458 7.83833 66.8583 8.10075C66.5387 9.05706 66.1939 10.005 65.8718 10.9604C65.4874 12.1018 65.1181 13.249 64.7363 14.392C64.6867 14.5401 64.6808 14.7537 64.4461 14.747C64.2417 14.7402 64.1761 14.5645 64.1131 14.4105C63.965 14.048 63.8212 13.683 63.6849 13.3155C63.0558 11.6232 62.4225 9.93262 61.8093 8.23448C61.6764 7.86608 61.4914 7.68777 61.0784 7.71216C60.5334 7.74413 59.985 7.73824 59.4392 7.71385C59.0363 7.69618 59.0026 7.82655 59.1381 8.17308C60.0372 10.481 60.9195 12.7965 61.8076 15.1086C62.1988 16.1272 62.6109 17.139 62.9759 18.1677C63.2459 18.928 62.7522 19.5874 61.9574 19.5908C61.467 19.5933 60.9767 19.5941 60.4855 19.5924C60.2828 19.5924 60.1802 19.6572 60.1902 19.8894C60.2121 20.4066 60.218 20.9256 60.2113 21.4437C60.2071 21.7439 60.3189 21.8827 60.6293 21.8735C61.0212 21.8608 61.414 21.8701 61.8068 21.8709C62.0869 21.8709 62.3678 21.8726 62.6479 21.8709C64.0172 21.8642 64.6942 21.4285 65.1711 20.145C65.7952 18.4662 66.3722 16.7698 66.9744 15.0834C67.4538 13.7394 67.9442 12.3995 68.4244 11.0555C68.7727 10.0807 69.1074 9.10079 69.4581 8.12682C69.5633 7.83412 69.4968 7.71216 69.1738 7.71805V7.71637Z" fill="#62626A"/>
<path d="M86.6083 7.54906C83.7528 7.42038 81.4323 9.73335 81.4239 12.7562C81.4154 15.8413 83.5947 18.0786 86.5973 18.0769C89.5874 18.0752 91.7658 15.8447 91.7633 12.7882C91.7599 9.75018 89.595 7.54991 86.6083 7.54906ZM87.5612 15.594C86.2239 16.1046 84.7201 15.4906 84.1767 14.1642C83.7545 13.1347 83.7814 12.1027 84.3273 11.1296C84.895 10.116 86.0961 9.60887 87.16 9.87129C88.3275 10.1589 89.1652 11.1657 89.2367 12.3735C89.2459 12.5266 89.2383 12.6813 89.2383 12.768C89.3536 14.1802 88.3619 15.2879 87.5612 15.594Z" fill="#62626A"/>
<path d="M48.531 7.54887C45.7958 7.43112 43.3441 9.6684 43.3853 12.7257C43.4273 15.8655 45.5023 18.0717 48.5142 18.0733C51.5169 18.0759 53.6759 15.8932 53.6793 12.8544C53.6826 9.71802 51.5791 7.54971 48.531 7.54887ZM50.5244 14.8352C49.8103 15.7133 48.7472 15.9891 47.6798 15.6359C46.6966 15.3104 45.938 14.3103 45.8581 13.2279C45.848 13.0891 45.8564 12.9478 45.8564 12.8082C45.837 11.9132 46.0852 11.1083 46.7757 10.5103C48.3569 9.13768 50.6405 9.88961 51.1089 11.9351C51.3486 12.9806 51.2183 13.9823 50.5244 14.8352Z" fill="#62626A"/>
<path d="M102.78 11.4213C102.773 10.6054 102.51 9.85015 102.065 9.16887C100.73 7.12 97.6136 7.14271 96.1686 8.38667C95.8095 8.69619 95.7346 8.67768 95.6665 8.20584C95.6093 7.80969 95.4125 7.69277 95.0433 7.71464C94.6799 7.73567 94.314 7.73735 93.9507 7.71464C93.573 7.69109 93.4326 7.82482 93.4376 8.21677C93.4553 9.74333 93.4452 11.2707 93.4452 12.7981C93.4452 14.3533 93.4511 15.9085 93.4401 17.4636C93.4376 17.7883 93.5495 17.9187 93.8792 17.9069C94.3553 17.8892 94.8321 17.9035 95.3082 17.9027C95.8902 17.901 95.8936 17.8993 95.8944 17.3164C95.8961 15.5653 95.8852 13.8142 95.8995 12.063C95.9087 10.9713 96.6893 10.11 97.8197 9.89725C98.7928 9.71305 99.7643 10.2488 100.167 11.1917C100.319 11.5475 100.341 11.9243 100.341 12.3044C100.341 14.0135 100.347 15.7226 100.336 17.4317C100.335 17.7622 100.424 17.9229 100.785 17.9077C101.303 17.8858 101.822 17.8917 102.34 17.906C102.656 17.9153 102.797 17.8118 102.796 17.4746C102.784 15.4568 102.797 13.4399 102.78 11.4221V11.4213Z" fill="#62626A"/>
<path d="M24.8448 4.47002C22.8557 3.31437 20.8614 2.1663 18.8672 1.01906C18.5468 0.834864 18.1876 0.786082 17.8664 0.966914C16.9799 1.46483 16.1119 1.99388 15.2363 2.5103C14.142 3.06541 13.1168 3.74248 12.0368 4.32283C11.4724 4.62646 11.2622 5.03102 11.2664 5.67193C11.2891 9.56782 11.274 13.4637 11.2849 17.3588C11.2857 17.6649 11.1957 17.8365 10.9257 17.9837C10.2773 18.3361 9.64814 18.7247 9.0106 19.099C8.45465 19.4152 7.89953 19.734 7.34105 20.0477C7.18882 20.1335 7.06265 20.2235 6.8507 20.0982C5.61683 19.3656 4.37119 18.654 3.12387 17.945C2.93462 17.8373 2.84967 17.7229 2.8522 17.4908C2.86481 16.0786 2.86481 14.6656 2.85304 13.2526C2.85052 12.9893 2.95229 12.8573 3.17517 12.7353C3.67393 12.4611 4.15335 12.1525 4.64034 11.8581C5.30816 11.4872 5.99364 11.1432 6.63707 10.7344C6.96088 10.5283 7.18461 10.5628 7.48824 10.7495C8.24185 11.2121 9.01817 11.6377 9.83738 12.1079C9.83738 11.0851 9.82645 10.1364 9.84411 9.18849C9.84916 8.91261 9.76 8.75449 9.5203 8.62497C8.8836 8.28012 8.25363 7.92182 7.63207 7.5509C7.25947 7.32886 6.88603 7.31288 6.52352 7.51726C5.66309 8.00341 4.81528 8.51142 3.96243 9.01018C2.87491 9.63511 1.79664 10.2777 0.693981 10.8757C0.185126 11.1507 -0.00327604 11.5267 0.000929367 12.0911C0.0185921 14.2762 0.0202743 16.4622 8.82853e-05 18.6473C-0.00495821 19.2058 0.206153 19.5649 0.682206 19.8366C2.62006 20.9418 4.54866 22.0638 6.48063 23.1799C6.8507 23.3935 7.23003 23.3977 7.59338 23.1891C8.54801 22.6416 9.49422 22.0789 10.443 21.5221C11.4119 20.972 12.3741 20.4085 13.3531 19.8761C13.8939 19.5817 14.1076 19.1671 14.105 18.5506C14.0882 14.6707 14.1008 10.7908 14.0891 6.91C14.0882 6.56011 14.1858 6.35993 14.5012 6.18835C15.2968 5.75688 16.0681 5.27998 16.8495 4.82159C17.2389 4.60543 17.6435 4.41199 18.0127 4.16555C18.2373 4.01584 18.3903 4.03098 18.6124 4.16218C19.8017 4.86281 20.9985 5.55165 22.2013 6.2304C22.441 6.36582 22.5226 6.52647 22.5201 6.79814C22.5074 8.17078 22.5058 9.54427 22.5209 10.9169C22.5243 11.1945 22.4385 11.3459 22.192 11.4695C21.8228 11.6545 21.4746 11.8833 21.118 12.0927C20.3105 12.5579 19.4955 13.0104 18.699 13.4948C18.4131 13.6689 18.1927 13.6664 17.9109 13.4931C17.2229 13.0709 16.5156 12.6807 15.8192 12.2711C15.6131 12.1499 15.5281 12.176 15.5307 12.4342C15.5382 13.3426 15.5374 14.2518 15.5307 15.161C15.529 15.3418 15.6106 15.4335 15.7578 15.5176C16.4483 15.9096 17.1287 16.3175 17.8209 16.7052C18.1313 16.8793 18.4745 16.8835 18.7806 16.7094C20.0254 16.0004 21.2618 15.2762 22.5016 14.5571C23.2762 14.1172 24.0525 13.679 24.8263 13.2383C25.1854 13.0331 25.3629 12.7168 25.3629 12.3064C25.3646 10.0085 25.3629 7.71155 25.3646 5.41371C25.3646 5.00074 25.1964 4.67272 24.844 4.46834L24.8448 4.47002Z" fill="#62626A"/>
<path d="M57.901 10.9324C57.896 10.9324 57.8909 10.9324 57.8859 10.9324C57.8859 8.73465 57.8808 6.53691 57.8909 4.34C57.8926 3.98506 57.7833 3.82694 57.4098 3.84376C56.9346 3.86479 56.4577 3.85385 55.9825 3.8446C55.4392 3.83367 55.4375 3.82778 55.4375 4.37532C55.4375 8.68671 55.4375 12.9973 55.4375 17.3086C55.4375 17.3928 55.4417 17.4769 55.4392 17.561C55.4325 17.7839 55.5309 17.9008 55.7622 17.8999C56.3778 17.8982 56.9943 17.8966 57.61 17.9016C57.8472 17.9033 57.9086 17.8049 57.9078 17.5677C57.8977 15.3565 57.9019 13.1453 57.9019 10.9341L57.901 10.9324Z" fill="#62626A"/>
</g>
<defs>
<clipPath id="clip0_2_4088">
<rect width="102.795" height="22.4889" fill="white" transform="translate(0 0.854004)"/>
</clipPath>
</defs>
</svg>
