<svg width="117" height="21" viewBox="0 0 117 21" fill="none" xmlns="http://www.w3.org/2000/svg">
<g clip-path="url(#clip0_2_4097)">
<path d="M17.9775 3.0152V5.7188L20.4257 7.07644V13.0093L17.9775 14.3656V17.065L12.6478 20.0226L10.9718 19.0926V10.9804L2.90062 6.50126L0.915052 7.60213V12.472L2.89875 13.5728L5.03746 12.3931L5.04492 12.3142C5.09441 11.8515 5.48284 11.5009 5.95017 11.5009C6.45532 11.5009 6.86569 11.9066 6.86569 12.4076C6.86569 12.9085 6.45532 13.3128 5.95017 13.3128C5.81572 13.3128 5.68313 13.2806 5.55287 13.2194L5.48284 13.1844L3.36328 14.3539V16.5351L7.77794 18.9847L8.53846 18.5627V17.741L4.276 15.3791V14.9048L4.78395 14.6247L8.53846 16.7036V10.6746L9.45398 11.1811V19.0935L7.77794 20.0235L2.44823 17.0659V14.3623L0 13.0033V7.07037L2.44823 5.71413V3.01473L7.77794 0.0576172L9.45398 0.987609V9.09982L17.5251 13.5784L19.5107 12.4776V7.60773L17.527 6.50687L15.3883 7.68663L15.3794 7.76553C15.3313 8.22866 14.9401 8.58021 14.4742 8.57881C13.9704 8.57881 13.5605 8.1717 13.5605 7.67216C13.5605 7.17261 13.9709 6.76691 14.4742 6.76691C14.6086 6.76691 14.7426 6.79912 14.8715 6.86028L14.9429 6.8953L17.0625 5.7258V3.54462L12.6478 1.09499L11.8873 1.51703V2.33871L16.1497 4.70057V5.17491L15.6404 5.45502L15.0316 5.11795L15.0288 5.11935L11.8873 3.37655V9.38975L10.9718 8.8818V0.987609L12.6478 0.0576172L17.9775 3.0152ZM3.36328 5.20618L8.53846 2.33918V1.5175L7.77794 1.09545L3.36328 3.54509V5.20618ZM8.53846 8.59141V3.37701L3.83762 5.98118L8.53846 8.59141ZM11.8873 16.7022L16.5881 14.0981L11.8873 11.4878V16.7022ZM12.6478 18.9838L17.0625 16.5342V14.8731L11.8873 17.7401V18.5617L12.6478 18.9838Z" fill="#62626A"/>
<path d="M84.7225 9.40204C85.1501 9.59625 85.5344 9.85023 85.87 10.164C86.1604 10.4324 86.4247 10.79 86.6614 11.2382C86.8995 11.6864 87.0176 12.2308 87.0176 12.8718C87.0176 13.4091 86.9023 13.9213 86.673 14.4059C86.4438 14.8905 86.1184 15.3153 85.6978 15.6818C85.2771 16.0469 84.7794 16.3415 84.2057 16.5665C83.6333 16.7897 83.0026 16.9022 82.3139 16.9022H76.1187V2.79919H82.0852C82.7112 2.79919 83.2925 2.90284 83.828 3.11153C84.3639 3.32161 84.8266 3.605 85.2164 3.96262C85.6063 4.32023 85.9083 4.73481 86.1231 5.20494C86.3378 5.67507 86.4443 6.17882 86.4443 6.71571C86.4443 7.19471 86.3523 7.60462 86.1684 7.94776C85.9858 8.29091 85.786 8.56682 85.5726 8.77551C85.3205 9.02388 85.0348 9.23444 84.7229 9.40157L84.7225 9.40204ZM78.8732 8.50706H81.8555C82.3751 8.50706 82.8102 8.33899 83.1622 8.00332C83.5142 7.66764 83.6907 7.27641 83.6907 6.82822C83.6907 6.38003 83.5142 5.9888 83.1622 5.65313C82.8102 5.31745 82.3756 5.14938 81.8555 5.14938H78.8732V8.50706ZM82.0847 14.5506C82.7271 14.5506 83.2509 14.3578 83.6557 13.9698C84.0614 13.5814 84.2645 13.1043 84.2645 12.5361C84.2645 11.9679 84.0614 11.4922 83.6557 11.1042C83.2514 10.7158 82.7271 10.5216 82.0847 10.5216H78.8732V14.5506H82.0847ZM44.1572 10.6864L42.2169 16.8074H39.9368L36.5151 6.56818H39.1384L41.1908 13.1346L43.3584 6.56818H44.9555L47.1218 13.1346L49.176 6.56818H51.7993L48.3776 16.8074H46.0961L44.1577 10.6864H44.1572ZM52.8254 16.8074V6.56818H55.4502V16.8074H52.8254ZM98.5794 11.6878C98.5794 12.4147 98.438 13.0949 98.1574 13.7243C97.8759 14.3564 97.4945 14.9082 97.0159 15.3826C96.5369 15.8583 95.9823 16.2336 95.3502 16.5068C94.7194 16.7827 94.0467 16.9199 93.3314 16.9199C92.6162 16.9199 91.9444 16.7827 91.3127 16.5068C90.682 16.2336 90.1273 15.8588 89.6483 15.3826C89.1679 14.9082 88.7884 14.3564 88.5069 13.7243C88.2254 13.0949 88.0848 12.4147 88.0848 11.6878C88.0848 10.9609 88.2249 10.2821 88.5069 9.65135C88.7889 9.02061 89.1679 8.46878 89.6483 7.99305C90.1273 7.51871 90.682 7.14336 91.3127 6.86884C91.9449 6.59433 92.6162 6.45707 93.3314 6.45707C94.0467 6.45707 94.7199 6.59433 95.3502 6.86884C95.9823 7.14336 96.5369 7.51825 97.0159 7.99305C97.4949 8.46878 97.8759 9.02061 98.1574 9.65135C98.4375 10.2821 98.5794 10.9609 98.5794 11.6878ZM90.7081 11.6878C90.7081 12.5347 90.9593 13.2088 91.4612 13.714C91.9631 14.2191 92.5868 14.4703 93.3314 14.4703C94.0761 14.4703 94.7007 14.2191 95.2031 13.714C95.7054 13.2088 95.9561 12.5342 95.9561 11.6878C95.9561 10.8414 95.705 10.1668 95.2031 9.66302C94.7007 9.15787 94.0775 8.9053 93.3314 8.9053C92.5854 8.9053 91.9635 9.15787 91.4612 9.66302C90.9588 10.1668 90.7081 10.8428 90.7081 11.6878ZM104.849 6.45707C104.971 6.45707 105.077 6.46454 105.168 6.47901C105.26 6.49348 105.343 6.50982 105.419 6.5243C105.495 6.53877 105.571 6.55371 105.648 6.56818V9.23957C105.571 9.2251 105.488 9.21016 105.397 9.19569C105.32 9.17981 105.225 9.16487 105.111 9.1504C104.997 9.13593 104.871 9.12846 104.734 9.12846C104.096 9.12846 103.575 9.33294 103.172 9.74005C102.769 10.149 102.567 10.6859 102.567 11.3531V16.807H99.9427V6.56771H101.883L102.339 7.68165C102.521 7.45849 102.742 7.2582 103.002 7.08033C103.213 6.91693 103.476 6.7722 103.788 6.64521C104.099 6.51963 104.453 6.45707 104.849 6.45707ZM35.2597 5.3548C35.4203 5.73576 35.5212 6.14007 35.5693 6.56771H32.9184C32.8353 6.20263 32.6672 5.89777 32.4091 5.65546C32.0281 5.29925 31.4968 5.12137 30.8119 5.12137C30.127 5.12137 29.5943 5.28477 29.2148 5.61064C28.8338 5.93745 28.6438 6.29367 28.6438 6.67929C28.6438 7.09527 28.8263 7.41507 29.1914 7.63683C29.5565 7.85999 30.0131 8.06028 30.5607 8.23815C31.1084 8.41603 31.705 8.60184 32.3521 8.79418C32.9973 8.987 33.5944 9.24657 34.1421 9.57385C34.6911 9.89925 35.1463 10.3269 35.5114 10.8526C35.8764 11.3797 36.059 12.0674 36.059 12.9124C36.059 13.4175 35.9334 13.9063 35.6822 14.3811C35.4311 14.8569 35.0776 15.2831 34.6225 15.6613C34.1654 16.0394 33.6136 16.3443 32.9684 16.5735C32.3218 16.8042 31.6032 16.9195 30.8124 16.9195C30.0215 16.9195 29.2867 16.807 28.6564 16.5852C28.0257 16.362 27.4883 16.0478 27.0476 15.6393C26.6069 15.2308 26.2679 14.749 26.0331 14.1925C25.7964 13.6365 25.6797 13.023 25.6797 12.3559H28.4169C28.4169 12.9791 28.6303 13.4871 29.0546 13.8797C29.4809 14.2738 30.0663 14.4694 30.8124 14.4694C31.6182 14.4694 32.2181 14.3032 32.614 13.9684C33.0094 13.6356 33.2083 13.2457 33.2083 12.8003C33.2083 12.3549 33.0258 12.0356 32.6607 11.7975C32.2956 11.5608 31.839 11.3493 31.2914 11.164C30.7438 10.9786 30.1471 10.7961 29.5 10.6182C28.853 10.4403 28.2563 10.1962 27.7087 9.88384C27.161 9.57291 26.7059 9.16861 26.3408 8.67093C25.9757 8.17466 25.7931 7.51778 25.7931 6.7017C25.7931 6.16761 25.9099 5.655 26.1466 5.16619C26.3814 4.67552 26.7175 4.24927 27.1508 3.88605C27.584 3.52283 28.1083 3.22918 28.7246 3.00555C29.3408 2.78379 30.0355 2.67267 30.8119 2.67267C31.5271 2.67267 32.177 2.78379 32.7625 3.00555C33.3479 3.22871 33.8531 3.53964 34.2793 3.94114C34.7056 4.34124 35.0324 4.81277 35.2602 5.35434L35.2597 5.3548ZM74.0999 12.3227C74.3656 12.7009 74.4986 13.1944 74.4986 13.8032C74.4986 14.2191 74.4081 14.615 74.2255 14.9946C74.043 15.3728 73.7848 15.7028 73.4505 15.9843C73.1149 16.2659 72.7092 16.4923 72.2302 16.6632C71.7498 16.834 71.2143 16.9185 70.6213 16.9185C69.252 16.9185 68.2142 16.6151 67.5074 16.0077C67.1166 15.6729 66.8061 15.2542 66.5993 14.7831L68.7964 13.5819C68.8561 13.9222 69.0242 14.2112 69.2973 14.4488C69.5718 14.6869 69.9369 14.805 70.3935 14.805C70.8501 14.805 71.2096 14.6897 71.4766 14.4605C71.7423 14.2299 71.8753 13.9745 71.8753 13.6925C71.8753 13.4544 71.7423 13.2691 71.4766 13.1351C71.2096 13.002 70.8795 12.8797 70.4841 12.7686C70.0886 12.6575 69.6591 12.5422 69.1951 12.4226C68.731 12.3045 68.3015 12.1309 67.9061 11.9002C67.5106 11.671 67.1792 11.3731 66.9135 11.0099C66.6479 10.6467 66.5148 10.1691 66.5148 9.57478C66.5148 9.1588 66.6026 8.7615 66.7763 8.38334C66.9513 8.00519 67.2067 7.67511 67.541 7.39219C67.8753 7.11068 68.2707 6.88425 68.7277 6.71338C69.1834 6.5439 69.7002 6.458 70.2782 6.458C71.5411 6.458 72.5103 6.75446 73.1877 7.34831C73.5411 7.65784 73.817 8.00939 74.0182 8.40062L71.8753 9.57431C71.8142 9.35115 71.6503 9.12893 71.3847 8.90576C71.119 8.684 70.7875 8.57149 70.3935 8.57149C69.9995 8.57149 69.6899 8.66953 69.4696 8.86188C69.2478 9.05469 69.1381 9.29233 69.1381 9.57431C69.1381 9.81101 69.2712 9.99636 69.5368 10.1303C69.8039 10.2634 70.1339 10.3857 70.5294 10.4982C70.9248 10.6093 71.3543 10.7275 71.8184 10.8531C72.2824 10.98 72.712 11.1626 73.1074 11.3988C73.5028 11.6369 73.8343 11.9446 74.0999 12.3227ZM64.8607 12.3227C65.1264 12.7009 65.2594 13.1944 65.2594 13.8032C65.2594 14.2191 65.1688 14.615 64.9863 14.9946C64.8038 15.3728 64.5456 15.7028 64.2094 15.9843C63.8752 16.2659 63.4695 16.4923 62.9891 16.6632C62.5101 16.834 61.9746 16.9185 61.3817 16.9185C60.0123 16.9185 58.9745 16.6151 58.2663 16.0077C57.8676 15.6631 57.5669 15.2546 57.3596 14.7831L59.5553 13.5819C59.6164 13.9222 59.7845 14.2112 60.0576 14.4488C60.3321 14.6869 60.6972 14.805 61.1524 14.805C61.6076 14.805 61.9699 14.6897 62.2369 14.4605C62.5026 14.2299 62.6356 13.9745 62.6356 13.6925C62.6356 13.4544 62.5026 13.2691 62.2369 13.1351C61.9699 13.002 61.6398 12.8797 61.2444 12.7686C60.849 12.6575 60.418 12.5422 59.9554 12.4226C59.4913 12.3045 59.0618 12.1309 58.6664 11.9002C58.2709 11.671 57.9395 11.3731 57.6738 11.0099C57.4082 10.6467 57.2751 10.1691 57.2751 9.57478C57.2751 9.1588 57.361 8.7615 57.5366 8.38334C57.7121 8.00519 57.967 7.67511 58.3013 7.39219C58.6356 7.11068 59.031 6.88425 59.4881 6.71338C59.9437 6.5439 60.4605 6.458 61.0385 6.458C62.3014 6.458 63.2706 6.75446 63.948 7.34831C64.3014 7.65784 64.5773 8.00939 64.7785 8.40062L62.6356 9.57431C62.5745 9.35115 62.4106 9.12893 62.145 8.90576C61.8793 8.684 61.5479 8.57149 61.1524 8.57149C60.757 8.57149 60.4489 8.66953 60.2285 8.86188C60.0081 9.05423 59.8984 9.29233 59.8984 9.57431C59.8984 9.81101 60.0315 9.99636 60.2971 10.1303C60.5628 10.2634 60.8942 10.3857 61.2897 10.4982C61.6851 10.6093 62.1146 10.7275 62.5787 10.8531C63.0428 10.98 63.4723 11.1626 63.8677 11.3988C64.2631 11.6369 64.5932 11.9446 64.8603 12.3227H64.8607ZM114.778 6.56818H116.717V16.1403C116.717 17.476 116.279 18.5521 115.404 19.3682C114.53 20.1842 113.295 20.5928 111.698 20.5928C110.724 20.5928 109.937 20.4219 109.336 20.0801C108.735 19.7384 108.26 19.3532 107.911 18.9223C107.777 18.7575 107.659 18.5806 107.547 18.3999L109.644 17.2537C109.75 17.4452 109.895 17.6156 110.077 17.7645C110.245 17.8826 110.457 17.9951 110.717 18.0988C110.975 18.2024 111.302 18.2552 111.698 18.2552C112.442 18.2552 113.028 18.0581 113.454 17.6655C113.88 17.2715 114.094 16.7635 114.094 16.1398V15.3601C113.88 15.5688 113.637 15.7542 113.364 15.9162C113.12 16.0651 112.831 16.1949 112.497 16.306C112.161 16.4185 111.782 16.4741 111.356 16.4741C110.702 16.4741 110.081 16.3471 109.497 16.0945C108.91 15.8434 108.401 15.4946 107.967 15.0492C107.535 14.6038 107.192 14.0767 106.941 13.4684C106.69 12.8601 106.564 12.1925 106.564 11.4656C106.564 10.7387 106.69 10.0701 106.941 9.46133C107.192 8.85394 107.535 8.32685 107.967 7.88193C108.401 7.43655 108.91 7.0878 109.497 6.83523C110.081 6.58265 110.702 6.45707 111.356 6.45707C111.813 6.45707 112.223 6.51683 112.588 6.63494C112.953 6.75306 113.265 6.88004 113.523 7.0131C113.812 7.1765 114.078 7.36185 114.322 7.56914L114.779 6.56771L114.778 6.56818ZM54.1383 5.23249C53.7428 5.23249 53.3969 5.08776 53.1004 4.79877C52.804 4.50978 52.655 4.17271 52.655 3.78568C52.655 3.39865 52.804 3.06157 53.1004 2.77258C53.3969 2.48359 53.7428 2.33887 54.1383 2.33887C54.5337 2.33887 54.8796 2.48359 55.1761 2.77258C55.4726 3.06157 55.6215 3.40051 55.6215 3.78568C55.6215 4.17084 55.4726 4.50978 55.1761 4.79877C54.8796 5.08776 54.5337 5.23249 54.1383 5.23249ZM114.001 12.4675C114.139 12.1565 114.207 11.8223 114.207 11.466C114.207 11.1098 114.139 10.7756 114.001 10.4646C113.864 10.1523 113.682 9.88198 113.454 9.65135C113.224 9.42071 112.953 9.2363 112.655 9.10698C112.352 8.97253 112.032 8.9053 111.698 8.9053C111.364 8.9053 111.02 8.97253 110.717 9.10698C110.412 9.24004 110.146 9.42212 109.919 9.65135C109.689 9.88198 109.512 10.1523 109.381 10.4646C109.253 10.7756 109.188 11.1098 109.188 11.466C109.188 11.8223 109.253 12.1565 109.381 12.4675C109.511 12.7798 109.689 13.0501 109.919 13.2807C110.146 13.51 110.412 13.6925 110.717 13.8251C111.02 13.9596 111.348 14.0249 111.698 14.0249C112.048 14.0249 112.352 13.9591 112.655 13.8251C112.959 13.692 113.226 13.51 113.454 13.2807C113.682 13.0501 113.864 12.7798 114.001 12.4675Z" fill="#62626A"/>
</g>
<defs>
<clipPath id="clip0_2_4097">
<rect width="116.716" height="20.5354" fill="white" transform="translate(0 0.0576172)"/>
</clipPath>
</defs>
</svg>
