<svg width="88" height="36" viewBox="0 0 88 36" fill="none" xmlns="http://www.w3.org/2000/svg">
<path d="M14.9909 34.9506C14.9304 34.9285 8.8965 32.6645 5.544 30.3533C0.406826 26.8149 0.179688 21.9388 0.179688 12.1217V6.22793L15.0558 1.09961L29.9304 6.22645V12.1203C29.9304 21.9374 29.7033 26.8135 24.5661 30.3518C21.2121 32.663 15.1812 34.927 15.1207 34.9492L15.0573 34.9728L14.9938 34.9492L14.9909 34.9506Z" stroke="#031422" stroke-width="0.020649" stroke-miterlimit="1.19"/>
<path d="M15.0575 1.29316L29.7507 6.35806V12.1221C29.7507 21.8345 29.5502 26.7002 24.4646 30.2032C21.0914 32.5292 15.0575 34.7799 15.0575 34.7799C15.0575 34.7799 9.0236 32.5277 5.65044 30.2017C0.564897 26.6988 0.364307 21.833 0.364307 12.1206V6.35658L15.0575 1.29316ZM15.0575 0.908203L14.9395 0.949501L0.244838 6.01292L0 6.09699V12.1206C0 22.0026 0.231563 26.9112 5.44395 30.5011C8.81564 32.8256 14.6829 35.0277 14.9307 35.1191L15.0575 35.1663L15.1844 35.1191C15.4322 35.0262 21.2979 32.8256 24.6696 30.5011C29.882 26.9112 30.1136 22.0011 30.1136 12.1206V6.09699L29.8687 6.01292L15.1755 0.949501L15.0575 0.908203Z" fill="#62626A"/>
<path d="M5.96779 21.3535C5.04596 21.8078 3.82178 22.3462 2.46484 22.8211C2.70378 23.8535 3.03269 24.7754 3.48254 25.6102C4.49729 24.9656 5.39405 24.3137 6.08726 23.768C5.99139 22.9243 5.95304 22.119 5.96779 21.3521V21.3535Z" fill="#62626A"/>
<path d="M8.24214 13.7975C6.5268 13.1132 3.96043 11.886 1.82031 10.271V12.6383C1.82031 13.0807 1.82031 13.5099 1.82179 13.9303C3.82326 14.6855 5.87341 15.1589 7.32326 15.4082C7.60055 14.8315 7.91028 14.2946 8.24214 13.7961V13.7975Z" fill="#62626A"/>
<path d="M10.6569 11.0717C9.47108 9.85342 7.81474 7.92274 6.5463 5.7959L3.27344 6.92717C5.08317 9.2251 7.65839 11.2207 9.35456 12.3549C9.77491 11.88 10.2144 11.4537 10.6569 11.0732V11.0717Z" fill="#62626A"/>
<path d="M12.1551 9.95055C12.7599 9.56117 13.3454 9.25586 13.8749 9.02725C13.3838 7.69686 12.7967 5.78241 12.4442 3.75586L9.53125 4.76323C10.313 6.79863 11.3572 8.68211 12.1566 9.95055H12.1551Z" fill="#62626A"/>
<path d="M6.62139 17.1955C5.36771 17.2472 3.65237 17.2265 1.86328 17.02C1.89278 18.0657 1.94293 19.0333 2.02405 19.9315C3.60517 19.7501 5.0683 19.4507 6.15827 19.1749C6.26889 18.4772 6.4267 17.818 6.62139 17.1955Z" fill="#62626A"/>
<path d="M6.57042 26.4566C6.20611 26.8946 5.76658 27.3946 5.26953 27.9197C5.66186 28.2869 6.09549 28.638 6.58074 28.9728C6.8772 29.1778 7.19726 29.3828 7.53207 29.5834C7.12646 28.492 6.81083 27.4507 6.57042 26.4551V26.4566Z" fill="#62626A"/>
<path d="M20.5461 14.436C20.8396 14.675 21.6007 14.4522 21.6007 14.4522L21.0491 13.7974L19.8691 13.0098C19.8691 13.0098 20.2526 14.1956 20.5461 14.436Z" fill="#62626A"/>
<path d="M25.245 21.3255L24.3969 20.9966L23.6875 20.4258L24.0961 21.4125L25.245 21.3255Z" fill="#62626A"/>
<path d="M15.8799 3.13965C15.3917 4.7016 15.2383 6.62047 15.7884 8.50691L15.7752 8.50986C15.7752 8.50986 15.784 8.50986 15.7884 8.50986C15.9846 8.30632 17.492 6.73109 18.8445 5.24584C18.8445 5.24584 20.6277 7.29157 18.1351 9.39776C18.1351 9.39776 22.5805 12.5054 22.8681 12.6382C22.8681 12.6382 22.638 13.6043 22.8592 14.4302L26.3548 21.2075L24.5893 23.2871L22.0023 21.8284L23.2501 23.8284C23.2501 23.8284 21.8401 24.004 21.4109 23.7901C21.1675 22.5217 20.0451 20.4686 20.0451 20.4686L17.4123 19.4022C17.4123 19.4022 16.2649 17.9922 16.3445 15.9361C16.3445 15.9361 15.0333 21.324 18.5746 22.6677L23.5303 28.9715C28.1129 25.8063 28.2929 21.411 28.2929 12.6367V7.42873L15.8799 3.13965Z" fill="#62626A"/>
<path d="M63.3594 11.7506H64.9132V21.734H66.6852V23.2307H63.3594V11.7485V11.7506Z" fill="#62626A"/>
<path d="M67.793 11.7505H69.3468V23.2327H67.793V11.7505Z" fill="#62626A"/>
<path d="M75.6074 20.8877V11.7505H77.1612V20.8857C77.1612 21.5015 77.2632 21.7339 77.6119 21.7339C77.9606 21.7339 78.0482 21.5015 78.0482 20.8857V11.7505H79.5735V20.8877C79.5735 22.3518 78.8047 23.2347 77.5833 23.2347C76.3782 23.2347 75.6074 22.3518 75.6074 20.8877Z" fill="#62626A"/>
<path d="M80.6816 11.7505H82.2354V23.2327H80.6816V11.7505Z" fill="#62626A"/>
<path d="M83.3398 11.7505H85.3586C86.7084 11.7505 87.3915 12.5498 87.3915 14.1301V20.8531C87.3915 22.4334 86.7084 23.2327 85.3586 23.2327H83.3398V11.7505ZM85.2138 21.7339C85.7072 21.7339 85.8377 21.5341 85.8377 20.7348V14.2443C85.8377 13.445 85.7072 13.2452 85.2138 13.2452H84.8936V21.7319H85.2138V21.7339Z" fill="#62626A"/>
<path d="M73.873 23.8077C73.5977 23.8077 73.4672 23.6589 73.4672 23.3428V22.99C73.5936 22.9187 73.7119 22.833 73.8179 22.7331C74.085 22.4823 74.2767 22.1438 74.3868 21.7299C74.3868 21.7217 74.3909 21.7156 74.3929 21.7074C74.3929 21.7074 74.3929 21.7034 74.3929 21.7013C74.4623 21.4362 74.4969 21.1426 74.4969 20.8184V14.1628C74.4969 12.6477 73.7425 11.7505 72.4782 11.7505C71.9277 11.7505 71.4689 11.9238 71.1263 12.248C70.8592 12.4988 70.6675 12.8373 70.5574 13.2513C70.5574 13.2594 70.5533 13.2655 70.5513 13.2737C70.5513 13.2737 70.5513 13.2778 70.5513 13.2798C70.4819 13.5449 70.4473 13.8385 70.4473 14.1628V20.8184C70.4473 22.1295 71.0141 22.9798 71.9868 23.1838V23.5019C71.9868 24.7498 72.5088 25.333 73.614 25.333H74.499V23.8098H73.875L73.873 23.8077ZM71.999 14.1301C71.999 13.498 72.1153 13.2472 72.4782 13.2472C72.8412 13.2472 72.9431 13.496 72.9431 14.1301V20.8531C72.9431 21.4852 72.8269 21.736 72.4639 21.736C72.101 21.736 71.999 21.4872 71.999 20.8531V14.1301Z" fill="#62626A"/>
<path d="M41.6169 23.2326V13.2491H42.8363V11.7524H38.8438V13.2491H40.0631V23.2326H41.6169Z" fill="#62626A"/>
<path d="M45.4913 21.7339V18.243H47.0451V16.7463H45.4913V13.2472H47.4081V11.7505H43.9375V23.2327H47.4081V21.7339H45.4913Z" fill="#62626A"/>
<path d="M49.6123 11.7505L48.5234 23.2327H50.0201L50.1935 20.8041H51.0947L51.2844 23.2327H52.8525L51.7636 11.7505H49.6144H49.6123ZM50.2669 19.2891L50.5197 15.4657C50.5197 15.3006 50.5523 15.2353 50.6482 15.2353C50.7399 15.2353 50.7685 15.3026 50.7665 15.4678L51.0193 19.287H50.2648L50.2669 19.2891Z" fill="#62626A"/>
<path d="M57.5723 11.7505C57.5723 11.7505 57.0421 16.8707 57.0421 16.8809L57.0319 16.9849C57.0156 17.0522 56.983 17.0827 56.9218 17.0827C56.8606 17.0827 56.826 17.0562 56.8097 16.991L56.7954 16.8605L56.2673 11.7525H53.959V23.2347H55.2946V15.4637C55.2926 15.3087 55.317 15.2414 55.3966 15.2312H55.4435C55.4904 15.2394 55.5189 15.27 55.5332 15.3352L56.3264 23.2347H57.4744L58.2717 15.3087C58.288 15.2598 58.3125 15.2353 58.3533 15.2292H58.4002C58.4797 15.2394 58.5042 15.3087 58.5001 15.4617L58.5062 23.2327H60.0457V11.7505H57.5764H57.5723Z" fill="#62626A"/>
</svg>
