<svg width="79" height="28" viewBox="0 0 79 28" fill="none" xmlns="http://www.w3.org/2000/svg">
<g clip-path="url(#clip0_2_4141)">
<path d="M38.8006 6.46577H33.9674V19.546H32.7805V6.46577H27.9595V5.46237H38.8006V6.46577ZM43.2667 19.7542C42.3735 19.7542 41.5657 19.5338 40.8563 19.0933C40.1469 18.6528 39.5714 18.0411 39.1801 17.2578C38.7762 16.4748 38.5806 15.5938 38.5806 14.627V14.2109C38.5806 13.2075 38.7762 12.3021 39.1679 11.4944C39.5595 10.6867 40.0977 10.0505 40.7952 9.59778C41.4928 9.14507 42.2514 8.90024 43.0588 8.90024C44.3314 8.90024 45.3348 9.32853 46.0812 10.1973C46.8276 11.0661 47.1948 12.253 47.1948 13.7579V14.4063H39.7186V14.6267C39.7186 15.8136 40.0611 16.8048 40.7342 17.5878C41.4195 18.383 42.2761 18.7746 43.3039 18.7746C43.9279 18.7746 44.4664 18.6644 44.9435 18.4321C45.4206 18.2117 45.8489 17.8448 46.2406 17.3433L46.9625 17.894C46.1304 19.1297 44.8947 19.7539 43.2673 19.7539L43.2667 19.7542ZM43.0588 9.87986C42.19 9.87986 41.4558 10.1979 40.8563 10.8344C40.2568 11.4709 39.9017 12.3272 39.7674 13.4041H46.0446V13.2817C46.0079 12.2783 45.7265 11.4587 45.188 10.8222C44.6495 10.1857 43.9398 9.88017 43.0588 9.88017V9.87986ZM50.6208 18.5796H57.4239V19.5586H49.1891V18.702L55.5395 10.0877H49.3848V9.08433H56.9956V9.95312L50.6205 18.5796H50.6208ZM59.0882 14.1624C59.0882 13.159 59.2839 12.2536 59.6756 11.4459C60.0672 10.6381 60.6176 10.0142 61.3273 9.56146C62.0371 9.10875 62.8445 8.88835 63.7502 8.88835C65.1453 8.88835 66.2708 9.37768 67.1396 10.3567C68.0084 11.3357 68.4366 12.6327 68.4366 14.2479V14.4927C68.4366 15.5083 68.241 16.4137 67.8493 17.2215C67.4577 18.0292 66.9073 18.6532 66.1975 19.0937C65.4878 19.5342 64.6804 19.7546 63.7746 19.7546C62.3921 19.7546 61.2541 19.2652 60.3853 18.2862C59.5165 17.3072 59.0882 16.0102 59.0882 14.395V14.1624ZM60.2507 14.4805C60.2507 15.7287 60.581 16.7565 61.2174 17.564C61.8658 18.3717 62.7102 18.763 63.7624 18.763C64.8147 18.763 65.659 18.3592 66.3074 17.564C66.9558 16.7562 67.2742 15.704 67.2742 14.3825V14.1621C67.2742 13.3669 67.1274 12.6327 66.8337 11.9596C66.54 11.2987 66.124 10.785 65.5855 10.4177C65.047 10.0505 64.4352 9.86702 63.7499 9.86702C62.7221 9.86702 61.8777 10.2709 61.2171 11.0783C60.5688 11.886 60.2381 12.9505 60.2381 14.2598L60.2504 14.4802L60.2507 14.4805ZM77.0997 16.8909C77.0997 16.3157 76.8671 15.8508 76.4022 15.5083C75.9373 15.1658 75.252 14.8844 74.3099 14.6884C73.3679 14.4924 72.6582 14.2601 72.1441 14.0153C71.63 13.7582 71.2509 13.4524 71.0061 13.0854C70.7612 12.7185 70.6266 12.2777 70.6266 11.7517C70.6266 10.9196 70.9691 10.2468 71.6666 9.70829C72.352 9.1698 73.2452 8.90056 74.3218 8.90056C75.4843 8.90056 76.4263 9.19422 77.1361 9.76934C77.8458 10.3445 78.2005 11.103 78.2005 12.0329H77.0381C77.0381 11.4211 76.781 10.9071 76.2673 10.5035C75.7535 10.0999 75.1048 9.89175 74.3218 9.89175C73.5388 9.89175 72.9515 10.063 72.4863 10.3933C72.0214 10.7358 71.7887 11.1763 71.7887 11.7148C71.7887 12.2533 71.9844 12.6446 72.3639 12.9261C72.7433 13.2075 73.4527 13.4768 74.4684 13.7213C75.484 13.9658 76.2425 14.2106 76.7566 14.4799C77.2582 14.7491 77.6376 15.0794 77.8824 15.4589C78.1273 15.8383 78.2497 16.3032 78.2497 16.8414C78.2497 17.7224 77.895 18.4321 77.1852 18.9581C76.4755 19.4841 75.5456 19.7533 74.3954 19.7533C73.1719 19.7533 72.1807 19.4596 71.4343 18.8723C70.6758 18.285 70.2963 17.5386 70.2963 16.6332H71.4588C71.5076 17.3063 71.7891 17.8323 72.3153 18.2117C72.8416 18.5912 73.5388 18.7746 74.4076 18.7746C75.2153 18.7746 75.8637 18.5912 76.3653 18.2484C76.8546 17.8811 77.0994 17.4284 77.0994 16.8902L77.0997 16.8909ZM19.4066 20.3416C19.1251 15.3615 12.8602 13.098 12.2606 12.8653C12.2362 12.8531 12.2362 12.8287 12.2484 12.8043L18.7091 6.31925V5.62172C18.7091 5.51152 18.6111 5.41384 18.5012 5.41384H6.59524V0.335449L2.20248 1.25307V1.91397H2.44731C2.44731 1.91397 3.52397 1.91397 3.52397 2.99064V5.401H0.122412C0.0613627 5.401 0 5.46205 0 5.52342V7.05279H3.53618V15.3612C3.53618 17.9675 5.21239 19.7784 8.14903 19.5335C8.77299 19.4847 9.34811 19.2399 9.83776 18.9218C10.0582 18.7749 10.1925 18.5423 10.1925 18.2734V17.4535C9.23791 18.0896 8.43049 18.053 8.43049 18.053C6.57051 18.053 6.60745 15.6915 6.60745 15.6915V7.0531H15.1726L9.0056 13.2689C8.99339 14.0888 8.98118 14.725 8.98118 14.7372C8.98118 14.7616 8.99339 14.7738 9.01781 14.7738C14.671 15.7284 16.2004 19.3867 16.2004 20.4515C16.2004 20.4515 16.8121 25.6272 11.6364 25.9822C11.6364 25.9822 8.24702 26.1291 7.64748 24.771C7.62306 24.7221 7.64748 24.673 7.69632 24.6485C8.25923 24.3915 8.63837 23.89 8.63837 23.2169C8.63837 22.2134 8.02662 21.3938 6.74176 21.3938C5.70172 21.3938 4.84515 22.2138 4.84515 23.2169C4.84515 23.2169 4.35581 27.573 11.6239 27.4506C19.92 27.3037 19.406 20.3413 19.406 20.3413L19.4066 20.3416Z" fill="#62626A"/>
</g>
<defs>
<clipPath id="clip0_2_4141">
<rect width="78.2497" height="27.1176" fill="white" transform="translate(0 0.334961)"/>
</clipPath>
</defs>
</svg>
