<svg width="106" height="24" viewBox="0 0 106 24" fill="none" xmlns="http://www.w3.org/2000/svg">
<g clip-path="url(#clip0_2_4134)">
<path d="M11.617 23.567C9.19231 23.5477 6.76635 23.5632 4.3906 22.9515C2.24277 22.3978 0.897161 21.0355 0.499272 18.8748C0.217273 17.3412 0.00609597 15.7702 0.000945307 14.216C-0.00549303 11.6458 0.0125343 9.05504 0.328013 6.51061C0.729765 3.28887 2.0728 1.88274 5.25463 1.36123C9.55286 0.656878 13.9052 0.638851 18.2021 1.38441C21.4483 1.94712 22.8699 3.79106 23.1699 7.19307C23.4648 10.5371 23.5125 13.8786 23.1609 17.2188C23.0965 17.8356 22.9858 18.4511 22.8339 19.0525C22.266 21.3072 20.798 22.6953 18.533 23.0378C16.25 23.3829 13.9348 23.5104 11.6337 23.7344C11.6286 23.6791 11.6221 23.6237 11.617 23.5683V23.567ZM15.2057 7.76866C15.2057 8.04937 15.2057 8.27986 15.2057 8.51036C15.198 9.9255 15.2328 11.3432 15.1697 12.7558C15.0963 14.3898 14.1511 15.4509 12.5441 15.6904C9.9971 16.0702 8.05659 14.9822 8.12483 12.0592C8.15445 10.8153 8.13127 9.57139 8.12612 8.32751C8.12612 8.14466 8.09651 7.96181 8.07977 7.76608H5.76325C5.85468 9.86756 5.81347 11.951 6.07744 13.9958C6.28218 15.5848 7.35867 16.7527 8.83691 17.4068C10.6654 18.2168 12.5544 18.2181 14.3996 17.4596C15.7272 16.9137 16.6505 15.9144 17.1462 14.5534C17.2698 14.2134 17.4012 13.8503 17.4063 13.4975C17.4321 11.5995 17.4179 9.70016 17.4179 7.76866H15.2057ZM10.516 7.76866C10.516 9.33575 10.498 10.832 10.5238 12.3283C10.5366 13.0803 10.9912 13.4769 11.7097 13.4666C12.3883 13.4576 12.8004 13.061 12.83 12.3309C12.857 11.6909 12.839 11.0483 12.839 10.4058C12.839 9.53663 12.839 8.66745 12.839 7.76866H10.5147H10.516Z" fill="#62626A"/>
<path d="M79.0605 7.70421C80.8903 7.70421 82.6879 7.69005 84.4855 7.71194C85.1473 7.71967 85.8247 7.73254 86.4659 7.87419C88.7605 8.38024 89.9091 10.689 88.8198 12.6012C88.5519 13.0712 88.109 13.4421 87.6828 13.9327C88.0549 14.5314 88.4721 15.1959 88.8842 15.8642C89.2833 16.5119 89.6786 17.1634 90.1383 17.918C89.1713 17.918 88.3408 17.9412 87.5141 17.9C87.3351 17.8909 87.1098 17.6901 87.0055 17.5162C86.4814 16.6548 85.9727 15.7843 85.495 14.8958C85.2993 14.5327 85.0765 14.3615 84.6477 14.3756C83.7258 14.4065 82.8025 14.4014 81.8793 14.3795C81.4878 14.3705 81.3487 14.5031 81.359 14.8958C81.3809 15.7328 81.3513 16.5711 81.3732 17.4068C81.3835 17.8008 81.2431 17.9412 80.8504 17.9244C80.2748 17.8987 79.6979 17.918 79.0618 17.918V7.70421H79.0605ZM81.4002 12.2381C82.7858 12.2381 84.0902 12.2445 85.3946 12.2317C85.6019 12.2291 85.862 12.202 86.0062 12.0784C86.2934 11.8338 86.7144 11.5157 86.7157 11.2273C86.7157 10.8551 86.4273 10.4083 86.1324 10.1353C85.9187 9.93832 85.4937 9.92415 85.1602 9.91385C84.1546 9.88552 83.1489 9.90097 82.1419 9.89969C81.8973 9.89969 81.6526 9.89969 81.4002 9.89969V12.2381Z" fill="#62626A"/>
<path d="M35.1012 7.73779H37.4138C37.4254 7.98889 37.446 8.21681 37.446 8.44472C37.4499 9.75428 37.4396 11.0625 37.4512 12.3721C37.4628 13.71 37.8787 14.8766 39.2088 15.3968C40.6781 15.9711 42.1692 15.9647 43.4607 14.9088C44.2269 14.283 44.4303 13.3662 44.4342 12.4107C44.4393 11.1012 44.4342 9.79291 44.4342 8.48335C44.4342 8.25286 44.4342 8.02237 44.4342 7.75067H46.7983C46.7983 9.36412 46.8151 10.9479 46.7945 12.5305C46.7404 16.6909 43.2238 18.6353 39.4329 17.8692C36.7674 17.3309 35.1913 15.4149 35.1089 12.6953C35.0587 11.069 35.0999 9.4388 35.0999 7.73779H35.1012Z" fill="#62626A"/>
<path d="M105.34 17.9203C104.541 17.9203 103.854 17.9576 103.177 17.8971C102.976 17.8791 102.725 17.6164 102.626 17.4052C101.661 15.3488 100.725 13.2795 99.7789 11.2154C99.7093 11.0635 99.6295 10.9154 99.4982 10.654C99.3539 10.9308 99.2432 11.1201 99.1518 11.3197C98.2118 13.3632 97.2653 15.4042 96.3459 17.458C96.1889 17.8095 96.0009 17.9422 95.6223 17.9241C95.0042 17.8945 94.3848 17.9164 93.6934 17.9164C93.7565 17.6962 93.7809 17.5301 93.8479 17.3846C95.2527 14.329 96.6692 11.2772 98.0637 8.21642C98.2414 7.82626 98.4745 7.74385 98.8827 7.68462C100.215 7.49147 100.908 7.97305 101.432 9.27102C102.538 12.0086 103.87 14.656 105.107 17.3395C105.177 17.4902 105.232 17.646 105.342 17.9203H105.34Z" fill="#62626A"/>
<path d="M69.6417 9.89658V17.9136C68.9077 17.9136 68.2291 17.9406 67.5582 17.8853C67.4514 17.8763 67.2981 17.499 67.2955 17.2904C67.2749 15.0833 67.2814 12.875 67.2814 10.6666C67.2814 10.4361 67.2814 10.2056 67.2814 9.90302H63.2227V7.75391H73.7558C73.7558 8.3604 73.788 8.95659 73.7313 9.54248C73.7184 9.67639 73.3939 9.87469 73.2085 9.87984C72.0548 9.91075 70.8997 9.8953 69.6417 9.8953V9.89658Z" fill="#62626A"/>
<path d="M52.0938 7.74902H54.4025V15.6952C54.6845 15.7094 54.9086 15.73 55.1339 15.73C57.0423 15.7326 58.9506 15.7416 60.8589 15.7223C61.2993 15.7171 61.4461 15.8394 61.4486 16.2991C61.4564 17.919 61.4757 17.919 59.8468 17.919C57.5097 17.919 55.1726 17.919 52.8354 17.919C52.6037 17.919 52.3732 17.919 52.0938 17.919V7.74902Z" fill="#62626A"/>
</g>
<defs>
<clipPath id="clip0_2_4134">
<rect width="105.341" height="22.905" fill="white" transform="translate(0 0.828125)"/>
</clipPath>
</defs>
</svg>
