<svg width="32" height="35" viewBox="0 0 32 35" fill="none" xmlns="http://www.w3.org/2000/svg">
<path d="M9.98242 31.3494C11.848 30.7275 16.201 32.2545 19.3104 31.9713C21.7768 31.7466 22.6814 31.8137 24.9071 30.7275C26.8446 29.782 28.9074 27.5265 30.2549 25.8627C31.113 24.8032 30.8207 23.2691 29.6863 22.5128C28.7153 21.8655 27.4225 21.9936 26.5973 22.8187L24.1344 25.2817C23.4346 25.9814 22.4856 26.3745 21.496 26.3745H17.4448M9.98242 22.6433L11.8753 21.6969C13.0842 21.0924 14.4172 20.7777 15.7688 20.7777H16.2789C17.0527 20.7777 17.823 20.8809 18.5696 21.0845L21.1838 21.7975C22.5658 22.1744 23.025 23.9036 22.0121 24.9165L20.9649 25.8627M15.5792 11.4498C15.5792 14.1974 17.8065 16.4247 20.5541 16.4247C23.3016 16.4247 25.529 14.1974 25.529 11.4498C25.529 8.70224 23.3016 6.4749 20.5541 6.4749M15.5792 11.4498C15.5792 8.70224 17.8065 6.4749 20.5541 6.4749M15.5792 11.4498C12.8316 11.4498 10.6043 9.22246 10.6043 6.4749C10.6043 3.72734 12.8316 1.5 15.5792 1.5C18.3267 1.5 20.5541 3.72734 20.5541 6.4749" stroke="#FCFCFC" stroke-width="2" stroke-linecap="square"/>
<path d="M1 20.5877H8.29825V33.5H1V20.5877Z" stroke="#EB3A4A" stroke-width="2"/>
</svg>
