<svg width="12" height="13" viewBox="0 0 12 13" fill="none" xmlns="http://www.w3.org/2000/svg">
<path d="M4.78501 6.73001L3.26001 8.25501" stroke="#FCFCFC" stroke-miterlimit="10" stroke-linecap="round" stroke-linejoin="round"/>
<path d="M3.2749 6.745L4.7999 8.27" stroke="#FCFCFC" stroke-miterlimit="10" stroke-linecap="round" stroke-linejoin="round"/>
<path d="M6.76489 7.5H6.76989" stroke="#FCFCFC" stroke-miterlimit="10" stroke-linecap="round" stroke-linejoin="round"/>
<path d="M8.73511 7.5H8.74011" stroke="#FCFCFC" stroke-miterlimit="10" stroke-linecap="round" stroke-linejoin="round"/>
<path d="M7.75 8.49001V8.48001" stroke="#FCFCFC" stroke-miterlimit="10" stroke-linecap="round" stroke-linejoin="round"/>
<path d="M7.75 6.52001V6.51001" stroke="#FCFCFC" stroke-miterlimit="10" stroke-linecap="round" stroke-linejoin="round"/>
<path d="M4.5 11.5H7.5C10 11.5 11 10.5 11 8V7C11 4.5 10 3.5 7.5 3.5H4.5C2 3.5 1 4.5 1 7V8C1 10.5 2 11.5 4.5 11.5Z" stroke="#FCFCFC" stroke-linecap="round" stroke-linejoin="round"/>
<path d="M6.50499 1.5L6.49999 2.005C6.49499 2.28 6.27499 2.5 5.99999 2.5H5.98499C5.70999 2.5 5.48999 2.725 5.48999 3C5.48999 3.275 5.71499 3.5 5.98999 3.5H6.48999" stroke="#FCFCFC" stroke-linecap="round" stroke-linejoin="round"/>
</svg>
