<svg xmlns="http://www.w3.org/2000/svg" width="33" height="39" viewBox="0 0 33 39" fill="none">
  <path d="M11.4695 0.380292C11.5512 0.404332 11.5622 0.47333 11.591 0.525781C11.9087 1.10378 12.2251 1.68251 12.5413 2.26145C13.1302 3.34013 13.719 4.41881 14.3069 5.498C14.4314 5.72644 14.4339 5.6666 14.3051 5.88858C13.9216 6.54921 13.5372 7.20942 13.1532 7.86985C13.1288 7.91189 13.1074 7.95602 13.0797 7.99577C13.0435 8.04781 13.0432 8.09495 13.0764 8.14948C13.1452 8.26208 13.209 8.3776 13.2754 8.49166C17.4018 15.5877 21.5284 22.6837 25.6549 29.7798C25.7003 29.8578 25.7442 29.9367 25.7905 30.0142C25.8143 30.0539 25.8167 30.0903 25.7915 30.1304C25.762 30.1774 25.736 30.2265 25.708 30.2746C24.1757 32.9103 22.6433 35.5459 21.1104 38.1813C21.0728 38.2458 21.0445 38.3177 20.9849 38.3687C20.9185 38.324 20.8989 38.2543 20.8662 38.1945C20.1302 36.848 19.3949 35.5013 18.6594 34.1545C18.483 33.8316 18.3113 33.5059 18.1272 33.1873C18.0659 33.0814 18.0755 33.0035 18.1351 32.9026C18.5304 32.2328 18.9211 31.5602 19.3105 30.8869C19.4603 30.6277 19.4604 30.7106 19.3056 30.4442C16.3842 25.419 13.4619 20.3943 10.5399 15.3694C9.2831 13.2082 8.02591 11.0472 6.77071 8.88504C6.62181 8.62862 6.62181 8.71333 6.76799 8.46179C8.29607 5.83165 9.82562 3.20244 11.355 0.573028C11.3929 0.507881 11.4319 0.443358 11.4696 0.380188L11.4695 0.380292Z" fill="white"/>
  <path d="M28.9406 24.6806C28.8706 24.6388 28.8476 24.562 28.8101 24.4976C28.1007 23.2797 27.3928 22.0609 26.6842 20.8425C24.7575 17.5293 22.8307 14.2163 20.904 10.9032C19.937 9.24071 18.9701 7.5781 18.0035 5.91549C17.9722 5.86158 17.9412 5.80726 17.9142 5.75116C17.8999 5.72161 17.9142 5.69559 17.9481 5.69288C18.0036 5.68851 18.0595 5.6882 18.1152 5.6882C20.0412 5.68799 21.9672 5.68768 23.8931 5.68851C24.1252 5.68851 24.082 5.66208 24.1997 5.86439C26.4203 9.68134 28.6404 13.4985 30.8607 17.3156C31.2273 17.9457 31.5908 18.5777 31.9637 19.2042C32.0336 19.3217 32.0319 19.4068 31.9633 19.5241C30.9858 21.1966 30.0136 22.8721 29.0396 24.5465C29.012 24.594 28.992 24.6478 28.9406 24.6808V24.6806Z" fill="white"/>
  <path d="M3.53834 14.0674C3.60065 14.1103 3.62494 14.1854 3.66222 14.2494C4.42422 15.5576 5.18496 16.8665 5.94602 18.1751C8.77716 23.0438 11.6082 27.9126 14.4395 32.7812C14.6139 33.081 14.6203 33.0561 14.2765 33.0561C12.392 33.0562 10.5075 33.0567 8.62302 33.0556C8.32406 33.0554 8.39192 33.0884 8.25097 32.8462C5.67659 28.4226 3.10336 23.9984 0.529927 19.5744C0.522911 19.5624 0.516733 19.5499 0.509612 19.5379C0.402281 19.3567 0.415266 19.3867 0.511183 19.2216C1.42858 17.6422 2.3466 16.0633 3.26441 14.4842C3.3307 14.3702 3.39614 14.2555 3.46368 14.1421C3.48033 14.1143 3.49091 14.0785 3.53813 14.0673L3.53834 14.0674Z" fill="white"/>
</svg>