<svg xmlns="http://www.w3.org/2000/svg" width="87" height="29" viewBox="0 0 87 29" fill="none">
  <g clip-path="url(#clip0_1385_2693)">
    <path d="M15.8199 0.450867C15.9802 0.450867 16.136 0.519568 16.2413 0.643231L18.3115 3.03863C18.339 3.03405 18.3619 3.02947 18.3894 3.02489C18.8886 2.93787 19.4016 2.90123 19.8962 2.96077C20.5283 3.03405 21.0642 3.25389 21.4672 3.6661C21.884 4.09205 22.3008 4.52716 22.6992 4.94853C22.8367 5.0951 22.9649 5.2325 23.0748 5.35158C23.116 5.39281 23.1481 5.42945 23.1756 5.46151C23.3634 5.66303 23.4046 5.9012 23.3221 6.1073L22.7863 7.4447L23.4962 9.5149C23.5328 9.62483 23.5374 9.73933 23.5099 9.84925C23.5099 9.84925 23.5008 9.88742 23.4824 9.96376C23.4611 10.0493 23.4336 10.1546 23.4 10.2798C23.313 10.6233 23.2122 11.0034 23.1069 11.4157C22.8046 12.5927 22.4977 13.7652 22.2138 14.8645C21.513 17.5759 21.055 19.3621 20.9451 19.8064C20.3451 22.2293 19.8642 23.0675 18.3207 24.1758C16.9695 25.1468 14.1436 27.0934 13.6032 27.4369C13.5528 27.4689 13.4932 27.5102 13.4199 27.5605C13.3925 27.5789 13.2459 27.6796 13.2047 27.7071C12.939 27.8903 12.7513 28.0048 12.5497 28.101C12.2932 28.2247 12.0459 28.2888 11.7986 28.2888C11.5513 28.2888 11.3039 28.2201 11.0474 28.101C10.8459 28.0048 10.6581 27.8903 10.3925 27.7071C10.3513 27.6796 10.2093 27.5789 10.1772 27.5605C10.0994 27.5102 10.0444 27.4689 9.99402 27.4369C9.44899 27.0934 6.62764 25.1468 5.27651 24.1758C3.73301 23.0675 3.25668 22.2293 2.65211 19.8064C2.54219 19.3621 2.08417 17.5759 1.388 14.8828C1.09945 13.7652 0.792583 12.5882 0.490296 11.4157C0.384953 11.0034 0.284191 10.6233 0.197169 10.2798C0.163581 10.1515 0.136101 10.0462 0.114727 9.96376C0.093353 9.88131 0.0841928 9.84315 0.0872462 9.84925C0.0597656 9.73933 0.0643457 9.62025 0.100987 9.5149L0.810904 7.4447L0.275031 6.1073C0.192589 5.9012 0.23381 5.66303 0.384953 5.49815C0.449075 5.42487 0.485716 5.38823 0.522357 5.347C0.632279 5.22792 0.760522 5.09052 0.897926 4.94395C1.29182 4.52258 1.70861 4.08747 2.12998 3.66152C2.53303 3.25389 3.0689 3.03405 3.70095 2.95619C4.1956 2.89665 4.70858 2.92871 5.20781 3.02031C5.23529 3.02489 5.26277 3.02947 5.28567 3.03405L7.3513 0.643231C7.45664 0.519568 7.61237 0.450867 7.77267 0.450867H15.8199ZM15.5634 1.59589H8.02458L5.90399 4.05083C5.762 4.21572 5.53758 4.28442 5.33147 4.22488C5.32231 4.22488 5.29483 4.21572 5.25361 4.20656C5.18033 4.18824 5.09789 4.16992 5.00628 4.15618C4.60782 4.08289 4.19561 4.05999 3.82462 4.10121C3.42615 4.14702 3.11928 4.27526 2.91775 4.47678C2.50554 4.89815 2.09333 5.3241 1.70403 5.74089C1.61242 5.83708 1.5254 5.93326 1.44296 6.0157L1.91929 7.21111C1.96967 7.33935 1.97425 7.48592 1.92845 7.61416L1.20479 9.72559C1.22311 9.80345 1.23227 9.83093 1.27349 9.98666C1.36052 10.3302 1.46128 10.7103 1.56662 11.1225C1.86891 12.2996 2.17578 13.4721 2.45974 14.5713C3.1605 17.2919 3.62309 19.0736 3.73301 19.5224C4.27347 21.7026 4.62156 22.3072 5.91315 23.2369C7.25054 24.1942 10.0581 26.1315 10.5803 26.4659C10.6444 26.5071 10.7131 26.5529 10.8001 26.6125C10.8322 26.6354 10.9742 26.7361 11.0154 26.759C11.2352 26.9102 11.3772 27.0018 11.5146 27.0613C11.6337 27.1163 11.7299 27.1437 11.794 27.1437C11.8581 27.1437 11.9497 27.1163 12.0734 27.0613C12.2062 26.9972 12.3528 26.9056 12.5726 26.759C12.6093 26.7315 12.7558 26.6308 12.7879 26.6125C12.8749 26.5529 12.9436 26.5071 13.0077 26.4659C13.5299 26.1315 16.3375 24.1987 17.6749 23.2369C18.971 22.3072 19.3145 21.7026 19.855 19.5224C19.9649 19.0736 20.4275 17.2874 21.1237 14.5897C21.4122 13.4721 21.7191 12.295 22.0214 11.1225C22.1267 10.7103 22.2275 10.3302 22.3145 9.98666C22.3557 9.83093 22.3603 9.80345 22.3832 9.72559L21.6596 7.61416C21.6138 7.48134 21.6183 7.33935 21.6687 7.21111L22.1451 6.0157C22.0672 5.92868 21.9802 5.83708 21.884 5.74089C21.4947 5.3241 21.0825 4.89815 20.6703 4.47678C20.4733 4.27526 20.1664 4.14702 19.7634 4.10121C19.3924 4.05541 18.9848 4.08289 18.5817 4.15618C18.4901 4.1745 18.4077 4.18824 18.3344 4.20656C18.2932 4.21572 18.2657 4.22488 18.2565 4.22488C18.0504 4.28442 17.826 4.21572 17.684 4.05083L15.5634 1.59589ZM11.794 17.64C11.9452 17.64 12.9299 17.9927 13.7177 18.4095C14.5054 18.8263 15.0779 19.1194 15.2566 19.2339C15.4398 19.3484 15.3299 19.5682 15.1604 19.6873C14.9955 19.8064 12.7604 21.5698 12.5451 21.7621C12.3299 21.9591 12.0093 22.2797 11.794 22.2797C11.5787 22.2797 11.2581 21.9591 11.0429 21.7621C10.8276 21.5652 8.59251 19.8064 8.42763 19.6873C8.26274 19.5682 8.14824 19.3484 8.33144 19.2339C8.51465 19.1194 9.08258 18.8263 9.87036 18.4095C10.6581 17.9927 11.6383 17.64 11.794 17.64ZM11.794 5.0951C11.8352 5.0951 12.2703 5.10884 12.907 5.3241C13.5757 5.55311 14.3039 5.83708 14.6383 5.83708C14.9726 5.83708 17.4596 5.35158 17.4596 5.35158C17.4596 5.35158 20.4046 8.97903 20.4046 9.75765C20.4046 10.5363 20.0336 10.7378 19.6626 11.1408C19.2916 11.5439 17.6611 13.3072 17.455 13.5317C17.2443 13.7561 16.8092 14.0996 17.0657 14.7179C17.3222 15.3362 17.6978 16.1194 17.281 16.9164C16.8596 17.7133 16.1405 18.2446 15.6825 18.1576C15.2199 18.0706 14.139 17.4935 13.7406 17.2278C13.3421 16.9667 12.0826 15.9042 12.0826 15.4965C12.0826 15.0889 13.3879 14.3607 13.6261 14.1958C13.8688 14.0309 14.968 13.3897 14.9909 13.1378C15.0138 12.8859 15.0047 12.8126 14.6795 12.1897C14.3543 11.5668 13.7726 10.7378 13.8688 10.1882C13.965 9.63857 14.9085 9.35002 15.5818 9.08895C16.255 8.83247 17.5466 8.3424 17.7115 8.26453C17.8718 8.18667 17.8306 8.11797 17.3405 8.06759C16.8504 8.02179 15.4627 7.834 14.8352 8.00805C14.2077 8.18667 13.136 8.4569 13.0535 8.59888C12.9711 8.74087 12.8887 8.74545 12.9803 9.24468C13.0673 9.73933 13.5299 12.1164 13.5711 12.5378C13.6169 12.9591 13.7039 13.2385 13.2551 13.3439C12.8062 13.4492 12.0551 13.6278 11.7986 13.6278C11.5421 13.6278 10.7864 13.4492 10.3421 13.3439C9.89326 13.2385 9.98028 12.9591 10.0261 12.5378C10.0719 12.1164 10.5299 9.73933 10.6169 9.24468C10.7039 8.75003 10.6307 8.74545 10.5436 8.59888C10.4566 8.4569 9.38487 8.18667 8.75739 8.00805C8.12992 7.82942 6.74215 8.01721 6.25207 8.06759C5.762 8.11797 5.72078 8.18667 5.88109 8.26453C6.04139 8.3424 7.33756 8.82789 8.01084 9.08895C8.68411 9.34544 9.62304 9.63399 9.7238 10.1882C9.81998 10.7378 9.23831 11.5668 8.91312 12.1897C8.58793 12.8126 8.57877 12.8859 8.60167 13.1378C8.62457 13.3897 9.7238 14.0309 9.96196 14.1958C10.2047 14.3607 11.5055 15.0889 11.5055 15.4965C11.5055 15.9042 10.2459 16.9622 9.84746 17.2278C9.44899 17.4889 8.36808 18.066 7.90549 18.1576C7.4429 18.2446 6.72383 17.7133 6.30704 16.9164C5.88567 16.1194 6.26581 15.3362 6.5223 14.7179C6.77879 14.0996 6.34368 13.7561 6.13299 13.5317C5.92231 13.3072 4.29637 11.5439 3.92538 11.1408C3.55439 10.7378 3.1834 10.5317 3.1834 9.75765C3.1834 8.98361 6.12841 5.35158 6.12841 5.35158C6.12841 5.35158 8.61541 5.83708 8.94976 5.83708C9.28411 5.83708 10.0123 5.55311 10.681 5.3241C11.3497 5.0951 11.7986 5.0951 11.7986 5.0951H11.794Z" fill="white"/>
    <path d="M29.0442 15.5104V6.33185H29.9098C30.6152 6.33185 31.1831 6.91352 31.1831 7.62802V11.7089C32.5663 10.4539 33.7434 9.95014 35.3144 9.91807C38.3235 9.85395 40.9342 12.1257 41.1815 15.176C41.4792 18.8172 38.8731 21.5607 35.4747 21.5607C31.7465 21.5607 29.0442 19.2111 29.0442 15.5104ZM31.1465 16.2295C31.3571 18.1256 33.1388 19.692 35.0167 19.7241C37.4624 19.7607 39.1296 18.1394 39.1296 15.744C39.1296 13.3486 37.4991 11.7639 35.122 11.7639C32.58 11.7593 30.8579 13.6371 31.1465 16.234V16.2295Z" fill="white"/>
    <path d="M44.7498 10.147V11.7821C46.0964 10.2661 46.8933 9.85846 48.4643 9.85846C48.9223 9.85846 49.3803 9.8951 49.8338 9.96838V12.1394C49.3529 12.0065 48.8536 11.9378 48.3544 11.9378C47.2139 11.9378 46.2567 12.318 45.5559 13.0325C44.9422 13.66 44.759 14.15 44.759 15.1393V21.1851H42.5422V10.147H44.7544H44.7498Z" fill="white"/>
    <path d="M50.3544 13.7974C50.4689 12.721 50.675 12.1394 51.1284 11.5806C52.0399 10.4447 53.6841 9.85846 56.0062 9.85846C57.852 9.85846 59.1986 10.1516 60.1329 10.7745C60.9069 11.2875 61.2275 12.0523 61.2275 13.3943V18.295C61.2275 19.3713 61.5024 19.7515 62.2535 19.7286C62.423 19.724 62.5878 19.7057 62.7573 19.6828V21.1622C62.3817 21.2904 61.9878 21.3545 61.594 21.3408C60.2062 21.3408 59.565 20.9148 59.1344 19.6828C57.765 20.9606 56.3543 21.4965 54.3253 21.4965C51.6139 21.4965 49.9467 20.2416 49.9467 18.2034C49.933 17.0401 50.6063 15.9821 51.6551 15.5195C52.475 15.1622 52.9788 15.0477 55.3238 14.8004C57.3299 14.5989 57.6734 14.5531 58.2413 14.3744C58.8551 14.1729 59.1299 13.8386 59.1299 13.2798C59.1299 12.0936 58.1497 11.5577 56.0978 11.5577C54.1559 11.5577 53.1574 11.947 52.7589 12.9455C52.562 13.4538 52.0765 13.7928 51.536 13.7928H50.3498L50.3544 13.7974ZM59.1207 15.6798C57.7146 16.0966 56.2719 16.3668 54.8108 16.4859C52.8276 16.6874 52.2139 17.0676 52.2139 18.0752C52.2139 19.1927 53.1253 19.7836 54.9253 19.7836C56.4047 19.7836 57.5222 19.4034 58.3238 18.666C58.9604 18.0614 59.1207 17.6355 59.1207 16.5821V15.6844V15.6798Z" fill="white"/>
    <path d="M68.1076 21.1805H67.5351C67.0313 21.1805 66.5733 20.892 66.3534 20.4339L61.5718 10.147H62.9C63.6741 10.1424 64.3794 10.6004 64.6954 11.3149L67.8832 18.7118L71.1808 11.2875C71.5015 10.5821 72.2022 10.1333 72.9671 10.1379H74.1762L69.2847 20.4477C69.0648 20.9011 68.6068 21.1851 68.1076 21.1851V21.1805Z" fill="white"/>
    <path d="M75.6786 16.3027C75.9076 18.4325 77.5427 19.7516 79.9839 19.7516C81.3717 19.7516 82.4068 19.3348 83.0526 18.4966C83.4281 18.0157 83.9961 17.7363 84.6006 17.7363H85.8877C84.7701 20.2416 82.764 21.4737 79.7778 21.4737C76.045 21.4737 73.5305 19.1699 73.5305 15.7211C73.5305 12.2722 76.1045 9.85394 79.8236 9.85394C82.5121 9.85394 84.6739 11.086 85.5441 13.147C85.9335 14.0951 86.0892 14.9379 86.0892 16.3027H75.674H75.6786ZM83.8403 14.5944C83.3365 12.6478 81.8572 11.5486 79.8053 11.5486C77.7534 11.5486 76.274 12.6478 75.7473 14.5944H83.8403Z" fill="white"/>
    <path d="M15.8141 0.450867C15.9744 0.450867 16.1301 0.519568 16.2354 0.643231L18.3056 3.03863C18.3331 3.03405 18.356 3.02947 18.3835 3.02489C18.8827 2.93787 19.3957 2.90123 19.8904 2.96077C20.5224 3.03405 21.0583 3.25389 21.4613 3.6661C21.8781 4.09205 22.2949 4.52716 22.6934 4.94853C22.8308 5.0951 22.959 5.2325 23.069 5.35158C23.1102 5.39281 23.1422 5.42945 23.1697 5.46151C23.3575 5.66303 23.3987 5.9012 23.3163 6.1073L22.7804 7.4447L23.4903 9.5149C23.527 9.62483 23.5316 9.73933 23.5041 9.84925C23.5041 9.84925 23.4949 9.88742 23.4766 9.96376C23.4552 10.0493 23.4277 10.1546 23.3941 10.2798C23.3071 10.6233 23.2064 11.0034 23.101 11.4157C22.7987 12.5927 22.4919 13.7652 22.2079 14.8645C21.5071 17.5759 21.0491 19.3621 20.9392 19.8064C20.3392 22.2293 19.8583 23.0675 18.3148 24.1758C16.9637 25.1468 14.1377 27.0934 13.5973 27.4369C13.5469 27.4689 13.4874 27.5102 13.4141 27.5605C13.3866 27.5789 13.24 27.6796 13.1988 27.7071C12.9332 27.8903 12.7454 28.0048 12.5439 28.101C12.2874 28.2247 12.0401 28.2888 11.7927 28.2888C11.5454 28.2888 11.2981 28.2201 11.0416 28.101C10.8401 28.0048 10.6523 27.8903 10.3866 27.7071C10.3454 27.6796 10.2034 27.5789 10.1714 27.5605C10.0935 27.5102 10.0385 27.4689 9.98816 27.4369C9.44313 27.0934 6.62178 25.1468 5.27065 24.1758C3.72715 23.0675 3.25082 22.2293 2.64625 19.8064C2.53633 19.3621 2.07831 17.5759 1.38214 14.8828C1.09359 13.7652 0.786724 12.5882 0.484437 11.4157C0.379094 11.0034 0.278332 10.6233 0.191309 10.2798C0.157722 10.1515 0.130241 10.0462 0.108867 9.96376C0.0874937 9.88131 0.0783334 9.84315 0.0813868 9.84925C0.0539062 9.73933 0.0584863 9.62025 0.0951272 9.5149L0.805044 7.4447L0.269171 6.1073C0.186729 5.9012 0.22795 5.66303 0.379094 5.49815C0.443216 5.42487 0.479856 5.38823 0.516497 5.347C0.62642 5.22792 0.754663 5.09052 0.892066 4.94395C1.28596 4.52258 1.70275 4.08747 2.12412 3.66152C2.52717 3.25389 3.06304 3.03405 3.69509 2.95619C4.18975 2.89665 4.70272 2.92871 5.20195 3.02031C5.22943 3.02489 5.25691 3.02947 5.27981 3.03405L7.34544 0.643231C7.45078 0.519568 7.60651 0.450867 7.76681 0.450867H15.8141ZM15.5576 1.59589H8.01872L5.89813 4.05083C5.75614 4.21572 5.53172 4.28442 5.32561 4.22488C5.31645 4.22488 5.28897 4.21572 5.24775 4.20656C5.17447 4.18824 5.09203 4.16992 5.00043 4.15618C4.60196 4.08289 4.18975 4.05999 3.81876 4.10121C3.42029 4.14702 3.11342 4.27526 2.91189 4.47678C2.49968 4.89815 2.08748 5.3241 1.69817 5.74089C1.60656 5.83708 1.51954 5.93326 1.4371 6.0157L1.91343 7.21111C1.96381 7.33935 1.96839 7.48592 1.92259 7.61416L1.19893 9.72559C1.21725 9.80345 1.22641 9.83093 1.26764 9.98666C1.35466 10.3302 1.45542 10.7103 1.56076 11.1225C1.86305 12.2996 2.16992 13.4721 2.45388 14.5713C3.15464 17.2919 3.61723 19.0736 3.72715 19.5224C4.26761 21.7026 4.6157 22.3072 5.90729 23.2369C7.24468 24.1942 10.0523 26.1315 10.5744 26.4659C10.6385 26.5071 10.7072 26.5529 10.7943 26.6125C10.8263 26.6354 10.9683 26.7361 11.0095 26.759C11.2294 26.9102 11.3714 27.0018 11.5088 27.0613C11.6278 27.1163 11.724 27.1437 11.7881 27.1437C11.8523 27.1437 11.9439 27.1163 12.0675 27.0613C12.2004 26.9972 12.3469 26.9056 12.5668 26.759C12.6034 26.7315 12.75 26.6308 12.782 26.6125C12.8691 26.5529 12.9378 26.5071 13.0019 26.4659C13.524 26.1315 16.3316 24.1987 17.669 23.2369C18.9652 22.3072 19.3087 21.7026 19.8491 19.5224C19.9591 19.0736 20.4217 17.2874 21.1178 14.5897C21.4064 13.4721 21.7132 12.295 22.0155 11.1225C22.1209 10.7103 22.2216 10.3302 22.3087 9.98666C22.3499 9.83093 22.3545 9.80345 22.3774 9.72559L21.6537 7.61416C21.6079 7.48134 21.6125 7.33935 21.6629 7.21111L22.1392 6.0157C22.0613 5.92868 21.9743 5.83708 21.8781 5.74089C21.4888 5.3241 21.0766 4.89815 20.6644 4.47678C20.4675 4.27526 20.1606 4.14702 19.7575 4.10121C19.3866 4.05541 18.9789 4.08289 18.5759 4.15618C18.4843 4.1745 18.4018 4.18824 18.3285 4.20656C18.2873 4.21572 18.2598 4.22488 18.2507 4.22488C18.0446 4.28442 17.8202 4.21572 17.6782 4.05083L15.5576 1.59589ZM11.7881 17.64C11.9393 17.64 12.924 17.9927 13.7118 18.4095C14.4996 18.8263 15.0721 19.1194 15.2507 19.2339C15.4339 19.3484 15.324 19.5682 15.1545 19.6873C14.9896 19.8064 12.7546 21.5698 12.5393 21.7621C12.324 21.9591 12.0034 22.2797 11.7881 22.2797C11.5729 22.2797 11.2523 21.9591 11.037 21.7621C10.8217 21.5652 8.58665 19.8064 8.42177 19.6873C8.25688 19.5682 8.14238 19.3484 8.32558 19.2339C8.50879 19.1194 9.07672 18.8263 9.8645 18.4095C10.6523 17.9927 11.6324 17.64 11.7881 17.64ZM11.7881 5.0951C11.8294 5.0951 12.2645 5.10884 12.9011 5.3241C13.5698 5.55311 14.298 5.83708 14.6324 5.83708C14.9667 5.83708 17.4537 5.35158 17.4537 5.35158C17.4537 5.35158 20.3988 8.97903 20.3988 9.75765C20.3988 10.5363 20.0278 10.7378 19.6568 11.1408C19.2858 11.5439 17.6553 13.3072 17.4492 13.5317C17.2385 13.7561 16.8034 14.0996 17.0599 14.7179C17.3163 15.3362 17.6919 16.1194 17.2751 16.9164C16.8538 17.7133 16.1347 18.2446 15.6767 18.1576C15.2141 18.0706 14.1332 17.4935 13.7347 17.2278C13.3362 16.9667 12.0767 15.9042 12.0767 15.4965C12.0767 15.0889 13.382 14.3607 13.6202 14.1958C13.8629 14.0309 14.9622 13.3897 14.9851 13.1378C15.008 12.8859 14.9988 12.8126 14.6736 12.1897C14.3484 11.5668 13.7668 10.7378 13.8629 10.1882C13.9591 9.63857 14.9026 9.35002 15.5759 9.08895C16.2492 8.83247 17.5408 8.3424 17.7057 8.26453C17.866 8.18667 17.8247 8.11797 17.3347 8.06759C16.8446 8.02179 15.4568 7.834 14.8293 8.00805C14.2019 8.18667 13.1301 8.4569 13.0477 8.59888C12.9652 8.74087 12.8828 8.74545 12.9744 9.24468C13.0614 9.73933 13.524 12.1164 13.5652 12.5378C13.611 12.9591 13.6981 13.2385 13.2492 13.3439C12.8004 13.4492 12.0492 13.6278 11.7927 13.6278C11.5362 13.6278 10.7805 13.4492 10.3363 13.3439C9.8874 13.2385 9.97442 12.9591 10.0202 12.5378C10.066 12.1164 10.524 9.73933 10.6111 9.24468C10.6981 8.75003 10.6248 8.74545 10.5378 8.59888C10.4508 8.4569 9.37901 8.18667 8.75153 8.00805C8.12406 7.82942 6.73629 8.01721 6.24622 8.06759C5.75614 8.11797 5.71492 8.18667 5.87523 8.26453C6.03553 8.3424 7.3317 8.82789 8.00498 9.08895C8.67825 9.34544 9.61718 9.63399 9.71794 10.1882C9.81412 10.7378 9.23245 11.5668 8.90726 12.1897C8.58207 12.8126 8.57291 12.8859 8.59581 13.1378C8.61871 13.3897 9.71794 14.0309 9.9561 14.1958C10.1988 14.3607 11.4996 15.0889 11.4996 15.4965C11.4996 15.9042 10.2401 16.9622 9.8416 17.2278C9.44313 17.4889 8.36223 18.066 7.89963 18.1576C7.43704 18.2446 6.71797 17.7133 6.30118 16.9164C5.87981 16.1194 6.25996 15.3362 6.51644 14.7179C6.77293 14.0996 6.33782 13.7561 6.12713 13.5317C5.91645 13.3072 4.29051 11.5439 3.91952 11.1408C3.54853 10.7378 3.17754 10.5317 3.17754 9.75765C3.17754 8.98361 6.12255 5.35158 6.12255 5.35158C6.12255 5.35158 8.60955 5.83708 8.9439 5.83708C9.27825 5.83708 10.0065 5.55311 10.6752 5.3241C11.3439 5.0951 11.7927 5.0951 11.7927 5.0951H11.7881Z" fill="white"/>
  </g>
  <defs>
    <clipPath id="clip0_1385_2693">
      <rect width="86.0328" height="27.8471" fill="white" transform="translate(0.0598145 0.450867)"/>
    </clipPath>
  </defs>
</svg>