<svg xmlns="http://www.w3.org/2000/svg" width="101" height="27" viewBox="0 0 101 27" fill="none">
  <path d="M17.0609 7.70653L6.71631 12.4506V6.38874C6.71631 5.26862 7.60581 4.37912 8.72593 4.37912H18.5434L17.0609 7.70653Z" fill="#B9B9B9"/>
  <path d="M24.7365 14.2966V20.3584C24.7365 21.4785 23.847 22.368 22.7269 22.368H12.8765L14.359 19.0406L24.7365 14.2966Z" fill="#B9B9B9"/>
  <path d="M17.06 7.70674L8.39551 11.6601V7.17962C8.39551 6.55367 8.88968 6.0595 9.51563 6.0595H17.7847L17.06 7.70674Z" fill="#868686"/>
  <path d="M23.024 15.0544V19.5349C23.024 20.1609 22.5298 20.655 21.9039 20.655H13.6348L14.3595 19.0078L23.024 15.0544Z" fill="#868686"/>
  <path d="M4.57473 6.1266C4.57473 3.95225 6.3208 2.20618 8.49515 2.20618H19.5316L20.2893 0.526003H7.93509C5.13479 0.526003 2.89456 2.79919 2.89456 5.56654V14.198L4.57473 13.4403V6.1266ZM26.8783 20.5893C26.8783 22.7637 25.1322 24.5097 22.9579 24.5097H11.9214L11.1637 26.1899H23.5179C26.3182 26.1899 28.5584 23.9167 28.5584 21.1494V12.5508L26.8783 13.3085V20.5893ZM15.0511 11.0024L0.456651 17.6902C0.226038 17.789 0.226038 18.1185 0.456651 18.2173L5.92546 20.4575C5.99135 20.4905 6.05724 20.5564 6.09019 20.6222L8.36337 26.0581C8.4622 26.2887 8.79165 26.2887 8.89048 26.0581L15.4465 11.3977C15.5453 11.1342 15.2817 10.9036 15.0511 11.0024ZM12.1849 14.6593L8.92343 21.94C8.82459 22.1706 8.49515 22.1706 8.39631 21.94L7.30914 19.3374C7.2762 19.2715 7.21031 19.2056 7.14442 19.1727L4.54179 18.1185C4.31118 18.0196 4.31118 17.6902 4.54179 17.5913L11.7896 14.2639C12.0532 14.1651 12.2838 14.4287 12.1849 14.6593ZM30.9964 8.53156L25.5275 6.29132C25.4616 6.25838 25.3958 6.19249 25.3628 6.1266L23.0896 0.690727C22.9908 0.460112 22.6614 0.460112 22.5625 0.690727L16.0065 15.3511C15.9077 15.5817 16.1383 15.8453 16.3689 15.7135L30.9634 9.02573C31.227 8.92689 31.227 8.63039 30.9964 8.53156ZM26.9112 9.12456L19.6634 12.452C19.4328 12.5508 19.1692 12.3202 19.301 12.0896L22.5625 4.80881C22.6614 4.5782 22.9908 4.5782 23.0896 4.80881L24.1768 7.41144C24.2097 7.47733 24.2756 7.54322 24.3415 7.57616L26.9442 8.63039C27.1089 8.72923 27.1089 9.02573 26.9112 9.12456Z" fill="white"/>
  <path d="M36.2358 21.9391L37.916 23.4216H45.9875V16.7667H41.1446V18.9082H43.7143V21.1484H38.8385L38.509 20.8848V14.6912L38.8385 14.3947H45.9875V12.1216H37.916L36.2358 13.6041V21.9391Z" fill="white"/>
  <path d="M54.8495 20.6542L55.8708 23.4216H58.2098L53.8611 12.1216H51.2585L47.2393 23.4216H49.5783L50.5337 20.6542L51.3573 18.381L52.5104 15.1195H52.741L53.96 18.381L54.8495 20.6542Z" fill="white"/>
  <path d="M70.2009 12.1216H72.9024V23.4216H70.6292V15.8772L66.2805 22.3673H66.0828L61.7012 15.8772V23.4216H59.4609V12.1216H62.0636L66.1487 18.1504L70.2009 12.1216Z" fill="white"/>
  <path d="M77.1204 12.1216H74.8472V23.4216H77.1204V12.1216Z" fill="white"/>
  <path d="M86.5405 12.1216H88.8136V23.4216H87.2982L81.3352 16.2726V23.4216H79.062V12.1216H80.8081L86.5405 18.8752V12.1216Z" fill="white"/>
  <path d="M90.7593 21.9391L92.4065 23.4216H100.478V16.7667H95.6351V18.9082H98.2048V21.1484H93.3619L93.0325 20.8848V14.6912L93.3619 14.3947H100.478V12.1216H92.4065L90.7593 13.6041V21.9391Z" fill="white"/>
  <path d="M52.5427 18.9095L50.9285 23.1923C50.8955 23.3241 51.0273 23.4559 51.1591 23.39L52.6745 22.7641C52.7075 22.7641 52.7734 22.7641 52.8063 22.7641L54.3218 23.39C54.4535 23.4559 54.5853 23.3241 54.5524 23.1923L52.8722 18.9095C52.8063 18.7778 52.6086 18.7778 52.5427 18.9095Z" fill="#B9B9B9"/>
  <path d="M37.1583 9.71674L36.2358 8.86018V4.14909L37.1583 3.32547H41.7376V5.46688H40.5186V4.61031H37.6854L37.5207 4.74209V8.26717L37.6854 8.43189H41.7376V9.71674H37.1583Z" fill="white"/>
  <path fill-rule="evenodd" clip-rule="evenodd" d="M45.0958 8.43189H47.6655L47.8631 8.26717V4.74209L47.6655 4.57737H45.0958L44.8981 4.74209V8.26717L45.0958 8.43189ZM44.5687 9.71674L43.6133 8.89312V4.14909L44.5687 3.32547H48.1926L49.148 4.14909V8.86018L48.1926 9.68379H44.5687V9.71674Z" fill="white"/>
  <path d="M58.701 3.32547H57.1856L54.8795 6.71877L52.5733 3.32547H51.0908V9.71674H52.3427V5.43393L54.8136 9.09079H54.9453L57.4162 5.43393V9.71674H58.701V3.32547Z" fill="white"/>
  <path d="M66.7749 3.32547H68.3233V9.71674H67.0385V5.43393L64.5676 9.09079H64.4359L61.965 5.43393V9.71674H60.6802V3.32547H62.1627L64.4688 6.71877L66.7749 3.32547Z" fill="white"/>
  <path d="M70.2988 8.89312L71.2542 9.71674H74.9111L75.8006 8.89312V3.32547H74.5157V8.26717L74.3181 8.43189H71.7813L71.5837 8.26717V3.32547H70.2988V8.89312Z" fill="white"/>
  <path d="M82.0289 3.32547H83.3138V9.71674H82.4572L79.0639 5.66454V9.71674H77.812V3.32547H78.8004L82.0289 7.14705V3.32547Z" fill="white"/>
  <path d="M86.5739 3.32547H85.2891V9.71674H86.5739V3.32547Z" fill="white"/>
  <path d="M90.4281 9.71674V4.61031H88.4844V3.32547H93.6896V4.61031H91.713V9.71674H90.4281Z" fill="white"/>
  <path d="M98.6316 6.91644L100.839 3.32547H99.3234L98.0056 5.56571L96.7208 3.32547H95.1724L97.3467 6.8835V9.71674L98.6316 9.68379V6.91644Z" fill="white"/>
</svg>