<svg xmlns="http://www.w3.org/2000/svg" width="110" height="15" viewBox="0 0 110 15" fill="none">
  <g clip-path="url(#clip0_1385_2750)">
    <path d="M37.1711 6.53524L33.8176 5.61422V14.3482H30.4639V3.86859V0.374451L37.1711 2.12294L43.876 0.374451V14.3482H40.5249V5.61422L37.1711 6.53524Z" fill="white"/>
    <path d="M15.3765 0.374451V14.3482H18.7274V3.86859H25.4348V5.61422H20.4056V9.09135H25.4348V14.3482H28.7884V3.86859V0.374451H15.3765Z" fill="white"/>
    <path d="M74.0889 3.86859V0.374451H64.0251C63.1357 0.374451 62.2827 0.742586 61.6537 1.39787C61.0247 2.05314 60.6716 2.94189 60.6716 3.86859V5.61426C60.6716 6.54095 61.0247 7.4297 61.6537 8.08497C62.2827 8.74024 63.1357 9.10837 64.0251 9.10837H69.8948C70.0048 9.10837 70.1137 9.13095 70.2153 9.17482C70.317 9.21868 70.4094 9.28297 70.4871 9.36403C70.5651 9.44509 70.6265 9.54129 70.6688 9.64719C70.7107 9.75309 70.7327 9.8666 70.7327 9.98122C70.733 10.0961 70.7114 10.2099 70.6695 10.3161C70.6276 10.4223 70.5661 10.5189 70.4881 10.6002C70.4101 10.6816 70.3177 10.7461 70.216 10.7902C70.114 10.8342 70.0051 10.8569 69.8948 10.8569H59.7983L60.6716 14.3482H70.7354C71.1755 14.3482 71.6111 14.2579 72.0175 14.0824C72.4242 13.907 72.7935 13.6498 73.1047 13.3256C73.416 13.0014 73.6626 12.6165 73.8313 12.1929C73.9996 11.7693 74.0862 11.3153 74.0862 10.8569V9.10837C74.0865 8.64964 74.0003 8.19535 73.832 7.77144C73.6636 7.34753 73.417 6.96231 73.1058 6.63784C72.7945 6.31332 72.4249 6.0559 72.0182 5.88026C71.6114 5.70465 71.1755 5.61426 70.7354 5.61426H64.8684C64.6461 5.61426 64.4332 5.52229 64.2758 5.35859C64.1188 5.1949 64.0306 4.97291 64.0306 4.74141C64.0306 4.50994 64.1188 4.28792 64.2758 4.12423C64.4332 3.96055 64.6461 3.86859 64.8684 3.86859H74.0889Z" fill="white"/>
    <path d="M79.1098 10.8569H75.7563V14.351H79.1098V10.8569Z" fill="white"/>
    <path d="M6.99102 3.86859H13.6984L11.9794 0.374451H0.283691V7.36275C0.283691 9.21538 0.990044 10.9922 2.24741 12.3022C3.50477 13.6122 5.21013 14.3482 6.98831 14.3482H13.6957V5.61426H10.342V10.8569H6.98831C6.09886 10.8569 5.24585 10.4887 4.61693 9.83346C3.98797 9.17819 3.63467 8.28944 3.63467 7.36275V3.86859H6.99102Z" fill="white"/>
    <path d="M87.4929 3.86859H94.2002L92.4812 0.374451H80.7856V7.36275C80.7863 9.21563 81.4933 10.9924 82.7509 12.3023C84.0089 13.6123 85.7145 14.3482 87.4929 14.3482H94.2002V5.61426H90.8464V10.8569H87.4929C86.6032 10.8569 85.7502 10.4887 85.1216 9.83346C84.4926 9.17819 84.1391 8.28944 84.1391 7.36275V3.86859H87.4929Z" fill="white"/>
    <path d="M102.558 3.86859H109.263L107.547 0.374451H95.8511V7.36275C95.8518 9.21563 96.5587 10.9924 97.8164 12.3023C99.0744 13.6123 100.78 14.3482 102.558 14.3482H109.263V5.61426H105.909V10.8569H102.558C101.669 10.8569 100.816 10.4887 100.187 9.83346C99.558 9.17819 99.2046 8.28944 99.2046 7.36275V3.86859H102.558Z" fill="white"/>
    <path d="M58.966 0.374451H55.6126H45.5542L47.1942 3.86859H53.9369L53.4965 5.61422H50.5834V9.10837H53.4965L53.9369 10.8569H45.5542V14.3482H58.966L57.2907 7.36271L58.966 0.374451Z" fill="white"/>
  </g>
  <defs>
    <clipPath id="clip0_1385_2750">
      <rect width="109" height="14" fill="white" transform="translate(0.283691 0.374451)"/>
    </clipPath>
  </defs>
</svg>