<svg xmlns="http://www.w3.org/2000/svg" width="132" height="55" viewBox="0 0 132 55" fill="none">
  <path d="M51.9067 23.0722H48.2773V31.7106H50.1492V24.9441H50.6865L53.678 31.7106H55.7232L51.9067 23.0722Z" fill="white"/>
  <path d="M84.5781 31.7106H86.45V23.0722H84.5781V31.7106Z" fill="white"/>
  <path d="M59.5392 23.0722L55.7227 31.7106H57.7713L60.7594 24.9441H61.2967V31.7106H63.1686V23.0722H59.5392Z" fill="white"/>
  <path d="M71.5402 23.0722H68.1154L64.2988 31.7106H66.344L67.5885 28.8958H72.0671L73.3116 31.7106H75.3568L71.5402 23.0722ZM68.417 27.0239L69.3356 24.9441H70.32L71.2386 27.0239H68.417Z" fill="white"/>
  <path d="M80.7601 23.0722H76.4375V31.7106H78.3094V24.9441H79.54L82.5315 31.7106H84.5767L80.7601 23.0722Z" fill="white"/>
  <path d="M87.4902 23.0722V24.9441H91.8579V31.7106H93.7298V24.9441H98.0975V23.0722H87.4902Z" fill="white"/>
  <path d="M101.009 23.0722H99.1367V31.7106H107.283V29.8387H101.009V23.0722Z" fill="white"/>
  <path d="M117.162 24.9441V23.0722H108.322V31.7106H117.162V29.8387H110.194V28.2025H116.236V26.3307H110.194V24.9441H117.162Z" fill="white"/>
  <path d="M19.3337 23.3012L15.1809 21.1867C14.8551 21.8245 14.5812 22.4936 14.3594 23.1764L18.7929 24.6115C18.9385 24.1609 19.1188 23.7207 19.3337 23.3012Z" fill="white"/>
  <path d="M22.8585 19.5747L25.1602 23.5368C25.4964 23.3427 25.8569 23.1937 26.2278 23.0931L25.0389 18.67C25.3404 18.5902 25.6489 18.5209 25.9609 18.4724L25.2295 13.869C24.5224 13.9799 23.8187 14.1497 23.1392 14.3716L24.5605 18.7324C24.1064 18.8814 23.6661 19.0651 23.2432 19.2801L21.153 15.2001C20.5186 15.5259 19.9016 15.9038 19.3262 16.3267L22.0751 20.0912C22.3246 19.904 22.5881 19.7342 22.8585 19.5747Z" fill="white"/>
  <path d="M35.2024 22.8575L31.2402 25.1592C31.4344 25.4955 31.5869 25.856 31.6874 26.2269L36.1106 25.0344C36.1938 25.336 36.2596 25.6445 36.3082 25.9531L40.9116 25.2216C40.8007 24.5145 40.6308 23.8108 40.4055 23.1314L36.0482 24.5561C35.8991 24.102 35.7154 23.6617 35.5005 23.2388L39.5805 21.1451C39.2546 20.5108 38.8768 19.8937 38.4539 19.3183L34.6928 22.0672C34.8731 22.3237 35.0429 22.5871 35.2024 22.8575Z" fill="white"/>
  <path d="M33.5874 15.1794C32.9496 14.8535 32.2805 14.5797 31.5977 14.3578L30.166 18.7914C30.6132 18.937 31.0534 19.1173 31.4763 19.3322L33.5874 15.1794Z" fill="white"/>
  <path d="M31.9314 19.4951L29.6055 23.5335C29.9417 23.7276 30.2537 23.9668 30.5275 24.2406L37.0514 17.6925C36.5453 17.1864 35.9941 16.7184 35.4187 16.299L32.7287 20.0116C32.4722 19.8244 32.2088 19.6511 31.9314 19.4951Z" fill="white"/>
  <path d="M19.4934 22.8434L23.5283 25.1729C23.7224 24.8366 23.9616 24.5246 24.2354 24.2473L17.6943 17.72C17.1882 18.2261 16.7202 18.7773 16.3008 19.3527L20.0099 22.0461C19.8261 22.3027 19.6528 22.5696 19.4934 22.8434Z" fill="white"/>
  <path d="M28.7997 18.393L29.5034 13.8623C28.8066 13.7549 28.096 13.6994 27.3854 13.6994H27.375V22.9409H27.3854C27.7736 22.9409 28.1619 22.9894 28.5328 23.09L29.7287 18.5871C29.4237 18.5039 29.1152 18.4415 28.7997 18.393Z" fill="white"/>
  <path d="M23.0878 26.2443L18.5849 25.0449C18.5052 25.35 18.4393 25.6619 18.3908 25.9739L13.8602 25.2668C13.7527 25.9635 13.6973 26.6811 13.6973 27.3917H22.9388C22.9388 27 22.9908 26.6152 23.0878 26.2443Z" fill="white"/>
  <path d="M35.4453 31.4819L39.5981 33.5964C39.9239 32.9586 40.1978 32.2896 40.4196 31.6067L35.9861 30.1716C35.8405 30.6222 35.6602 31.0624 35.4453 31.4819Z" fill="white"/>
  <path d="M31.9167 35.2051L29.6184 31.243C29.2822 31.4371 28.9217 31.5862 28.5508 31.6867L29.7398 36.1099C29.4382 36.1896 29.1297 36.2589 28.8177 36.3074L29.5491 40.9109C30.2563 40.7999 30.96 40.6301 31.6394 40.4082L30.2181 36.0475C30.6722 35.8984 31.1125 35.7147 31.5354 35.4998L33.6256 39.5798C34.26 39.2539 34.877 38.8761 35.4525 38.4532L32.707 34.6886C32.454 34.8793 32.1905 35.0491 31.9167 35.2051Z" fill="white"/>
  <path d="M19.5764 31.9258L23.5385 29.6241C23.3444 29.2879 23.1919 28.9274 23.0914 28.5565L18.6682 29.7489C18.585 29.4473 18.5191 29.1388 18.4706 28.8303L13.8672 29.5617C13.9781 30.2689 14.148 30.9726 14.3733 31.652L18.7306 30.2273C18.8797 30.6779 19.0634 31.1216 19.2783 31.5445L15.1983 33.6383C15.5241 34.2726 15.902 34.8896 16.3249 35.4651L20.086 32.7162C19.9057 32.4597 19.7359 32.1962 19.5764 31.9258Z" fill="white"/>
  <path d="M21.1914 39.6038C21.8292 39.9297 22.4983 40.2035 23.1811 40.4254L24.6128 35.9918C24.1656 35.8462 23.7254 35.666 23.3025 35.451L21.1914 39.6038Z" fill="white"/>
  <path d="M22.8445 35.2882L25.1705 31.2498C24.8343 31.0557 24.5223 30.8165 24.2484 30.5427L17.7246 37.0908C18.2307 37.5969 18.7819 38.0648 19.3573 38.4843L22.0473 34.7717C22.3038 34.9554 22.5707 35.1288 22.8445 35.2882Z" fill="white"/>
  <path d="M35.2831 31.9396L31.2482 29.6102C31.054 29.9464 30.8149 30.2584 30.541 30.5357L37.0856 37.063C37.5917 36.5569 38.0597 36.0057 38.4791 35.4303L34.7701 32.7369C34.9538 32.4769 35.1271 32.2135 35.2831 31.9396Z" fill="white"/>
  <path d="M26.2408 31.6933L25.0449 36.1962C25.35 36.2759 25.6619 36.3418 25.9739 36.3903L25.2702 40.9209C25.967 41.0284 26.6776 41.0839 27.3882 41.0839H27.3986V31.8424H27.3882C27 31.8424 26.6118 31.7904 26.2408 31.6933Z" fill="white"/>
  <path d="M31.8405 27.3917C31.8405 27.7834 31.7919 28.1682 31.6914 28.5391L36.1943 29.7385C36.274 29.4335 36.3399 29.1215 36.3884 28.8095L40.9191 29.5166C41.0265 28.8199 41.082 28.1023 41.082 27.3917H31.8405Z" fill="white"/>
</svg>