<svg xmlns="http://www.w3.org/2000/svg" width="93" height="19" viewBox="0 0 93 19" fill="none">
  <g clip-path="url(#clip0_1385_2685)">
    <path d="M25.5124 14.6801C23.9873 14.6743 22.7715 13.4923 22.7356 11.9729C22.6997 10.4541 21.7537 9.36873 20.2708 9.14594C18.7789 8.92211 17.2622 10.1764 17.2104 11.6931C17.1867 12.3858 17.0568 13.034 16.6176 13.5936C15.8743 14.5407 14.6405 14.9192 13.5208 14.5402C12.3969 14.1596 11.6351 13.1159 11.623 11.917C11.6145 11.1072 11.331 10.4156 10.7345 9.87447C9.91675 9.13169 8.95753 8.91841 7.92018 9.29904C6.88704 9.67756 6.281 10.4457 6.12051 11.5432C6.07881 11.8293 6.09623 12.1255 6.04027 12.4079C5.76575 13.7927 4.62809 14.6965 3.21222 14.6727C1.88557 14.6505 0.770612 13.6607 0.545192 12.3045C0.277538 10.6943 1.57304 9.14067 3.20694 9.11321C4.88677 9.08471 6.03816 7.94335 6.0693 6.27672C6.09781 4.76371 7.34211 3.5569 8.8699 3.56059C10.3861 3.56482 11.605 4.76319 11.6325 6.27831C11.6605 7.81718 12.7469 8.99549 14.2436 9.10952C15.7555 9.2246 17.1466 7.97397 17.1598 6.44935C17.1788 4.28173 19.1796 3.09814 20.9143 3.72372C22.0145 4.12071 22.733 5.14962 22.7499 6.36594C22.7657 7.51574 23.4372 8.50717 24.5168 8.90997C24.8314 9.02716 25.1814 9.09738 25.5167 9.10424C26.989 9.13644 28.171 10.2208 28.2925 11.6863C28.4096 13.1006 27.4108 14.3829 25.9844 14.6426C25.8297 14.6706 25.6692 14.6685 25.5119 14.6801H25.5124Z" fill="white"/>
    <path d="M33.9405 4.92367H36.6265V6.01276C37.5588 5.07254 38.65 4.73098 39.8785 4.77744C41.1164 4.82442 42.1469 5.28582 42.8966 6.34007C43.3089 5.85597 43.7792 5.46795 44.3478 5.21403C45.5858 4.6613 46.8565 4.59689 48.1213 5.07254C49.419 5.56034 50.0905 6.57922 50.3059 7.91379C50.374 8.33718 50.4067 8.77007 50.4093 9.19873C50.4204 10.9493 50.4141 12.6993 50.4136 14.4499C50.4136 14.5101 50.4078 14.5703 50.4035 14.6511H47.5586C47.5586 14.5397 47.5586 14.4367 47.5586 14.3343C47.5586 12.6983 47.5697 11.0623 47.5501 9.42627C47.5454 9.05567 47.4762 8.67135 47.3601 8.3187C47.1479 7.67411 46.6654 7.32569 45.988 7.25548C44.6593 7.11822 43.6715 7.89742 43.6209 9.23674C43.557 10.9229 43.586 12.6122 43.5755 14.3005C43.5749 14.413 43.5755 14.5249 43.5755 14.6547H40.7184V14.3507C40.7184 12.6972 40.7184 11.0433 40.7184 9.38984C40.7184 8.92633 40.654 8.47655 40.4323 8.06319C40.2221 7.67147 39.9028 7.41702 39.4672 7.30616C38.1881 6.98043 37.1011 7.653 36.8451 8.94692C36.7907 9.22091 36.7669 9.50545 36.7653 9.78525C36.758 11.2983 36.7617 12.8113 36.7617 14.3237V14.6532H33.9399V4.92367H33.9405Z" fill="white"/>
    <path d="M89.3754 13.6162C87.8956 15.0184 86.2147 15.1044 84.4742 14.4873C82.7025 13.8591 81.7702 12.4918 81.5105 10.6589C81.3405 9.45731 81.4598 8.28217 82.0532 7.2047C82.9274 5.61725 84.3227 4.84702 86.106 4.78315C87.4738 4.73405 87.9526 4.9241 89.2196 5.86062V4.93835H92.0588V14.6541H89.3754V13.6168V13.6162ZM89.3004 9.80785C89.2735 9.56395 89.2672 9.31583 89.2154 9.07721C89.0032 8.09846 88.4267 7.42748 87.4464 7.18939C86.4565 6.94866 85.5728 7.18411 84.9055 7.99288C84.348 8.66914 84.2514 9.47421 84.3649 10.3099C84.6595 12.4765 86.9042 12.9453 88.1701 12.0985C88.9837 11.5542 89.2862 10.7555 89.3004 9.80838V9.80785Z" fill="white"/>
    <path d="M52.4651 4.91295C53.4248 4.91295 54.3386 4.90714 55.2519 4.92298C55.3327 4.92456 55.4462 5.04915 55.4853 5.14153C56.2481 6.96443 57.0015 8.79049 57.7574 10.616C57.873 10.8953 57.9913 11.174 58.1286 11.5019C58.4733 10.6762 58.7974 9.90228 59.12 9.12783C59.6701 7.80645 60.2239 6.48666 60.765 5.1616C60.8447 4.96627 60.945 4.90344 61.154 4.90767C61.8752 4.92192 62.5963 4.91295 63.318 4.91348C63.4024 4.91348 63.4864 4.92034 63.6067 4.92562C63.3824 5.45617 63.1733 5.95558 62.9611 6.45393C61.6856 9.45144 60.415 12.4516 59.129 15.4443C58.9394 15.8857 58.7114 16.3191 58.4427 16.7166C57.5896 17.9778 56.3347 18.4007 54.875 18.3326C54.2204 18.3019 53.589 18.1462 53.0057 17.8363C52.8061 17.7302 52.6224 17.5951 52.4165 17.4641C52.7707 16.7747 53.1102 16.1132 53.4248 15.5003C53.8604 15.674 54.2647 15.9121 54.6982 15.9928C55.7081 16.1818 56.2402 15.7738 56.6398 14.832C56.6731 14.7544 56.6314 14.6287 56.5928 14.539C55.2541 11.4153 53.9121 8.29372 52.5701 5.17163C52.54 5.10089 52.5121 5.02962 52.4651 4.91348V4.91295Z" fill="white"/>
    <path d="M66.2798 4.93088H68.9859V6.13664C69.8928 5.08926 71.0316 4.78254 72.3128 4.77515V7.36669C72.0446 7.36669 71.7844 7.35665 71.5246 7.36827C70.5501 7.41209 69.7424 7.76262 69.3565 8.71815C69.2029 9.09931 69.1274 9.53536 69.1194 9.94872C69.092 11.4174 69.1089 12.8871 69.1089 14.3563V14.6556H66.2803V4.93088H66.2798Z" fill="white"/>
    <path d="M78.0832 14.6588H75.2837V4.93408H78.0832V14.6588Z" fill="white"/>
    <path d="M76.7522 3.57548C75.7022 3.58023 74.9684 2.96468 74.9209 2.08147C74.8734 1.20038 75.5259 0.484528 76.4672 0.416955C76.7348 0.39795 77.0162 0.418539 77.2759 0.481889C78.0652 0.674578 78.5049 1.31177 78.4458 2.12529C78.3914 2.87018 77.7648 3.4794 76.9645 3.56281C76.8773 3.57178 76.7892 3.57336 76.7517 3.57548H76.7522Z" fill="white"/>
  </g>
  <defs>
    <clipPath id="clip0_1385_2685">
      <rect width="91.5496" height="17.9291" fill="white" transform="translate(0.510254 0.409912)"/>
    </clipPath>
  </defs>
</svg>