<svg xmlns="http://www.w3.org/2000/svg" width="104" height="23" viewBox="0 0 104 23" fill="none">
  <g clip-path="url(#clip0_1385_2676)">
    <path d="M80.4647 8.18419C80.4647 7.39133 80.0624 6.9949 79.2577 6.9949C78.4141 6.9949 78.4091 6.99406 78.1795 7.81664C78.1164 8.04373 78.0331 8.06224 77.8741 7.90327C77.0011 7.02686 75.9287 6.75099 74.7226 6.82248C73.2095 6.91164 72.0446 7.60132 71.2447 8.86126C70.4314 10.1439 70.2893 11.5527 70.619 13.0255C71.1404 15.3569 73.3121 16.87 75.6621 16.5294C76.4107 16.4209 77.1062 16.193 77.6899 15.6909C77.9103 15.5016 78.0045 15.5681 78.0028 15.8422C78.0003 16.1778 78.0045 16.5143 78.0028 16.8507C77.9936 18.0392 77.3703 18.8567 76.2736 19.1216C74.996 19.4295 73.9 18.9938 73.3676 17.9517C73.2734 17.7675 73.1641 17.6691 72.9521 17.6716C72.3499 17.6783 71.7469 17.6783 71.1446 17.6724C70.8351 17.6691 70.7544 17.8163 70.8133 18.0989C70.9436 18.7297 71.2153 19.2865 71.6367 19.7743C72.5812 20.8694 73.8378 21.2857 75.2197 21.369C76.4157 21.4405 77.5823 21.2395 78.6034 20.5801C79.9138 19.7339 80.4554 18.4546 80.4622 16.9272C80.468 15.4141 80.463 13.901 80.4638 12.3879C80.4647 10.9867 80.4647 9.58544 80.4647 8.18419ZM75.4274 14.3695C73.9656 14.3426 72.9622 13.2315 72.9656 11.6427C72.9698 10.0901 74.0153 9.01518 75.5157 9.02191C76.9481 9.0278 78.0062 10.1607 78.0028 11.6831C77.9986 13.2189 76.8707 14.3956 75.4274 14.3695Z" fill="white"/>
    <path d="M35.4953 7.71234C35.0344 8.13035 34.9915 8.11521 34.9091 7.47094C34.8603 7.08825 34.6895 6.96966 34.3329 6.99153C34.0116 7.01087 33.6887 6.99489 33.3657 6.99489C32.9143 6.99545 32.6883 7.21554 32.6878 7.65514C32.6869 9.78476 32.6878 11.9144 32.6878 14.044C32.6869 15.0382 32.6869 16.0332 32.6878 17.0282C32.6878 18.2469 32.6962 19.4656 32.6827 20.6843C32.6785 21.0292 32.798 21.1638 33.1453 21.1511C33.6769 21.1318 34.2101 21.1385 34.7425 21.1478C35.0302 21.1528 35.1471 21.0258 35.1404 20.7432C35.1311 20.3656 35.1395 19.9871 35.1395 19.6086C35.1395 18.5858 35.1378 17.5631 35.142 16.5403C35.142 16.4201 35.0865 16.256 35.2161 16.193C35.3574 16.1232 35.4255 16.2914 35.513 16.3696C35.6795 16.5193 35.8292 16.6842 36.0277 16.7977C37.831 17.828 40.2777 17.3856 41.6007 15.7859C43.2358 13.8093 43.2879 10.6023 41.7454 8.55089C40.1641 6.44903 37.0126 6.33632 35.4953 7.71234ZM39.6393 14.2181C38.9757 14.9894 38.1161 15.235 37.1329 14.9784C36.1261 14.7152 35.5256 14.0112 35.2909 13.0406C35.01 11.8749 35.1185 10.7545 36.0201 9.83859C36.5525 9.29693 37.0227 9.10517 37.783 9.10517C38.8807 9.10601 39.8605 9.79569 40.1919 10.8588C40.5653 12.0607 40.4972 13.2206 39.6393 14.2181Z" fill="white"/>
    <path d="M69.8899 6.99249C69.2877 7.00343 68.6846 7.00679 68.0824 6.99081C67.7897 6.98324 67.6619 7.11445 67.5744 7.37687C67.2548 8.33318 66.91 9.28108 66.5878 10.2365C66.2034 11.3779 65.8342 12.5251 65.4524 13.6682C65.4027 13.8162 65.3968 14.0298 65.1622 14.0231C64.9578 14.0164 64.8922 13.8406 64.8291 13.6867C64.6811 13.3242 64.5373 12.9591 64.401 12.5916C63.7719 10.8993 63.1385 9.20874 62.5254 7.5106C62.3925 7.14221 62.2075 6.9639 61.7945 6.98829C61.2495 7.02025 60.7011 7.01436 60.1552 6.98997C59.7523 6.97231 59.7187 7.10267 59.8541 7.4492C60.7532 9.75713 61.6355 12.0726 62.5237 14.3848C62.9148 15.4033 63.3269 16.4151 63.692 17.4438C63.962 18.2041 63.4683 18.8635 62.6734 18.8669C62.1831 18.8694 61.6927 18.8703 61.2015 18.8686C60.9988 18.8686 60.8962 18.9333 60.9063 19.1655C60.9282 19.6827 60.9341 20.2017 60.9273 20.7198C60.9231 21.0201 61.035 21.1588 61.3454 21.1496C61.7373 21.137 62.1301 21.1462 62.5229 21.1471C62.803 21.1471 63.0839 21.1487 63.364 21.1471C64.7332 21.1403 65.4103 20.7047 65.8872 19.4212C66.5113 17.7424 67.0883 16.0459 67.6905 14.3595C68.1699 13.0155 68.6603 11.6756 69.1405 10.3316C69.4887 9.35677 69.8235 8.37691 70.1742 7.40294C70.2793 7.11024 70.2129 6.98829 69.8899 6.99418V6.99249Z" fill="white"/>
    <path d="M87.3241 6.82513C84.4686 6.69644 82.1481 9.00942 82.1397 12.0323C82.1313 15.1174 84.3105 17.3546 87.3132 17.353C90.3032 17.3513 92.4816 15.1207 92.4791 12.0642C92.4757 9.02624 90.3108 6.82597 87.3241 6.82513ZM88.2771 14.8701C86.9397 15.3806 85.4359 14.7666 84.8925 13.4402C84.4703 12.4108 84.4972 11.3787 85.0431 10.4056C85.6108 9.39211 86.8119 8.88494 87.8759 9.14735C89.0433 9.435 89.881 10.4418 89.9525 11.6496C89.9617 11.8027 89.9542 11.9574 89.9542 12.044C90.0694 13.4562 89.0778 14.5639 88.2771 14.8701Z" fill="white"/>
    <path d="M49.2466 6.82506C46.5114 6.70731 44.0596 8.94458 44.1009 12.0019C44.1429 15.1417 46.2179 17.3478 49.2298 17.3495C52.2324 17.352 54.3915 15.1694 54.3949 12.1306C54.3982 8.99421 52.2947 6.8259 49.2466 6.82506ZM51.24 14.1114C50.5259 14.9894 49.4628 15.2653 48.3954 14.9121C47.4122 14.5866 46.6535 13.5865 46.5736 12.504C46.5635 12.3653 46.572 12.224 46.572 12.0843C46.5526 11.1894 46.8007 10.3845 47.4913 9.78651C49.0725 8.41386 51.356 9.16579 51.8245 11.2113C52.0642 12.2568 51.9339 13.2585 51.24 14.1114Z" fill="white"/>
    <path d="M103.495 10.6974C103.488 9.8815 103.226 9.12621 102.781 8.44494C101.445 6.39606 98.3292 6.41877 96.8842 7.66273C96.5251 7.97225 96.4502 7.95374 96.3821 7.4819C96.3249 7.08575 96.1281 6.96884 95.7588 6.9907C95.3955 7.01173 95.0296 7.01341 94.6663 6.9907C94.2886 6.96715 94.1482 7.10089 94.1532 7.49283C94.1709 9.0194 94.1608 10.5468 94.1608 12.0742C94.1608 13.6294 94.1667 15.1845 94.1557 16.7397C94.1532 17.0643 94.2651 17.1947 94.5948 17.1829C95.0708 17.1653 95.5477 17.1796 96.0238 17.1787C96.6058 17.1771 96.6092 17.1754 96.61 16.5925C96.6117 14.8414 96.6008 13.0902 96.6151 11.3391C96.6243 10.2474 97.4048 9.38611 98.5352 9.17331C99.5084 8.98912 100.48 9.52489 100.883 10.4677C101.035 10.8235 101.057 11.2003 101.057 11.5805C101.057 13.2896 101.063 14.9986 101.052 16.7077C101.05 17.0383 101.139 17.1989 101.501 17.1838C102.018 17.1619 102.538 17.1678 103.056 17.1821C103.371 17.1913 103.513 17.0879 103.511 16.7506C103.499 14.7329 103.513 12.716 103.495 10.6982V10.6974Z" fill="white"/>
    <path d="M25.5606 3.74602C23.5715 2.59038 21.5773 1.4423 19.5831 0.295062C19.2626 0.110865 18.9035 0.0620825 18.5822 0.242915C17.6957 0.740836 16.8277 1.26988 15.9521 1.7863C14.8579 2.34141 13.8326 3.01849 12.7526 3.59883C12.1883 3.90246 11.978 4.30702 11.9822 4.94793C12.0049 8.84382 11.9898 12.7397 12.0007 16.6348C12.0015 16.9409 11.9116 17.1125 11.6416 17.2597C10.9931 17.6121 10.364 18.0007 9.72642 18.375C9.17047 18.6912 8.61535 19.01 8.05687 19.3237C7.90464 19.4095 7.77847 19.4995 7.56652 19.3742C6.33265 18.6416 5.08701 17.93 3.83969 17.221C3.65044 17.1133 3.56549 16.9989 3.56802 16.7668C3.58063 15.3546 3.58063 13.9416 3.56886 12.5286C3.56634 12.2653 3.66811 12.1333 3.89099 12.0113C4.38975 11.7371 4.86917 11.4285 5.35616 11.1341C6.02398 10.7632 6.70946 10.4192 7.35289 10.0104C7.6767 9.80433 7.90043 9.83882 8.20406 10.0255C8.95767 10.4881 9.73399 10.9137 10.5532 11.3839C10.5532 10.3611 10.5423 9.41239 10.5599 8.46449C10.565 8.18862 10.4758 8.03049 10.2361 7.90097C9.59942 7.55612 8.96945 7.19782 8.34789 6.82691C7.97529 6.60486 7.60185 6.58888 7.23934 6.79326C6.37891 7.27941 5.5311 7.78742 4.67825 8.28618C3.59073 8.91111 2.51246 9.55369 1.4098 10.1517C0.900947 10.4267 0.712544 10.8027 0.71675 11.3671C0.734412 13.5522 0.736095 15.7382 0.715909 17.9233C0.710862 18.4818 0.921974 18.8409 1.39803 19.1126C3.33588 20.2178 5.26448 21.3398 7.19645 22.4559C7.56652 22.6695 7.94585 22.6737 8.3092 22.4651C9.26383 21.9176 10.21 21.3549 11.1588 20.7981C12.1277 20.248 13.0899 19.6845 14.0689 19.1521C14.6097 18.8577 14.8234 18.4431 14.8209 17.8266C14.804 13.9467 14.8166 10.0668 14.8049 6.186C14.804 5.83611 14.9016 5.63593 15.217 5.46435C16.0127 5.03288 16.7839 4.55598 17.5653 4.09759C17.9547 3.88144 18.3593 3.68799 18.7285 3.44155C18.9531 3.29184 19.1062 3.30698 19.3282 3.43819C20.5175 4.13881 21.7144 4.82765 22.9171 5.50641C23.1568 5.64182 23.2384 5.80247 23.2359 6.07414C23.2233 7.44678 23.2216 8.82027 23.2367 10.1929C23.2401 10.4705 23.1543 10.6219 22.9079 10.7455C22.5386 10.9305 22.1904 11.1593 21.8338 11.3687C21.0264 11.8339 20.2113 12.2864 19.4148 12.7708C19.1289 12.9449 18.9085 12.9424 18.6268 12.7691C17.9387 12.3469 17.2314 11.9567 16.535 11.5471C16.3289 11.4259 16.244 11.452 16.2465 11.7102C16.2541 12.6186 16.2532 13.5278 16.2465 14.437C16.2448 14.6178 16.3264 14.7095 16.4736 14.7936C17.1641 15.1856 17.8445 15.5935 18.5368 15.9812C18.8471 16.1553 19.1903 16.1595 19.4964 15.9854C20.7412 15.2764 21.9776 14.5522 23.2174 13.8331C23.992 13.3932 24.7683 12.955 25.5421 12.5143C25.9013 12.3091 26.0787 11.9928 26.0787 11.5824C26.0804 9.28455 26.0787 6.98755 26.0804 4.68972C26.0804 4.27674 25.9122 3.94872 25.5598 3.74434L25.5606 3.74602Z" fill="white"/>
    <path d="M58.6168 10.2086C58.6118 10.2086 58.6068 10.2086 58.6017 10.2086C58.6017 8.0109 58.5967 5.81315 58.6068 3.61624C58.6084 3.26131 58.4991 3.10318 58.1257 3.12001C57.6504 3.14103 57.1736 3.1301 56.6983 3.12085C56.155 3.10991 56.1533 3.10402 56.1533 3.65157C56.1533 7.96296 56.1533 12.2735 56.1533 16.5849C56.1533 16.669 56.1575 16.7531 56.155 16.8372C56.1483 17.0601 56.2467 17.177 56.478 17.1762C57.0936 17.1745 57.7102 17.1728 58.3258 17.1779C58.563 17.1795 58.6244 17.0811 58.6236 16.8439C58.6135 14.6327 58.6177 12.4215 58.6177 10.2103L58.6168 10.2086Z" fill="white"/>
  </g>
  <defs>
    <clipPath id="clip0_1385_2676">
      <rect width="102.795" height="22.4889" fill="white" transform="translate(0.71582 0.130005)"/>
    </clipPath>
  </defs>
</svg>