<svg xmlns="http://www.w3.org/2000/svg" width="117" height="21" viewBox="0 0 117 21" fill="none">
  <g clip-path="url(#clip0_1385_2673)">
    <path d="M17.9775 3.06427V5.76787L20.4257 7.12551V13.0584L17.9775 14.4146V17.1141L12.6478 20.0716L10.9718 19.1416V11.0294L2.90062 6.55034L0.915052 7.6512V12.5211L2.89875 13.6219L5.03746 12.4422L5.04492 12.3633C5.09441 11.9006 5.48284 11.55 5.95017 11.55C6.45532 11.55 6.86569 11.9557 6.86569 12.4566C6.86569 12.9576 6.45532 13.3619 5.95017 13.3619C5.81572 13.3619 5.68313 13.3297 5.55287 13.2685L5.48284 13.2335L3.36328 14.403V16.5842L7.77794 19.0338L8.53846 18.6117V17.7901L4.276 15.4282V14.9539L4.78395 14.6738L8.53846 16.7527V10.7236L9.45398 11.2302V19.1426L7.77794 20.0726L2.44823 17.115V14.4114L0 13.0523V7.11944L2.44823 5.7632V3.0638L7.77794 0.106689L9.45398 1.03668V9.1489L17.5251 13.6275L19.5107 12.5267V7.6568L17.527 6.55594L15.3883 7.7357L15.3794 7.8146C15.3313 8.27773 14.9401 8.62928 14.4742 8.62788C13.9704 8.62788 13.5605 8.22077 13.5605 7.72123C13.5605 7.22169 13.9709 6.81598 14.4742 6.81598C14.6086 6.81598 14.7426 6.8482 14.8715 6.90935L14.9429 6.94437L17.0625 5.77488V3.59369L12.6478 1.14406L11.8873 1.5661V2.38778L16.1497 4.74964V5.22398L15.6404 5.5041L15.0316 5.16702L15.0288 5.16842L11.8873 3.42562V9.43882L10.9718 8.93087V1.03668L12.6478 0.106689L17.9775 3.06427ZM3.36328 5.25526L8.53846 2.38825V1.56657L7.77794 1.14453L3.36328 3.59416V5.25526ZM8.53846 8.64048V3.42609L3.83762 6.03025L8.53846 8.64048ZM11.8873 16.7513L16.5881 14.1471L11.8873 11.5369V16.7513ZM12.6478 19.0329L17.0625 16.5832V14.9221L11.8873 17.7891V18.6108L12.6478 19.0329Z" fill="white"/>
    <path d="M84.7225 9.45111C85.1501 9.64533 85.5344 9.8993 85.87 10.213C86.1604 10.4815 86.4247 10.8391 86.6614 11.2873C86.8995 11.7355 87.0176 12.2798 87.0176 12.9208C87.0176 13.4582 86.9023 13.9703 86.673 14.455C86.4438 14.9396 86.1184 15.3644 85.6978 15.7309C85.2771 16.096 84.7794 16.3906 84.2057 16.6156C83.6333 16.8388 83.0026 16.9513 82.3139 16.9513H76.1187V2.84827H82.0852C82.7112 2.84827 83.2925 2.95191 83.828 3.1606C84.3639 3.37069 84.8266 3.65407 85.2164 4.01169C85.6063 4.36931 85.9083 4.78388 86.1231 5.25401C86.3378 5.72414 86.4443 6.22789 86.4443 6.76478C86.4443 7.24378 86.3523 7.65369 86.1684 7.99683C85.9858 8.33998 85.786 8.61589 85.5726 8.82458C85.3205 9.07295 85.0348 9.28351 84.7229 9.45065L84.7225 9.45111ZM78.8732 8.55614H81.8555C82.3751 8.55614 82.8102 8.38807 83.1622 8.05239C83.5142 7.71672 83.6907 7.32548 83.6907 6.8773C83.6907 6.42911 83.5142 6.03788 83.1622 5.7022C82.8102 5.36653 82.3756 5.19846 81.8555 5.19846H78.8732V8.55614ZM82.0847 14.5997C82.7271 14.5997 83.2509 14.4069 83.6557 14.0189C84.0614 13.6305 84.2645 13.1533 84.2645 12.5852C84.2645 12.017 84.0614 11.5413 83.6557 11.1533C83.2514 10.7649 82.7271 10.5707 82.0847 10.5707H78.8732V14.5997H82.0847ZM44.1572 10.7355L42.2169 16.8565H39.9368L36.5151 6.61725H39.1384L41.1908 13.1837L43.3584 6.61725H44.9555L47.1218 13.1837L49.176 6.61725H51.7993L48.3776 16.8565H46.0961L44.1577 10.7355H44.1572ZM52.8254 16.8565V6.61725H55.4502V16.8565H52.8254ZM98.5794 11.7369C98.5794 12.4638 98.438 13.144 98.1574 13.7733C97.8759 14.4055 97.4945 14.9573 97.0159 15.4316C96.5369 15.9074 95.9823 16.2827 95.3502 16.5558C94.7194 16.8318 94.0467 16.969 93.3314 16.969C92.6162 16.969 91.9444 16.8318 91.3127 16.5558C90.682 16.2827 90.1273 15.9078 89.6483 15.4316C89.1679 14.9573 88.7884 14.4055 88.5069 13.7733C88.2254 13.144 88.0848 12.4638 88.0848 11.7369C88.0848 11.01 88.2249 10.3311 88.5069 9.70042C88.7889 9.06969 89.1679 8.51785 89.6483 8.04212C90.1273 7.56779 90.682 7.19243 91.3127 6.91791C91.9449 6.6434 92.6162 6.50614 93.3314 6.50614C94.0467 6.50614 94.7199 6.6434 95.3502 6.91791C95.9823 7.19243 96.5369 7.56732 97.0159 8.04212C97.4949 8.51785 97.8759 9.06969 98.1574 9.70042C98.4375 10.3311 98.5794 11.01 98.5794 11.7369ZM90.7081 11.7369C90.7081 12.5838 90.9593 13.2579 91.4612 13.7631C91.9631 14.2682 92.5868 14.5194 93.3314 14.5194C94.0761 14.5194 94.7007 14.2682 95.2031 13.7631C95.7054 13.2579 95.9561 12.5833 95.9561 11.7369C95.9561 10.8905 95.705 10.2158 95.2031 9.71209C94.7007 9.20694 94.0775 8.95437 93.3314 8.95437C92.5854 8.95437 91.9635 9.20694 91.4612 9.71209C90.9588 10.2158 90.7081 10.8919 90.7081 11.7369ZM104.849 6.50614C104.971 6.50614 105.077 6.51361 105.168 6.52808C105.26 6.54255 105.343 6.55889 105.419 6.57337C105.495 6.58784 105.571 6.60278 105.648 6.61725V9.28864C105.571 9.27417 105.488 9.25923 105.397 9.24476C105.32 9.22889 105.225 9.21395 105.111 9.19947C104.997 9.185 104.871 9.17753 104.734 9.17753C104.096 9.17753 103.575 9.38202 103.172 9.78912C102.769 10.1981 102.567 10.735 102.567 11.4021V16.856H99.9427V6.61679H101.883L102.339 7.73072C102.521 7.50756 102.742 7.30728 103.002 7.1294C103.213 6.966 103.476 6.82127 103.788 6.69429C104.099 6.5687 104.453 6.50614 104.849 6.50614ZM35.2597 5.40388C35.4203 5.78484 35.5212 6.18914 35.5693 6.61679H32.9184C32.8353 6.2517 32.6672 5.94684 32.4091 5.70454C32.0281 5.34832 31.4968 5.17044 30.8119 5.17044C30.127 5.17044 29.5943 5.33385 29.2148 5.65972C28.8338 5.98652 28.6438 6.34274 28.6438 6.72837C28.6438 7.14434 28.8263 7.46414 29.1914 7.6859C29.5565 7.90906 30.0131 8.10935 30.5607 8.28722C31.1084 8.4651 31.705 8.65091 32.3521 8.84326C32.9973 9.03607 33.5944 9.29565 34.1421 9.62292C34.6911 9.94832 35.1463 10.376 35.5114 10.9017C35.8764 11.4287 36.059 12.1164 36.059 12.9615C36.059 13.4666 35.9334 13.9554 35.6822 14.4302C35.4311 14.9059 35.0776 15.3322 34.6225 15.7103C34.1654 16.0885 33.6136 16.3934 32.9684 16.6226C32.3218 16.8532 31.6032 16.9685 30.8124 16.9685C30.0215 16.9685 29.2867 16.856 28.6564 16.6343C28.0257 16.4111 27.4883 16.0969 27.0476 15.6884C26.6069 15.2799 26.2679 14.7981 26.0331 14.2416C25.7964 13.6856 25.6797 13.0721 25.6797 12.405H28.4169C28.4169 13.0282 28.6303 13.5362 29.0546 13.9288C29.4809 14.3228 30.0663 14.5184 30.8124 14.5184C31.6182 14.5184 32.2181 14.3522 32.614 14.0175C33.0094 13.6846 33.2083 13.2948 33.2083 12.8494C33.2083 12.404 33.0258 12.0847 32.6607 11.8466C32.2956 11.6099 31.839 11.3984 31.2914 11.2131C30.7438 11.0277 30.1471 10.8452 29.5 10.6673C28.853 10.4894 28.2563 10.2452 27.7087 9.93292C27.161 9.62198 26.7059 9.21768 26.3408 8.72001C25.9757 8.22373 25.7931 7.56685 25.7931 6.75078C25.7931 6.21668 25.9099 5.70407 26.1466 5.21526C26.3814 4.72459 26.7175 4.29834 27.1508 3.93512C27.584 3.5719 28.1083 3.27825 28.7246 3.05462C29.3408 2.83286 30.0355 2.72175 30.8119 2.72175C31.5271 2.72175 32.177 2.83286 32.7625 3.05462C33.3479 3.27778 33.8531 3.58871 34.2793 3.99021C34.7056 4.39032 35.0324 4.86185 35.2602 5.40341L35.2597 5.40388ZM74.0999 12.3718C74.3656 12.75 74.4986 13.2434 74.4986 13.8522C74.4986 14.2682 74.4081 14.6641 74.2255 15.0437C74.043 15.4218 73.7848 15.7519 73.4505 16.0334C73.1149 16.3149 72.7092 16.5414 72.2302 16.7122C71.7498 16.8831 71.2143 16.9676 70.6213 16.9676C69.252 16.9676 68.2142 16.6642 67.5074 16.0568C67.1166 15.722 66.8061 15.3032 66.5993 14.8322L68.7964 13.6309C68.8561 13.9713 69.0242 14.2603 69.2973 14.4979C69.5718 14.736 69.9369 14.8541 70.3935 14.8541C70.8501 14.8541 71.2096 14.7388 71.4766 14.5096C71.7423 14.2789 71.8753 14.0236 71.8753 13.7416C71.8753 13.5035 71.7423 13.3181 71.4766 13.1841C71.2096 13.0511 70.8795 12.9288 70.4841 12.8177C70.0886 12.7065 69.6591 12.5912 69.1951 12.4717C68.731 12.3536 68.3015 12.1799 67.9061 11.9493C67.5106 11.7201 67.1792 11.4222 66.9135 11.059C66.6479 10.6958 66.5148 10.2182 66.5148 9.62385C66.5148 9.20788 66.6026 8.81058 66.7763 8.43242C66.9513 8.05426 67.2067 7.72419 67.541 7.44127C67.8753 7.15975 68.2707 6.93332 68.7277 6.76245C69.1834 6.59298 69.7002 6.50707 70.2782 6.50707C71.5411 6.50707 72.5103 6.80353 73.1877 7.39738C73.5411 7.70691 73.817 8.05846 74.0182 8.44969L71.8753 9.62338C71.8142 9.40022 71.6503 9.178 71.3847 8.95484C71.119 8.73308 70.7875 8.62056 70.3935 8.62056C69.9995 8.62056 69.6899 8.7186 69.4696 8.91095C69.2478 9.10377 69.1381 9.3414 69.1381 9.62338C69.1381 9.86008 69.2712 10.0454 69.5368 10.1794C69.8039 10.3125 70.1339 10.4348 70.5294 10.5473C70.9248 10.6584 71.3543 10.7765 71.8184 10.9021C72.2824 11.0291 72.712 11.2117 73.1074 11.4479C73.5028 11.686 73.8343 11.9936 74.0999 12.3718ZM64.8607 12.3718C65.1264 12.75 65.2594 13.2434 65.2594 13.8522C65.2594 14.2682 65.1688 14.6641 64.9863 15.0437C64.8038 15.4218 64.5456 15.7519 64.2094 16.0334C63.8752 16.3149 63.4695 16.5414 62.9891 16.7122C62.5101 16.8831 61.9746 16.9676 61.3817 16.9676C60.0123 16.9676 58.9745 16.6642 58.2663 16.0568C57.8676 15.7122 57.5669 15.3037 57.3596 14.8322L59.5553 13.6309C59.6164 13.9713 59.7845 14.2603 60.0576 14.4979C60.3321 14.736 60.6972 14.8541 61.1524 14.8541C61.6076 14.8541 61.9699 14.7388 62.2369 14.5096C62.5026 14.2789 62.6356 14.0236 62.6356 13.7416C62.6356 13.5035 62.5026 13.3181 62.2369 13.1841C61.9699 13.0511 61.6398 12.9288 61.2444 12.8177C60.849 12.7065 60.418 12.5912 59.9554 12.4717C59.4913 12.3536 59.0618 12.1799 58.6664 11.9493C58.2709 11.7201 57.9395 11.4222 57.6738 11.059C57.4082 10.6958 57.2751 10.2182 57.2751 9.62385C57.2751 9.20788 57.361 8.81058 57.5366 8.43242C57.7121 8.05426 57.967 7.72419 58.3013 7.44127C58.6356 7.15975 59.031 6.93332 59.4881 6.76245C59.9437 6.59298 60.4605 6.50707 61.0385 6.50707C62.3014 6.50707 63.2706 6.80353 63.948 7.39738C64.3014 7.70691 64.5773 8.05846 64.7785 8.44969L62.6356 9.62338C62.5745 9.40022 62.4106 9.178 62.145 8.95484C61.8793 8.73308 61.5479 8.62056 61.1524 8.62056C60.757 8.62056 60.4489 8.7186 60.2285 8.91095C60.0081 9.1033 59.8984 9.3414 59.8984 9.62338C59.8984 9.86008 60.0315 10.0454 60.2971 10.1794C60.5628 10.3125 60.8942 10.4348 61.2897 10.5473C61.6851 10.6584 62.1146 10.7765 62.5787 10.9021C63.0428 11.0291 63.4723 11.2117 63.8677 11.4479C64.2631 11.686 64.5932 11.9936 64.8603 12.3718H64.8607ZM114.778 6.61725H116.717V16.1893C116.717 17.525 116.279 18.6012 115.404 19.4172C114.53 20.2333 113.295 20.6418 111.698 20.6418C110.724 20.6418 109.937 20.471 109.336 20.1292C108.735 19.7875 108.26 19.4023 107.911 18.9714C107.777 18.8066 107.659 18.6296 107.547 18.449L109.644 17.3028C109.75 17.4942 109.895 17.6646 110.077 17.8136C110.245 17.9317 110.457 18.0442 110.717 18.1478C110.975 18.2515 111.302 18.3042 111.698 18.3042C112.442 18.3042 113.028 18.1072 113.454 17.7146C113.88 17.3206 114.094 16.8126 114.094 16.1889V15.4092C113.88 15.6179 113.637 15.8033 113.364 15.9653C113.12 16.1142 112.831 16.244 112.497 16.3551C112.161 16.4676 111.782 16.5232 111.356 16.5232C110.702 16.5232 110.081 16.3962 109.497 16.1436C108.91 15.8924 108.401 15.5437 107.967 15.0983C107.535 14.6529 107.192 14.1258 106.941 13.5175C106.69 12.9092 106.564 12.2416 106.564 11.5146C106.564 10.7877 106.69 10.1192 106.941 9.5104C107.192 8.90302 107.535 8.37593 107.967 7.93101C108.401 7.48562 108.91 7.13687 109.497 6.8843C110.081 6.63173 110.702 6.50614 111.356 6.50614C111.813 6.50614 112.223 6.5659 112.588 6.68401C112.953 6.80213 113.265 6.92912 113.523 7.06217C113.812 7.22558 114.078 7.41092 114.322 7.61821L114.779 6.61679L114.778 6.61725ZM54.1383 5.28156C53.7428 5.28156 53.3969 5.13683 53.1004 4.84784C52.804 4.55885 52.655 4.22178 52.655 3.83475C52.655 3.44772 52.804 3.11064 53.1004 2.82166C53.3969 2.53267 53.7428 2.38794 54.1383 2.38794C54.5337 2.38794 54.8796 2.53267 55.1761 2.82166C55.4726 3.11064 55.6215 3.44959 55.6215 3.83475C55.6215 4.21991 55.4726 4.55885 55.1761 4.84784C54.8796 5.13683 54.5337 5.28156 54.1383 5.28156ZM114.001 12.5165C114.139 12.2056 114.207 11.8713 114.207 11.5151C114.207 11.1589 114.139 10.8246 114.001 10.5137C113.864 10.2014 113.682 9.93105 113.454 9.70042C113.224 9.46979 112.953 9.28538 112.655 9.15605C112.352 9.0216 112.032 8.95437 111.698 8.95437C111.364 8.95437 111.02 9.0216 110.717 9.15605C110.412 9.28911 110.146 9.47119 109.919 9.70042C109.689 9.93105 109.512 10.2014 109.381 10.5137C109.253 10.8246 109.188 11.1589 109.188 11.5151C109.188 11.8713 109.253 12.2056 109.381 12.5165C109.511 12.8289 109.689 13.0992 109.919 13.3298C110.146 13.559 110.412 13.7416 110.717 13.8742C111.02 14.0086 111.348 14.074 111.698 14.074C112.048 14.074 112.352 14.0082 112.655 13.8742C112.959 13.7411 113.226 13.559 113.454 13.3298C113.682 13.0992 113.864 12.8289 114.001 12.5165Z" fill="white"/>
  </g>
  <defs>
    <clipPath id="clip0_1385_2673">
      <rect width="116.716" height="20.5354" fill="white" transform="translate(0 0.106689)"/>
    </clipPath>
  </defs>
</svg>