<svg xmlns="http://www.w3.org/2000/svg" width="106" height="24" viewBox="0 0 106 24" fill="none">
  <g clip-path="url(#clip0_1385_2709)">
    <path d="M11.7098 23.6606C9.28508 23.6413 6.85912 23.6567 4.48337 23.0451C2.33555 22.4914 0.989935 21.1291 0.592046 18.9683C0.310047 17.4347 0.0988694 15.8638 0.0937187 14.3096C0.0872804 11.7394 0.105308 9.14861 0.420786 6.60418C0.822538 3.38244 2.16557 1.9763 5.3474 1.4548C9.64563 0.750445 13.9979 0.732417 18.2949 1.47798C21.5411 2.04069 22.9627 3.88462 23.2627 7.28664C23.5576 10.6307 23.6052 13.9722 23.2537 17.3124C23.1893 17.9292 23.0786 18.5447 22.9266 19.146C22.3588 21.4008 20.8908 22.7889 18.6258 23.1314C16.3428 23.4765 14.0276 23.604 11.7265 23.828C11.7213 23.7726 11.7149 23.7173 11.7098 23.6619V23.6606ZM15.2985 7.86223C15.2985 8.14294 15.2985 8.37343 15.2985 8.60392C15.2908 10.0191 15.3255 11.4368 15.2624 12.8494C15.189 14.4834 14.2439 15.5444 12.6369 15.784C10.0899 16.1638 8.14936 15.0757 8.21761 12.1527C8.24722 10.9088 8.22405 9.66496 8.21889 8.42107C8.21889 8.23823 8.18928 8.05538 8.17254 7.85965H5.85603C5.94745 9.96112 5.90625 12.0446 6.17022 14.0894C6.37496 15.6784 7.45145 16.8463 8.92969 17.5004C10.7582 18.3104 12.6472 18.3116 14.4924 17.5532C15.82 17.0072 16.7432 16.008 17.239 14.6469C17.3626 14.307 17.494 13.9439 17.4991 13.5911C17.5249 11.693 17.5107 9.79373 17.5107 7.86223H15.2985ZM10.6088 7.86223C10.6088 9.42932 10.5908 10.9256 10.6165 12.4219C10.6294 13.1739 11.084 13.5705 11.8025 13.5602C12.4811 13.5511 12.8931 13.1545 12.9227 12.4244C12.9498 11.7845 12.9318 11.1419 12.9318 10.4994C12.9318 9.63019 12.9318 8.76102 12.9318 7.86223H10.6075H10.6088Z" fill="white"/>
    <path d="M79.1533 7.7979C80.9831 7.7979 82.7807 7.78374 84.5783 7.80563C85.2401 7.81336 85.9174 7.82623 86.5587 7.96788C88.8533 8.47393 90.0019 10.7827 88.9126 12.6949C88.6447 13.1649 88.2018 13.5357 87.7755 14.0263C88.1477 14.6251 88.5649 15.2895 88.9769 15.9578C89.3761 16.6055 89.7714 17.2571 90.2311 18.0117C89.2641 18.0117 88.4335 18.0349 87.6069 17.9936C87.4279 17.9846 87.2025 17.7838 87.0982 17.6099C86.5741 16.7485 86.0655 15.878 85.5878 14.9895C85.3921 14.6264 85.1693 14.4551 84.7405 14.4693C83.8185 14.5002 82.8953 14.4951 81.972 14.4732C81.5806 14.4642 81.4415 14.5968 81.4518 14.9895C81.4737 15.8265 81.4441 16.6648 81.466 17.5005C81.4763 17.8945 81.3359 18.0349 80.9432 18.0181C80.3676 17.9924 79.7907 18.0117 79.1546 18.0117V7.7979H79.1533ZM81.493 12.3318C82.8785 12.3318 84.1829 12.3382 85.4874 12.3253C85.6947 12.3228 85.9548 12.2957 86.099 12.1721C86.3861 11.9275 86.8072 11.6094 86.8085 11.321C86.8085 10.9488 86.5201 10.502 86.2252 10.229C86.0114 10.032 85.5865 10.0178 85.253 10.0075C84.2473 9.97921 83.2417 9.99466 82.2347 9.99338C81.99 9.99338 81.7454 9.99338 81.493 9.99338V12.3318Z" fill="white"/>
    <path d="M35.194 7.83136H37.5066C37.5182 8.08245 37.5388 8.31037 37.5388 8.53829C37.5427 9.84785 37.5324 11.1561 37.5439 12.4657C37.5555 13.8036 37.9715 14.9702 39.3016 15.4904C40.7708 16.0647 42.262 16.0583 43.5535 15.0024C44.3196 14.3766 44.5231 13.4598 44.527 12.5043C44.5321 11.1947 44.527 9.88648 44.527 8.57692C44.527 8.34643 44.527 8.11593 44.527 7.84424H46.8911C46.8911 9.45768 46.9079 11.0415 46.8873 12.6241C46.8332 16.7845 43.3166 18.7289 39.5257 17.9627C36.8602 17.4245 35.2841 15.5084 35.2017 12.7889C35.1515 11.1626 35.1927 9.53237 35.1927 7.83136H35.194Z" fill="white"/>
    <path d="M105.433 18.0143C104.633 18.0143 103.947 18.0517 103.27 17.9912C103.069 17.9731 102.818 17.7104 102.719 17.4993C101.754 15.4429 100.818 13.3736 99.8716 11.3095C99.8021 11.1575 99.7223 11.0094 99.5909 10.748C99.4467 11.0249 99.336 11.2142 99.2446 11.4138C98.3046 13.4573 97.3581 15.4982 96.4387 17.5521C96.2816 17.9036 96.0936 18.0362 95.7151 18.0182C95.097 17.9886 94.4776 18.0105 93.7861 18.0105C93.8492 17.7903 93.8737 17.6242 93.9407 17.4787C95.3455 14.423 96.7619 11.3713 98.1565 8.31048C98.3342 7.92032 98.5672 7.8379 98.9754 7.77867C100.308 7.58552 101.001 8.06711 101.525 9.36508C102.631 12.1027 103.963 14.7501 105.2 17.4336C105.27 17.5843 105.325 17.7401 105.434 18.0143H105.433Z" fill="white"/>
    <path d="M69.7345 9.99064V18.0077C69.0005 18.0077 68.3219 18.0347 67.651 17.9793C67.5441 17.9703 67.3909 17.593 67.3883 17.3844C67.3677 15.1774 67.3742 12.969 67.3742 10.7607C67.3742 10.5302 67.3742 10.2997 67.3742 9.99708H63.3154V7.84796H73.8485C73.8485 8.45445 73.8807 9.05064 73.8241 9.63653C73.8112 9.77045 73.4867 9.96875 73.3013 9.9739C72.1475 10.0048 70.9925 9.98935 69.7345 9.98935V9.99064Z" fill="white"/>
    <path d="M52.1865 7.84283H54.4953V15.789C54.7773 15.8032 55.0014 15.8238 55.2267 15.8238C57.135 15.8264 59.0434 15.8354 60.9517 15.8161C61.3921 15.8109 61.5388 15.9332 61.5414 16.3929C61.5491 18.0128 61.5685 18.0128 59.9396 18.0128C57.6024 18.0128 55.2653 18.0128 52.9282 18.0128C52.6964 18.0128 52.4659 18.0128 52.1865 18.0128V7.84283Z" fill="white"/>
  </g>
  <defs>
    <clipPath id="clip0_1385_2709">
      <rect width="105.341" height="22.905" fill="white" transform="translate(0.0927734 0.921936)"/>
    </clipPath>
  </defs>
</svg>